<svg width="40" height="37" viewBox="0 0 40 37" fill="none" xmlns="http://www.w3.org/2000/svg">
<path d="M33.081 33.1923C33.0082 33.1444 32.9497 33.0734 32.9128 32.9882C26.7437 19.2602 16.7776 7.07864 6.27539 -2.69727C6.4226 -1.53724 31.5911 25.6326 33.2792 35.3534C33.2751 34.8955 33.2645 34.4237 33.2509 33.9473C33.2009 33.8995 33.1605 33.8402 33.1327 33.7735C33.1048 33.7067 33.09 33.6339 33.0893 33.5602C33.096 33.438 33.0843 33.3154 33.081 33.1923Z" fill="#EA90A6"/>
<path d="M29.7726 18.2778C30.8676 21.5728 31.8824 24.9193 32.7807 28.3003C32.0517 20.1116 30.1458 11.9197 27.8901 4.17415L21.7002 0.00488281C25.2911 5.45808 27.6882 12.0031 29.7726 18.2778Z" fill="#EA90A6"/>
<path d="M28.8032 4.11226C28.7109 4.1771 28.7588 4.19378 28.8032 4.11226V4.11226Z" fill="#EA90A6"/>
<path d="M28.9285 4.04526C28.9419 4.09911 28.9593 4.15159 28.9805 4.20218L29.595 3.80972C29.455 3.86013 29.3154 3.91693 29.175 3.95935C29.0915 3.98284 29.0092 4.01152 28.9285 4.04526Z" fill="#EA90A6"/>
<path d="M28.3493 3.1346L32.8685 0.609244C33.1943 0.428672 33.6516 0.25588 33.9626 0.00576128L27.7656 -5.25382L20.6591 -2.0411L28.3493 3.1346Z" fill="#EA90A6"/>
<path d="M19.0804 -2.42919C19.1004 -2.46978 19.1249 -2.50737 19.1532 -2.54106C19.2172 -2.63071 19.3067 -2.69287 19.4067 -2.71709L27.2096 -6.24892C25.1198 -14.4133 22.3264 -23.0942 17.6842 -29.8382C17.6628 -29.8791 17.6472 -29.9236 17.6378 -29.9699C17.6327 -29.9832 17.6282 -29.9968 17.6244 -30.0107C17.6011 -30.115 17.6039 -30.2246 17.6325 -30.3273C17.6611 -30.43 17.7144 -30.5218 17.7865 -30.5926C17.8419 -30.6517 17.9091 -30.695 17.9825 -30.7186L25.4157 -33.3175C23.3132 -42.3156 20.1881 -51.2192 16.2954 -59.6295L12.5077 -59.3923C14.2323 -52.5313 15.838 -45.453 16.1466 -38.3607C16.1498 -38.2351 16.1178 -38.1115 16.0553 -38.0073C15.9927 -37.9031 15.9027 -37.8236 15.7978 -37.7799L6.97748 -33.3034C11.9455 -26.567 15.8763 -18.1639 17.2415 -9.55535C17.2485 -9.45407 17.2308 -9.35257 17.1904 -9.26172C17.15 -9.17087 17.0884 -9.0941 17.0121 -9.03964L14.5519 -7.4841C13.737 -6.67868 12.4632 -5.96304 11.1538 -5.33487L7.51667 -3.03453C16.7035 5.60965 25.4654 16.116 31.5784 27.8485C30.8367 25.1283 30.0313 22.4334 29.162 19.7638C26.7403 12.2898 23.9299 4.30185 19.1643 -1.71367C19.1506 -1.73203 19.1467 -1.75261 19.1344 -1.77106C19.1042 -1.81307 19.0803 -1.86022 19.0634 -1.91076C19.0288 -1.9923 19.0123 -2.08205 19.0153 -2.17233C19.0182 -2.2626 19.0406 -2.35074 19.0804 -2.42919Z" fill="#EA90A6"/>
<path d="M32.9125 32.9884C32.9494 33.0737 33.008 33.1447 33.0808 33.1926C33.0372 31.5647 32.9279 29.933 32.7815 28.3005C31.8831 24.9195 30.8684 21.5746 29.7734 18.2779C27.6888 12.0016 25.2918 5.45821 21.7009 0.00500897L19.2737 -1.62571C19.2206 -1.66287 19.1739 -1.71039 19.1357 -1.76603C19.148 -1.74758 19.1519 -1.727 19.1656 -1.70864C23.9312 4.30688 26.7417 12.2948 29.1634 19.7689C30.0278 22.4366 30.8332 25.1315 31.5797 27.8536C25.4665 16.1162 16.7045 5.60989 7.51768 -3.0343L11.1548 -5.33464L14.5529 -7.48388L17.0131 -9.03941C17.0894 -9.09387 17.1511 -9.17064 17.1915 -9.26148C17.2319 -9.35233 17.2496 -9.45383 17.2426 -9.55511C15.8776 -18.1589 11.9464 -26.5684 6.97849 -33.3032L15.7991 -37.7765C15.9039 -37.8201 15.9939 -37.8997 16.0565 -38.0039C16.119 -38.108 16.151 -38.2316 16.1478 -38.3573C15.8392 -45.4495 14.2335 -52.5278 12.5089 -59.3889L11.4579 -59.3231C12.0104 -57.0288 12.5403 -54.7283 13.0294 -52.4188C13.665 -49.4234 14.2417 -46.4082 14.6506 -43.3602C14.8083 -42.1896 14.7748 -40.8533 15.0409 -39.7087C15.0921 -39.4797 15.0665 -38.8182 15.1942 -38.7124C15.0648 -38.6515 14.9149 -38.6004 14.8374 -38.5539C13.3765 -37.7321 11.8812 -36.9738 10.3793 -36.2326C8.91772 -35.5116 7.44967 -34.8063 6.00017 -34.0716C5.73334 -33.9364 5.49913 -33.5165 5.7354 -33.2045C10.122 -27.3927 13.7291 -20.2331 15.5342 -12.8966C15.6982 -12.231 16.4589 -10.2765 16.321 -9.92666C16.2424 -9.72954 15.6302 -9.49259 15.4631 -9.38443L11.971 -7.17645L6.33519 -3.61054C6.27002 -3.56136 6.21566 -3.49616 6.17621 -3.41988C6.13675 -3.3436 6.11323 -3.25823 6.10744 -3.17023C6.10164 -3.08224 6.11372 -2.9939 6.14275 -2.91191C6.17178 -2.82993 6.21701 -2.75645 6.27502 -2.69701C16.7773 7.0789 26.7434 19.2605 32.9125 32.9884Z" fill="#1A1A1A"/>
<path d="M34.5832 0.530912L33.9631 0.00433638C33.6521 0.254455 33.1947 0.42565 32.8689 0.60782L28.3497 3.13318L28.5593 3.28023C29.1252 3.66123 28.6593 4.69468 28.0889 4.31074L27.8915 4.17895C30.1471 11.9245 32.0531 20.1164 32.7821 28.3051C32.9285 29.9377 33.0378 31.5694 33.0814 33.1972C33.0875 33.3202 33.0936 33.4431 33.0996 33.5645C33.1003 33.6383 33.1151 33.711 33.143 33.7778C33.1709 33.8446 33.2112 33.9038 33.2613 33.9516C33.549 34.2379 34.1476 34.0707 34.135 33.4996C33.9348 24.6852 32.0307 15.8973 29.861 7.47206C29.6018 6.46641 29.4465 5.11468 28.9866 4.19847C28.9654 4.14788 28.948 4.0954 28.9346 4.04155C29.0161 4.00657 29.0993 3.97676 29.1838 3.95228C29.3242 3.90985 29.4638 3.85306 29.6038 3.80265C31.5068 3.10688 33.4535 1.56588 35.2196 0.579159C35.3115 0.513582 35.3789 0.41253 35.4092 0.294992C35.3753 0.378703 35.3252 0.452786 35.2624 0.511771C35.1996 0.570756 35.1259 0.613136 35.0466 0.635782C34.9673 0.658428 34.8845 0.660766 34.8043 0.642614C34.7241 0.624462 34.6485 0.586288 34.5832 0.530912ZM28.8042 4.11219C28.7597 4.19186 28.7119 4.17563 28.8042 4.11219V4.11219Z" fill="#1A1A1A"/>
<path d="M33.9555 -26.7084L33.0301 -27.3584L27.5625 -25.0828L27.7579 -24.9637C28.3453 -24.6097 27.8722 -23.5774 27.2876 -23.9332L27.1407 -24.0217C29.6178 -19.0241 31.4777 -13.5154 32.8537 -8.02599C33.1356 -6.89896 33.3931 -5.76452 33.6263 -4.62269C33.7697 -3.91411 33.8978 -3.19816 34.0168 -2.49126C34.041 -2.34862 34.2364 -1.62567 34.3563 -1.10301L35.2664 -0.331908C35.3218 -0.284634 35.3683 -0.225493 35.4032 -0.157889C34.8606 -4.111 34.0358 -8.00857 32.9368 -11.8128C31.7185 -16.0737 30.1497 -20.1977 28.2508 -24.1312L29.7234 -24.744L34.2628 -26.6299C34.1553 -26.6123 34.0458 -26.6403 33.9555 -26.7084Z" fill="#1A1A1A"/>
<path d="M35.2687 -0.331997L34.3586 -1.1031L28.288 -6.25688L28.1854 -6.34495C27.6589 -6.7925 26.9693 -5.93084 27.4987 -5.48188L27.765 -5.25509L33.9619 0.00449529L34.5821 0.531071C34.647 0.584797 34.7217 0.621703 34.8008 0.639136C34.8799 0.656569 34.9614 0.6541 35.0396 0.631905C35.1178 0.60971 35.1906 0.56833 35.2528 0.510753C35.3151 0.453176 35.3652 0.380825 35.3997 0.298881C35.4344 0.229283 35.4531 0.15106 35.4541 0.0712904C35.4551 -0.00847944 35.4384 -0.0872837 35.4055 -0.157978C35.3706 -0.225581 35.3241 -0.284722 35.2687 -0.331997Z" fill="#1A1A1A"/>
<path d="M19.7415 -2.66106C19.6926 -2.69584 19.638 -2.71929 19.581 -2.73002C19.5239 -2.74075 19.4655 -2.73855 19.4093 -2.72354C19.3093 -2.69932 19.2198 -2.63715 19.1559 -2.5475C19.1276 -2.51375 19.1031 -2.47617 19.083 -2.43563C19.0475 -2.35559 19.0275 -2.26792 19.0246 -2.1785C19.0216 -2.08908 19.0358 -1.99999 19.066 -1.91722C19.0829 -1.86668 19.1069 -1.81951 19.137 -1.77751C19.1752 -1.72187 19.222 -1.67435 19.275 -1.63719L21.697 0.00506394L27.887 4.17433L28.0844 4.30611C28.6547 4.69005 29.1207 3.6566 28.5548 3.2756L28.3452 3.12855L20.6565 -2.04883L19.7415 -2.66106Z" fill="#1A1A1A"/>
</svg>
