<svg width="64" height="46" viewBox="0 0 64 46" fill="none" xmlns="http://www.w3.org/2000/svg">
<path d="M27.3511 33.2919C26.8436 32.6139 26.4898 32.0457 26.5065 31.8636C26.5281 31.6107 27.3458 26.249 28.5219 20.1406C28.347 21.9963 28.1734 23.8469 28.001 25.6924C27.7611 28.223 27.5445 30.7562 27.3511 33.2919Z" fill="white"/>
<path d="M23.2947 33.6189C20.7575 31.2698 18.2232 28.9187 15.6917 26.5658C19.3028 29.3266 23.32 33.1521 27.0287 36.9794C27.0304 37.0094 27.0322 37.0419 27.0338 37.0695L23.2947 33.6189Z" fill="white"/>
<path d="M14.0462 27.3989C17.5885 30.6891 21.1343 33.9748 24.6836 37.2561C29.6983 41.9 34.7151 46.5413 39.734 51.1798L40.7365 52.1143C40.9589 52.7722 41.1724 53.4308 41.3942 54.0787L22.3547 37.1897L10.8082 26.9469C10.2115 26.4336 9.01326 24.9976 7.8398 24.0048C10.38 22.9729 11.8105 25.3225 14.0462 27.3989Z" fill="white"/>
<path d="M58.052 69.1956C59.0293 71.8764 58.9905 74.4581 58.6993 77.1633C58.6395 77.0142 58.5703 76.8557 58.5225 76.7209C57.7282 74.5148 56.9112 72.3405 56.0827 70.162C53.7228 63.9519 51.2998 57.7714 48.8659 51.5967C45.8107 43.8564 42.7348 36.1302 39.638 28.418C40.4253 28.9429 41.219 29.4624 42.0105 29.982C45.4469 38.1176 48.8436 46.2736 52.2004 54.45C54.1977 59.3359 56.2373 64.2189 58.052 69.1956Z" fill="white"/>
<path d="M30.0986 35.978C30.5107 35.0715 30.8534 34.165 31.0886 33.6934C31.8663 32.1301 32.6109 30.5341 33.3605 28.9477C33.4486 29.2431 33.5456 29.5379 33.6337 29.8333C32.9271 31.4292 32.2183 33.0252 31.5209 34.6255C31.2312 35.282 30.7012 35.6789 30.0986 35.978Z" fill="white"/>
<path d="M35.6931 36.5349C36.9643 40.6041 38.2681 44.6577 39.6046 48.6955L38.8643 48.0114L35.6931 36.5349Z" fill="white"/>
<path d="M61.1436 72.8329C61.2182 75.7611 60.7088 77.9639 60.041 79.5746C60.5235 76.2124 61.0288 72.738 59.9257 69.5282C58.2467 64.6977 56.2435 59.9856 54.3213 55.2829C51.0895 47.3574 47.7882 39.4669 44.468 31.5979C45.152 32.0749 46.2009 32.9181 47.2425 33.4728L46.1352 33.6618C46.1352 33.6618 60.9393 65.03 61.1436 72.8329Z" fill="white"/>
<path d="M48.84 24.8658C47.5683 22.1179 45.8266 19.5616 44.2755 17.0145C41.2643 12.0696 38.1844 7.17485 35.0747 2.30732C35.0237 2.23511 34.9637 2.17161 34.8964 2.11884C39.2092 4.07588 50.7736 25.7395 50.7527 27.4427C50.7288 29.2919 49.8363 33.0375 49.8363 33.0375C49.8794 30.2519 49.9947 27.3606 48.84 24.8658Z" fill="white"/>
<path d="M43.4647 28.8585C41.7139 27.7239 39.9717 26.5695 38.2381 25.3951C37.6525 24.9992 36.8251 25.7942 37.1107 26.503C41.1315 36.5026 45.1132 46.5225 49.0558 56.5628C51.3064 62.298 53.5505 68.0387 55.7096 73.8181C56.3672 75.5789 57.036 77.3414 57.6281 79.1319C56.6107 78.3719 55.1085 77.6965 54.3437 77.1348C52.0008 75.4204 49.6884 73.6511 47.3782 71.8816C42.6738 68.2807 37.9982 64.635 33.2388 61.131C31.737 60.0232 27.1948 55.526 25.133 56.1168C22.8688 56.7672 25.6281 62.205 26.0913 63.4894C28.3549 69.7767 30.8147 75.9747 33.1957 82.2034C34.2452 84.9745 35.3081 87.7473 36.2901 90.5509C36.6093 91.4608 37.4575 93.2333 37.6278 94.478C37.3467 94.5136 37.0631 94.5177 36.7812 94.4902C35.8534 94.3321 34.9139 94.2428 33.9843 94.0924C31.4007 93.6695 28.8271 93.1453 26.265 92.5876C23.5263 91.9896 20.794 91.346 18.085 90.6001C16.3775 90.1327 13.8274 89.8281 12.3553 88.693C10.0775 86.9439 9.95098 79.892 9.48998 77.049C8.236 69.3472 7.15159 61.6123 6.23674 53.8446C5.26863 45.6181 4.3558 37.1011 5.31414 28.8212C5.44896 27.6353 5.74595 26.5108 5.94258 25.3506C5.97097 25.2169 5.97461 25.078 5.95328 24.9427C6.662 25.262 7.51606 26.3402 8.07175 26.8414C19.6027 37.0451 31.1239 47.2621 42.6354 57.4923C43.2352 58.023 44.2403 57.4064 43.9332 56.5131C40.5122 46.5649 37.2254 36.5369 34.2833 26.3964C34.0644 25.6427 33.1212 25.6064 32.7992 26.2853C32.0286 27.9352 31.2466 29.5825 30.4534 31.2272C29.8822 32.4063 29.3088 33.5856 28.7074 34.7442C28.7084 34.7617 28.677 34.7992 28.6668 34.8175C28.814 33.4522 29.0557 31.9395 29.1267 31.0522C29.446 27.3043 29.8059 23.5637 30.2065 19.8302C30.5483 16.6313 30.9035 13.4315 31.356 10.2523C31.5172 9.13746 31.8356 7.95613 31.9096 6.84238C32.7388 8.35471 34.4258 10.0954 35.1952 11.2978C36.9495 14.0392 38.6567 16.8191 40.3558 19.6122C42.0165 22.3602 43.6558 25.124 45.2736 27.9035C45.5062 28.3043 46.0942 29.6628 46.7085 30.8912C45.6123 30.2398 44.5343 29.5545 43.4647 28.8585ZM11.6631 78.3657C11.8554 79.0459 12.7853 78.6834 12.5931 78.0058C12.2603 76.835 12.0159 75.6347 11.8623 74.4178C11.774 73.7177 10.7917 73.7847 10.8803 74.4873C11.0434 75.8026 11.3052 77.1001 11.6631 78.3657ZM8.21162 47.109C8.25143 47.8201 9.2289 47.7484 9.19146 47.0397C9.13764 45.9665 8.97613 44.9037 8.71001 43.8714C8.53534 43.1874 7.60544 43.5499 7.77997 44.2313C8.01853 45.1695 8.16331 46.1347 8.21162 47.109ZM6.99244 36.8341C6.85825 37.7653 6.93552 38.7196 7.21707 39.6083C7.4289 40.277 8.3524 39.9201 8.14711 39.2484C7.91989 38.5497 7.85394 37.7976 7.95542 37.0625C8.05465 36.3592 7.09167 36.1308 6.99244 36.8341ZM7.31946 30.376C7.25475 31.097 7.18781 31.8181 7.12309 32.5391C7.05838 33.26 8.02317 33.4808 8.08594 32.765C8.1487 32.0492 8.21759 31.3229 8.2823 30.6019C8.34701 29.881 7.38724 29.6699 7.32391 30.3757L7.31946 30.376ZM10.429 67.1869L10.7253 70.2024C10.7962 70.9088 11.7761 70.8419 11.7074 70.1329C11.6097 69.1344 11.5102 68.1292 11.4089 67.1176C11.3447 66.4107 10.3626 66.4802 10.4335 67.1866L10.429 67.1869ZM10.6013 41.0328C10.5614 40.3218 9.5816 40.3911 9.62141 41.1022L9.80099 44.3094C9.8408 45.0205 10.8205 44.9486 10.7808 44.2401L10.6013 41.0328ZM11.7796 33.6071C11.7398 32.896 10.7577 32.9655 10.7975 33.6766L10.957 36.5258C10.9968 37.2369 11.9788 37.1649 11.9391 36.4563L11.7796 33.6071ZM14.7876 70.2819C14.7058 69.5789 13.7236 69.6459 13.8056 70.3514C13.9348 71.4816 14.1566 72.596 14.4682 73.6803C14.6604 74.358 15.5904 73.9981 15.396 73.3206C15.1124 72.3296 14.9102 71.3115 14.792 70.2791L14.7876 70.2819ZM52.3002 72.6216C52.5317 73.2814 53.462 72.9265 53.2303 72.2617C52.8201 71.0859 52.4108 69.9108 52.0022 68.7365C51.7708 68.0767 50.8406 68.4341 51.0722 69.0964C51.4832 70.2622 51.894 71.4363 52.3045 72.6188L52.3002 72.6216ZM50.7058 65.7868C50.4435 65.0965 50.1812 64.4045 49.9188 63.7109C49.67 63.0599 48.7397 63.4148 48.9888 64.0708C49.2379 64.7268 49.5135 65.4564 49.7759 66.1492C50.0311 66.7947 50.9614 66.4398 50.7101 65.7839L50.7058 65.7868ZM48.6656 69.2793C48.9254 69.927 49.8491 69.5726 49.5956 68.9194L48.6537 66.4724C48.3939 65.8247 47.4703 66.1791 47.7237 66.8323L48.6656 69.2793ZM47.29 59.7243C47.5366 60.3755 48.4691 60.0204 48.22 59.3644L47.354 57.0754C47.1074 56.4242 46.1749 56.7793 46.424 57.4353L47.29 59.7243Z" fill="white"/>
<path d="M5.99595 23.0116C6.11388 22.9187 6.23875 22.8376 6.36916 22.769C6.24824 22.8454 6.12759 22.9269 6.00277 23.0136L5.99595 23.0116Z" fill="white"/>
<path d="M42.1304 16.7115C43.7544 19.3616 45.4028 22.0099 46.8977 24.7496C47.7401 26.2987 48.042 27.8961 48.16 29.5644C48.0666 29.4151 47.9616 29.2566 47.8824 29.119C46.1878 26.127 44.4375 23.1767 42.672 20.235C39.714 15.3215 36.8463 10.1453 33.41 5.63269C33.2592 5.44128 33.0997 5.25875 32.9322 5.08585L34.204 4.08088C36.8782 8.26536 39.5203 12.4756 42.1304 16.7115Z" fill="white"/>
<path d="M43.3429 29.0395C42.8989 27.9954 41.367 28.5781 41.8116 29.6321L41.9412 29.9446C41.1492 29.4258 40.355 28.9072 39.5673 28.383C42.6715 36.0954 45.7548 43.8185 48.8171 51.5524C51.2568 57.7246 53.6857 63.9026 56.0514 70.1103C56.882 72.2879 57.7082 74.4684 58.4974 76.6666C58.5453 76.8015 58.6147 76.9599 58.6746 77.1089C58.5463 78.3097 58.3654 79.5318 58.2142 80.8021C58.1974 80.9307 58.2049 81.0618 58.2362 81.187C58.2676 81.3121 58.3221 81.4283 58.3961 81.5281C58.4702 81.6279 58.5622 81.709 58.666 81.7661C58.7699 81.8232 58.8833 81.855 58.9988 81.8594C58.9015 81.868 58.8036 81.8632 58.7074 81.8451C57.9243 81.7581 56.871 81.0067 56.1736 80.5389C51.9258 77.6766 47.8723 74.4182 43.7813 71.2857C39.3815 67.9139 34.9954 64.5085 30.4937 61.3099C30.1901 60.4536 29.8857 59.5981 29.5807 58.7435C29.1948 57.6601 27.6654 58.2476 28.0494 59.3361C28.1104 59.5052 28.1691 59.6719 28.2278 59.8387C27.5945 59.5146 26.8814 59.1636 26.292 58.7861C26.5039 59.4446 26.6494 60.2336 26.8291 60.7586C29.2419 67.7925 32.0563 74.6542 34.6997 81.576C35.8871 84.6808 37.0835 87.7874 38.1576 90.9431C38.1842 91.0191 38.2208 91.112 38.2475 91.188C38.1466 92.5109 37.9582 93.8234 37.6842 95.1149C37.4519 96.2578 39.0354 96.6216 39.2702 95.4836C39.2709 95.4886 39.2712 95.4936 39.2711 95.4986C39.2601 95.5474 39.2448 95.5948 39.2255 95.6402C39.191 95.7794 39.1216 95.9045 39.0256 96.0006C38.9295 96.0966 38.8109 96.1595 38.684 96.1818C37.1367 97.1225 33.2422 96.0272 31.099 95.4546C30.6675 95.3373 30.284 95.2391 30.0353 95.1891C24.7905 94.1757 19.4952 93.0603 14.3908 91.3706C11.2779 90.3373 10.2791 89.8384 9.51367 86.291C7.99768 79.3008 7.02802 72.1281 6.03118 65.0277C5.4551 60.9188 4.89067 56.7788 4.40849 52.6304C3.75306 46.9711 3.27298 41.2891 3.30674 35.6004C3.32103 33.4173 2.77143 23.3738 5.74758 22.9866C5.80325 22.9826 5.86967 23.0105 5.93008 23.0112C5.82259 23.0868 5.72927 23.1362 5.61998 23.2195C4.76239 23.8643 5.65325 25.374 6.52184 24.7258C6.90998 24.4293 7.32856 24.1865 7.76848 24.0028C8.94285 24.9944 10.1424 26.4291 10.7357 26.9521L22.2916 37.183L41.3466 54.0522C41.1237 53.3971 40.9096 52.7387 40.687 52.0886L40.7979 52.1912C41.6003 52.933 42.6696 51.5691 41.865 50.8275L39.5498 48.6886C38.2021 44.6526 36.8944 40.6004 35.6268 36.5319C35.1837 35.1107 34.7448 33.6867 34.3103 32.2599C34.5824 31.6194 34.8521 30.9766 35.1314 30.3457C35.5954 29.3068 34.1489 28.4831 33.6876 29.5293L33.5588 29.8201C33.4704 29.5248 33.3732 29.2301 33.2848 28.9348C32.5368 30.522 31.7935 32.1139 31.0176 33.6829C30.7848 34.1496 30.4432 35.0615 30.0298 35.9686C29.2394 36.3118 28.4257 36.583 27.5965 36.7793C27.4917 36.8033 27.3934 36.8547 27.3094 36.9293C27.2255 37.0039 27.1584 37.0996 27.1134 37.2087L26.9576 37.064C26.9561 37.0365 26.9542 37.004 26.9525 36.9739C26.9364 36.1028 27.1255 35.1038 27.176 34.3812C27.2021 34.0148 27.2418 33.6525 27.2701 33.2859C27.4571 30.7587 27.6713 28.2252 27.9127 25.6857C28.085 23.8432 28.2569 21.9924 28.4282 20.1333C28.8493 15.7491 29.3099 11.352 30.1098 7.06374C30.222 6.31411 30.4487 5.59196 30.7797 4.92914C30.7851 5.57481 31.4044 6.20153 32.0119 5.72048L32.8292 5.07354C32.9969 5.24627 33.1565 5.42862 33.3075 5.61989C36.748 10.1289 39.6272 15.3018 42.5831 20.2126C44.3513 23.1525 46.1044 26.101 47.8018 29.0912C47.8812 29.2288 47.9863 29.3872 48.0798 29.5363C48.1611 30.6894 48.1659 31.8731 48.1473 33.1162C48.1313 34.2888 49.7429 34.163 49.7594 33.0004C49.7712 33.1592 49.7446 33.3186 49.6823 33.4616C49.6199 33.6046 49.5243 33.726 49.4054 33.8127C48.8119 34.1469 47.9926 33.8941 47.1491 33.4519C46.107 32.8983 45.0574 32.0561 44.3729 31.5799C44.0402 30.7239 43.697 29.8788 43.3429 29.0395ZM40.271 19.5793C38.5782 16.7874 36.8684 14.0092 35.1026 11.2703C34.3322 10.0687 32.6435 8.32973 31.8129 6.81824C31.7405 7.9421 31.4201 9.1089 31.2626 10.2288C30.8132 13.4084 30.4611 16.6087 30.1223 19.808C29.728 23.5367 29.3728 27.2718 29.0568 31.0133C28.9821 31.901 28.7329 33.4146 28.6005 34.7791C28.6106 34.7608 28.6331 34.724 28.641 34.7058C29.2457 33.5462 29.8131 32.3592 30.3835 31.187C31.1756 29.548 31.9559 27.8999 32.7246 26.2425C33.0392 25.5638 33.9891 25.5987 34.2087 26.3521C37.1693 36.4889 40.4569 46.5168 43.8871 56.459C44.1951 57.3519 43.1906 57.9696 42.5903 57.4396C31.0659 47.2383 19.537 37.0381 8.00379 26.8391C7.4411 26.3416 6.58589 25.2617 5.88357 24.9426C5.90503 25.078 5.90152 25.2169 5.87326 25.3506C5.67776 26.511 5.38185 27.6358 5.24817 28.8219C4.2978 37.1028 5.2189 45.6214 6.19472 53.8445C7.11522 61.6065 8.20701 69.3402 9.47009 77.0457C9.9338 79.8883 10.0671 86.9401 12.3465 88.6869C13.8263 89.8199 16.3766 90.1219 18.0824 90.5901C20.792 91.3332 23.5271 91.9738 26.2641 92.5691C28.8266 93.1241 31.4006 93.6456 33.9845 94.0659C34.9142 94.2153 35.8538 94.3037 36.7816 94.4607C37.0635 94.4879 37.3472 94.4836 37.6283 94.4477C37.4515 93.1884 36.6023 91.4294 36.2868 90.5219C35.2909 87.7176 34.232 84.9455 33.1736 82.1809C30.793 75.9491 28.321 69.7591 26.0515 63.4741C25.5871 62.1902 22.8227 56.7553 25.0861 56.1025C27.154 55.509 31.7003 60.0015 33.1965 61.1082C37.959 64.6073 42.6379 68.2481 47.3456 71.8442C49.6575 73.6113 51.9715 75.3782 54.316 77.0901C55.0813 77.6511 56.5841 78.3249 57.6021 79.0839C57.0083 77.294 56.3379 75.5321 55.6787 73.772C53.5141 67.9949 51.2645 62.2565 49.0085 56.5236C45.0608 46.4853 41.0694 36.4652 37.0343 26.4634C36.748 25.755 37.5747 24.959 38.1606 25.3544C39.8922 26.5254 41.6355 27.6781 43.3903 28.8123C44.4606 29.5072 45.5392 30.1914 46.636 30.8417C46.0205 29.6139 45.4312 28.256 45.1982 27.8554C43.5812 25.084 41.9388 22.3253 40.271 19.5793Z" fill="#1A1A1A"/>
<path d="M58.2298 80.8563C58.3935 79.5879 58.5687 78.364 58.6938 77.1636C58.9894 74.4581 59.0238 71.8767 58.0464 69.196C56.2318 64.2192 54.1922 59.3362 52.1949 54.4503C48.8453 46.27 45.4487 38.114 42.005 29.9823L41.8757 29.6697C41.4299 28.6153 42.9623 28.0343 43.4076 29.0786C43.7609 29.9183 44.1034 30.7638 44.4567 31.6035C47.7773 39.48 51.0786 47.3705 54.3099 55.2885C56.2325 59.9987 58.2353 64.7033 59.9143 69.5338C61.0252 72.7229 60.5114 76.2055 60.029 79.5677C59.9482 80.1214 59.8674 80.6751 59.7997 81.2228C59.79 81.328 59.7613 81.4298 59.7153 81.522C59.6693 81.6141 59.607 81.6948 59.5323 81.7589C59.4576 81.8231 59.372 81.8694 59.2808 81.895C59.1895 81.9205 59.0946 81.9249 59.0019 81.9077C58.8879 81.9013 58.7764 81.8683 58.6744 81.8107C58.5725 81.7532 58.4823 81.6723 58.4096 81.5734C58.337 81.4745 58.2835 81.3597 58.2525 81.2362C58.2216 81.1127 58.2138 80.9834 58.2298 80.8563Z" fill="#1A1A1A"/>
<path d="M27.0252 37.0702L27.1809 37.215C27.1268 37.38 27.1134 37.5585 27.142 37.7314C27.1707 37.9043 27.2405 38.0652 27.3438 38.1973C27.4472 38.3293 27.5804 38.4274 27.7293 38.4813C27.8782 38.5352 28.0373 38.5429 28.1898 38.5035L28.4848 38.4223C31.9432 41.6246 35.4015 44.8252 38.8597 48.0241L39.6001 48.7082L41.9132 50.8495C42.7172 51.592 41.6465 52.9547 40.8448 52.2121L40.734 52.1094L39.7315 51.1749C34.7156 46.5377 29.6982 41.8982 24.6791 37.2563C21.1327 33.9731 17.5869 30.6874 14.0418 27.3991C11.806 25.3227 10.3755 22.9731 7.84201 24.0046C7.39638 24.1877 6.9723 24.4312 6.57917 24.7299C5.72107 25.3763 4.80935 23.8673 5.67873 23.2226C5.7881 23.1394 5.88147 23.0901 5.98904 23.0146C6.0966 22.9391 6.23449 22.8464 6.35542 22.77C8.96811 21.0769 10.4634 21.7076 12.7395 23.8264C13.7208 24.7406 14.7034 25.6522 15.6873 26.5612C18.2201 28.9123 20.7545 31.2634 23.2903 33.6143L27.0252 37.0702Z" fill="#1A1A1A"/>
<path d="M48.2232 33.1341C48.243 31.891 48.2393 30.7073 48.1591 29.5542C48.0411 27.886 47.7393 26.2886 46.8968 24.7394C45.4017 21.9948 43.7534 19.3489 42.1296 16.7014C39.5268 12.4616 36.8861 8.25126 34.2076 4.07045L32.9387 5.08527L32.1208 5.73136C31.5127 6.21176 30.8941 5.58441 30.8892 4.93874C30.8855 4.79773 30.914 4.65799 30.9719 4.53288C31.0299 4.40776 31.1154 4.30144 31.2203 4.22406L33.9564 2.05971C34.0985 1.95498 34.2666 1.9042 34.4362 1.91482C34.6058 1.92543 34.7679 1.99689 34.8988 2.1187C34.966 2.17148 35.026 2.23498 35.077 2.30719C38.1867 7.17471 41.2666 12.0695 44.2778 17.0144C45.8289 19.5615 47.5706 22.1178 48.8423 24.8657C49.997 27.3604 49.8824 30.2643 49.8382 33.0299C49.8184 34.1926 48.2133 34.3163 48.2232 33.1341Z" fill="#1A1A1A"/>
<path d="M28.4848 38.4222L28.1898 38.5034C28.0373 38.5428 27.8782 38.5351 27.7293 38.4812C27.5804 38.4273 27.4472 38.3292 27.3438 38.1972C27.2405 38.0652 27.1708 37.9042 27.1421 37.7313C27.1134 37.5584 27.1268 37.38 27.1809 37.2149C27.226 37.1059 27.2932 37.0102 27.3772 36.9357C27.4612 36.8612 27.5595 36.81 27.6644 36.7861C28.4938 36.5906 29.3078 36.3203 30.0986 35.9778C30.7014 35.6838 31.2311 35.2818 31.5183 34.6205C32.2157 33.0203 32.9245 31.4242 33.631 29.8283L33.7601 29.5377C34.2229 28.4994 35.6677 29.3071 35.2032 30.3555C34.9233 30.9861 34.653 31.6287 34.3803 32.2688C33.8467 33.5207 33.3133 34.775 32.7217 35.9883C31.9679 37.5397 29.971 38.0129 28.4848 38.4222Z" fill="#1A1A1A"/>
<path d="M8.71031 43.8713C8.97643 44.9036 9.13794 45.9665 9.19176 47.0396C9.23143 47.7482 8.24729 47.8203 8.21193 47.109C8.16362 46.1347 8.01885 45.1694 7.78029 44.2312C7.60576 43.5498 8.53564 43.1874 8.71031 43.8713Z" fill="#1A1A1A"/>
<path d="M7.96001 37.0621C7.85853 37.7972 7.92449 38.5493 8.1517 39.248C8.36366 39.9192 7.43351 40.2766 7.22169 39.6079C6.94014 38.7192 6.86287 37.7649 6.99706 36.8336C7.09184 36.1306 8.05479 36.3591 7.96001 37.0621Z" fill="#1A1A1A"/>
<path d="M9.80613 44.3091L9.62643 41.0994C9.58662 40.3883 10.5664 40.319 10.6062 41.03L10.7859 44.2398C10.8256 44.9483 9.84594 45.0202 9.80613 44.3091Z" fill="#1A1A1A"/>
<path d="M7.1288 32.5386C7.19352 31.8177 7.26046 31.0965 7.32517 30.3756C7.38989 29.6546 8.35151 29.8982 8.28804 30.6015C8.22457 31.3048 8.15639 32.0436 8.09167 32.7646C8.02696 33.4856 7.06533 33.2419 7.1288 32.5386Z" fill="#1A1A1A"/>
<path d="M10.9623 36.5253L10.8025 33.671C10.7627 32.96 11.7447 32.8905 11.7845 33.6015L11.9444 36.4558C11.9842 37.1668 11.0022 37.2388 10.9623 36.5253Z" fill="#1A1A1A"/>
</svg>
