<svg width="100" height="129" viewBox="0 0 100 129" fill="none" xmlns="http://www.w3.org/2000/svg">
<path d="M72.2196 48.1993C71.8831 45.5934 71.4022 43.0137 70.7795 40.4752C70.0136 41.4488 69.2561 42.4338 68.5071 43.43L69.8225 52.0025C70.6627 50.6668 71.4731 49.3803 72.2196 48.1993Z" fill="#FFE761"/>
<path d="M68.921 53.3804C68.4739 50.4652 68.0277 47.5501 67.5822 44.6353C66.7715 45.7388 65.9967 46.8763 65.2117 48.002C65.4684 51.0333 65.8611 54.0358 66.3569 57.0286C67.1961 55.7943 68.0574 54.587 68.921 53.3804Z" fill="#FFE761"/>
<path d="M65.4645 58.3339C65.4552 58.3079 65.4329 58.3041 65.4266 58.2761C64.9133 55.3244 64.5341 52.3521 64.2465 49.3638C63.3637 50.647 62.4945 51.9526 61.6389 53.2807L62.2942 63.214C63.3344 61.5736 64.3912 59.9469 65.4645 58.3339Z" fill="#FFE761"/>
<path d="M59.2169 68.2905C59.9166 67.1217 60.6211 65.9542 61.3405 64.8C61.3457 64.7784 61.3174 64.7669 61.3153 64.7431L60.6609 54.8391C59.7154 56.3202 58.7846 57.8125 57.8682 59.3159C57.9433 59.3788 57.9958 59.4699 58.0163 59.5726C58.4072 62.4709 58.8074 65.3769 59.2169 68.2905Z" fill="#FFE761"/>
<path d="M76.5494 41.2952C76.3398 41.2321 76.1383 41.1452 75.9316 41.0801C75.9852 41.3867 76.0383 41.7164 76.0893 42.0338L76.5494 41.2952Z" fill="#FFE761"/>
<path d="M75.2137 43.4431C75.0863 42.6767 74.9588 41.9073 74.8311 41.135C74.8142 40.9992 74.8407 40.861 74.906 40.7451C73.8744 40.4343 72.8329 40.1758 71.7951 39.9125C72.3491 42.174 72.7906 44.4684 73.1178 46.7851C73.8732 45.5663 74.5881 44.431 75.2137 43.4431Z" fill="#FFE761"/>
<path d="M66.7229 31.0941C63.1752 30.3024 59.5803 29.8068 55.9677 29.6113C55.809 29.6096 55.6534 29.5615 55.5163 29.4716C55.3792 29.3818 55.2653 29.2533 55.1858 29.0989C55.1063 28.9445 55.064 28.7695 55.063 28.5911C55.062 28.4127 55.1023 28.237 55.18 28.0815C59.7158 19.4884 67.5173 12.6284 74.1546 6.18737C78.7047 1.77233 83.3449 -2.52168 88.075 -6.69467C80.6477 -8.46164 73.1495 -10.1367 65.6145 -11.0938C63.9494 -11.305 61.7297 -11.8227 60.0358 -11.2409C52.5141 -0.0589181 31.5191 33.3587 28.1125 42.9049C28.2549 43.0552 28.5726 43.1422 29.2708 43.3671C31.2989 44.0275 33.5309 44.0928 35.6291 44.1992C39.0495 44.3728 42.4899 44.3432 45.9107 44.1684C46.5697 44.1346 47.0866 45.0658 46.6976 45.7009C43.1933 51.4185 40.5441 58.0792 38.2332 64.8273L50.35 68.4776C57.0079 56.5736 64.3069 44.9818 72.9169 34.9032L66.7229 31.0941ZM45.1173 20.3651C41.661 25.8342 38.5346 31.5577 35.7591 37.497C35.2242 38.6574 33.6622 37.6234 34.1965 36.4657C36.972 30.5264 40.0984 24.8029 43.5547 19.3338C44.2273 18.2787 45.7907 19.2958 45.1173 20.3651ZM47.548 17.1472L47.3286 17.0811C46.2054 16.7427 46.673 14.7807 47.7962 15.1191L48.0156 15.1852C49.1388 15.5236 48.6701 17.4794 47.5493 17.1418L47.548 17.1472Z" fill="#FFE761"/>
<path d="M91.8707 1.80009C90.7053 1.53033 89.5354 1.27954 88.368 1.01791L88.7936 4.53278C89.8173 3.61935 90.843 2.70846 91.8707 1.80009Z" fill="#FFE761"/>
<path d="M64.895 25.5799C64.9436 26.2538 65.1575 27.2535 65.1342 28.1208C66.086 27.0104 67.082 25.9425 68.0613 24.8578C67.8753 21.5081 67.8498 18.1573 67.9617 14.8044C66.7105 16.0578 65.4899 17.3457 64.2999 18.6679C64.3453 18.7484 64.4103 18.8116 64.4189 18.9274L64.895 25.5799Z" fill="#FFE761"/>
<path d="M57.0465 60.6399C56.25 61.9655 55.456 63.2918 54.6787 64.6348C54.7617 64.701 54.8201 64.7992 54.8428 64.9108L55.6071 70.0613L57.7548 70.7083C57.9387 70.3919 58.1195 70.0775 58.3052 69.7645L57.0465 60.6399Z" fill="#FFE761"/>
<path d="M77.6403 39.5501L78.436 38.2707L74.5655 35.8993C73.9446 36.6185 73.3195 37.3335 72.7122 38.0713C74.3704 38.4992 76.0131 38.9921 77.6403 39.5501Z" fill="#FFE761"/>
<path d="M64.0271 28.2665C63.9712 27.8721 63.8716 26.6425 63.8484 26.3277L63.6897 24.1102L63.3726 19.6956C62.3478 20.874 61.3704 22.0841 60.4407 23.326C60.535 23.3602 60.6168 23.4279 60.6739 23.519C60.7309 23.61 60.7601 23.7195 60.757 23.8308C60.7412 25.2514 60.8806 26.6688 61.172 28.0512C62.0849 28.1665 62.995 28.3477 63.9061 28.5031C63.9317 28.4498 63.9339 28.3866 63.9654 28.3409L64.0271 28.2665Z" fill="#FFE761"/>
<path d="M88.0087 5.22301C87.9318 5.17744 87.8658 5.11183 87.8161 5.03168C87.7665 4.95153 87.7346 4.85917 87.7232 4.76234C87.5612 3.42587 87.3996 2.09144 87.2383 0.75907C86.48 0.591606 85.7266 0.414029 84.97 0.250001C85.3572 2.54688 85.628 4.86661 85.7813 7.19801C86.5175 6.53684 87.2626 5.89285 88.0087 5.22301Z" fill="#FFE761"/>
<path d="M33.191 47.229C32.8621 47.9374 32.5565 48.6557 32.2804 49.3916C32.8259 49.4223 33.3838 49.4335 33.9612 49.3955L33.191 47.229Z" fill="#FFE761"/>
<path d="M57.5497 27.7205C58.3799 27.7818 59.2088 27.8486 60.0415 27.9426C59.8202 26.7782 59.7005 25.5923 59.6841 24.4018C58.921 25.4789 58.2095 26.5852 57.5497 27.7205Z" fill="#FFE761"/>
<path d="M27.6338 44.8899C27.3168 47.3039 28.4682 48.5541 30.2956 49.0813C30.6418 48.0892 31.0611 47.1312 31.5491 46.2175C29.9744 45.9523 28.6017 45.5329 27.6338 44.8899Z" fill="#FFE761"/>
<path d="M41.1226 52.9411L41.183 52.9912C41.3172 52.6773 41.44 52.357 41.5773 52.0411C41.9642 51.144 42.3644 50.2451 42.7703 49.3334L42.3824 48.4788C42.1333 49.3506 41.6993 50.8899 41.1226 52.9411Z" fill="#FFE761"/>
<path d="M81.4936 13.8386C76.4052 18.6695 71.4813 23.7097 66.8604 29.0503L66.9448 29.0757C69.914 26.0259 77.4036 18.3284 84.2186 11.2932C83.3562 12.0936 82.4944 12.8912 81.6377 13.7107C81.5989 13.7651 81.5496 13.8088 81.4936 13.8386Z" fill="#FFE761"/>
<path d="M94.1928 0.254335C94.351 0.294785 94.4937 0.390658 94.6003 0.528136C96.2681 -1.22334 97.3286 -2.35612 97.4106 -2.49408C97.8492 -3.25071 88.8502 -4.42811 88.6915 -4.66182C87.5974 -3.68439 86.5019 -2.70063 85.4048 -1.71055C88.3339 -1.0692 91.27 -0.446099 94.1928 0.254335Z" fill="#FFE761"/>
<path d="M37.9811 48.855C37.6745 48.1033 37.3704 47.3524 37.0315 46.6171C36.0534 46.6129 35.0745 46.5794 34.1143 46.5109L35.1052 49.3015C36.091 49.1976 37.0637 49.0404 37.9811 48.855Z" fill="#FFE761"/>
<path d="M76.4366 16.0791C76.4208 16.0031 76.4235 15.9237 76.4444 15.8493C76.4654 15.7748 76.5037 15.7081 76.5555 15.656C76.3136 12.8123 76.1038 9.96363 75.9515 7.11201C74.9726 8.05442 73.9668 9.01197 72.9426 9.98142C72.9205 13.102 73.0097 16.2183 73.2101 19.3303C74.2793 18.2331 75.3548 17.1494 76.4366 16.0791Z" fill="#FFE761"/>
<path d="M77.6032 14.9028C78.5928 13.9375 79.6074 12.9971 80.6083 12.0496C80.4132 9.067 80.2825 6.08149 80.2163 3.09312C79.1136 4.13187 78.0019 5.165 76.9094 6.21551C76.9458 6.29037 77.0055 6.34322 77.0118 6.44679C77.1578 9.27039 77.3699 12.0878 77.6032 14.9028Z" fill="#FFE761"/>
<path d="M44.2724 46.3151C43.7961 46.3517 43.2707 46.388 42.697 46.4214L43.3891 47.9834C43.6622 47.4121 43.9772 46.8709 44.2724 46.3151Z" fill="#FFE761"/>
<path d="M72.2669 20.2838C72.2239 20.204 72.1589 20.1408 72.1497 20.0277C71.9452 17.0267 71.86 14.0239 71.859 11.0146C70.9338 11.8976 70.0074 12.793 69.0799 13.7005C68.9405 17.0277 68.9707 20.348 69.1231 23.676C70.1667 22.5381 71.2013 21.3947 72.2669 20.2838Z" fill="#FFE761"/>
<path d="M42.0813 47.813L41.4854 46.4978C40.4773 46.5543 39.3792 46.5982 38.2464 46.6142C38.5366 47.2825 38.8197 47.9486 39.093 48.6119C40.416 48.3075 41.4841 47.999 42.0813 47.813Z" fill="#FFE761"/>
<path d="M53.8961 66.0022C53.3199 67.0107 52.7377 68.0117 52.1681 69.0251L54.4459 69.7113L53.8961 66.0022Z" fill="#FFE761"/>
<path d="M81.6583 11.0589C82.7628 10.0236 83.8595 8.97728 84.98 7.96133C84.902 7.91604 84.8361 7.84845 84.7887 7.76535C84.7414 7.68225 84.7144 7.58659 84.7105 7.48801C84.5553 4.97446 84.2589 2.47446 83.8231 0.00297797L83.5607 -0.0557466C82.7793 0.66446 82.0147 1.40131 81.2321 2.12694C81.2388 2.16382 81.2706 2.18211 81.2705 2.22567C81.3172 5.17329 81.4814 8.11565 81.6583 11.0589Z" fill="#FFE761"/>
<path d="M88.0081 5.223C88.2683 4.98769 88.5326 4.75655 88.7946 4.52467L88.369 1.00979L87.2378 0.759057C87.3986 2.09324 87.5602 3.42766 87.7227 4.76233C87.7341 4.85916 87.7659 4.95152 87.8156 5.03167C87.8653 5.11182 87.9313 5.17743 88.0081 5.223Z" fill="#1A1A1A"/>
<path d="M84.9748 7.96008C85.2461 7.71069 85.509 7.45297 85.7796 7.20629C85.6264 4.87489 85.3555 2.55516 84.9684 0.258279C84.5846 0.177522 84.2016 0.0824889 83.8179 0.0017323C84.2537 2.47322 84.5501 4.97322 84.7052 7.48677C84.7092 7.58534 84.7362 7.681 84.7835 7.7641C84.8308 7.8472 84.8968 7.9148 84.9748 7.96008Z" fill="#1A1A1A"/>
<path d="M75.2131 43.4431L75.2198 43.48C75.2589 43.9579 75.3374 44.4307 75.4541 44.8924C75.7586 44.5252 76.0763 44.1678 76.385 43.8048C76.3679 43.6922 76.3548 43.5953 76.3486 43.5673L76.2127 42.7392L76.0961 42.0361C76.0401 41.7288 75.9894 41.3998 75.9384 41.0824C75.5913 40.9778 75.2531 40.8469 74.9054 40.745C74.8401 40.8609 74.8136 40.9991 74.8306 41.1349C74.9554 41.9045 75.0829 42.6739 75.2131 43.4431Z" fill="#1A1A1A"/>
<path d="M38.163 64.8286C40.4766 58.0928 43.1336 51.423 46.6423 45.7078C47.0318 45.073 46.5157 44.1413 45.8566 44.1746C42.4358 44.3469 38.9955 44.3737 35.5754 44.1975C33.4774 44.0896 31.2455 44.0225 29.2179 43.3605C28.5296 43.1381 28.2011 43.0533 28.0601 42.8974C27.8791 42.7033 28.0103 42.403 28.1521 41.551C28.6595 38.5433 31.0308 35.1748 32.4006 32.6019C34.5394 28.585 36.7899 24.6309 39.0709 20.7325C43.9143 12.4396 48.9161 4.24105 54.1402 -3.74215C55.5339 -5.87489 57.0681 -9.19998 59.0085 -10.7666C59.3222 -10.9811 59.6648 -11.1366 60.023 -11.2271C61.7124 -11.8091 63.9365 -11.2883 65.6013 -11.0758C73.1401 -10.1115 80.6368 -8.43057 88.0576 -6.6593C83.3219 -2.49431 78.6785 1.79635 74.1274 6.2127C67.4891 12.6327 59.6785 19.5033 55.1361 28.0933C55.0582 28.2488 55.0177 28.4244 55.0186 28.6028C55.0195 28.7813 55.0617 28.9563 55.141 29.1108C55.2204 29.2653 55.3342 29.3938 55.4712 29.4838C55.6083 29.5737 55.7638 29.622 55.9224 29.6238C59.5348 29.8221 63.1292 30.3205 66.6761 31.1149C69.2233 31.6869 71.7362 32.4374 74.2001 33.3619C73.7496 33.8737 73.314 34.3987 72.87 34.9154C64.2564 45.0036 56.9411 56.5881 50.2773 68.474L52.0942 69.0229C52.6646 68.0099 53.2475 67.0093 53.8245 66.0012L53.7131 65.2354C53.694 65.1103 53.7091 64.9816 53.7563 64.8664C53.8035 64.7511 53.8807 64.6546 53.9776 64.5895C54.0745 64.5245 54.1867 64.4939 54.2993 64.5019C54.412 64.5099 54.5198 64.5561 54.6087 64.6343C55.387 63.2919 56.1821 61.9661 56.9796 60.6411L56.8783 59.887C56.8581 59.7595 56.8736 59.628 56.9227 59.5108C56.9718 59.3935 57.052 59.2963 57.1524 59.2326C57.2527 59.1688 57.3681 59.1417 57.4828 59.1548C57.5974 59.168 57.7056 59.2208 57.7923 59.3061C58.7107 57.7997 59.6427 56.308 60.5885 54.8312C60.5557 54.2983 60.5213 53.765 60.4853 53.2311C60.4331 52.4338 61.5335 52.4351 61.5853 53.2235C61.5807 53.2425 61.5762 53.2614 61.5903 53.2889C62.4484 51.9696 63.3186 50.6646 64.2009 49.3739C64.1565 48.9218 64.0965 48.4707 64.0576 48.0174C63.989 47.2238 65.0918 47.2258 65.1575 48.0098C65.9434 46.8846 66.7191 45.7476 67.5306 44.6447L67.3711 43.6261C67.2527 42.8466 68.3129 42.519 68.4331 43.302C68.4389 43.3531 68.4478 43.4023 68.4561 43.4542C69.2102 42.4618 69.9684 41.4774 70.7307 40.501C70.6631 40.222 70.607 39.9378 70.5436 39.6629C70.5362 39.6287 70.5559 39.6114 70.563 39.5816C69.6735 39.1415 70.1391 37.4431 71.2027 37.7063C71.6911 37.8248 72.173 37.9704 72.674 38.1014C73.2818 37.364 73.9074 36.6495 74.5289 35.9308C75.1935 35.1612 75.8313 34.3631 76.5094 33.6238C77.0293 33.0487 76.7344 32.1752 76.1083 31.9192C73.1135 30.719 70.0409 29.78 66.9177 29.1106L66.8334 29.0851C66.4315 29.5448 65.9959 29.9942 65.6012 30.456C64.8993 31.2841 63.8341 30.2824 64.123 29.3877C64.0892 29.3775 64.0483 29.3651 64.0232 29.3401L63.9304 29.2424C63.8526 29.1474 63.805 29.0261 63.7951 28.8974C63.7851 28.7688 63.8135 28.6401 63.8756 28.5314C62.9647 28.3753 62.0547 28.1934 61.142 28.0775C61.1589 28.1581 61.1618 28.2432 61.1811 28.3246C61.3523 29.0997 60.2903 29.4239 60.1209 28.6522C60.0694 28.4245 60.0525 28.1928 60.0106 27.9681C59.178 27.8734 58.3492 27.8061 57.5191 27.7441C58.1798 26.6092 58.8921 25.5034 59.656 24.4268C59.6541 24.2403 59.6286 24.0554 59.6297 23.8669C59.632 23.7645 59.6575 23.6645 59.7038 23.5763C59.7501 23.4882 59.8157 23.4148 59.8943 23.3631C59.9729 23.3115 60.062 23.2833 60.153 23.2813C60.2441 23.2792 60.3341 23.3034 60.4144 23.3515C61.3452 22.1102 62.3234 20.9008 63.3492 19.7232C63.3295 19.4703 63.313 19.2154 63.2958 18.9633C63.2466 18.2831 64.0084 18.2198 64.2769 18.6961C65.4675 17.3765 66.6891 16.0895 67.9416 14.8351C67.9558 14.3978 67.9457 13.9647 67.9653 13.5261C68.0026 12.7326 69.1032 12.7223 69.0652 13.5185C69.0641 13.5879 69.0648 13.6607 69.0606 13.7321C69.9898 12.8216 70.9169 11.927 71.8419 11.0482C71.8416 10.6065 71.8242 10.1712 71.8294 9.72828C71.8365 8.93146 72.9364 8.92384 72.9293 9.72067C72.9272 9.81591 72.9323 9.91333 72.932 10.012C73.9387 9.04361 74.9573 8.09043 75.9431 7.14476C75.9308 6.92605 75.9058 6.70641 75.8966 6.48572C75.8609 5.79218 76.6516 5.73765 76.8942 6.24673C77.9876 5.19701 79.1 4.16468 80.2035 3.12673C80.2008 2.83539 80.1719 2.55646 80.1655 2.26981C80.155 1.51416 81.1105 1.49485 81.2246 2.1627C82.003 1.43619 82.7682 0.699883 83.5549 -0.0183035L83.0934 -0.119943C81.9502 -0.36363 82.429 -2.32246 83.5626 -2.08168C84.1773 -1.95116 84.7875 -1.80167 85.4022 -1.67116C86.4996 -2.65864 87.596 -3.6416 88.6912 -4.62005C89.3861 -5.23524 90.0704 -5.87104 90.7695 -6.48206C90.9217 -6.59463 91.0286 -6.76977 91.0672 -6.96991C91.1059 -7.17005 91.0733 -7.37925 90.9764 -7.55263C90.9728 -7.57787 90.9675 -7.60277 90.9606 -7.62712C90.9151 -7.77061 90.8365 -7.89793 90.7329 -7.9961C90.6292 -8.09427 90.5043 -8.15977 90.3708 -8.18592C82.6403 -10.045 74.8432 -11.7876 67.0014 -12.9219C65.5495 -13.1281 63.5507 -13.6187 61.6985 -13.6524C60.4416 -13.669 59.2474 -13.4836 58.336 -12.8379C56.6496 -11.642 55.2943 -8.8381 54.1204 -7.09509C48.2283 1.7148 42.6811 10.8439 37.3083 20.075C34.6897 24.5426 32.1285 29.0507 29.7476 33.6801C28.5336 36.0444 26.3731 39.2878 26.1222 42.1086C26.0129 43.322 26.5896 44.2167 27.5918 44.8769C28.5941 45.537 29.9218 45.9382 31.5059 46.2075C31.8354 45.5749 32.142 45.0168 32.3373 44.6109C32.8917 43.4594 34.4486 44.4905 33.8996 45.6408C33.8696 45.7014 33.8414 45.7655 33.8114 45.8262C33.8219 45.8468 33.8451 45.8364 33.85 45.8698L34.0755 46.5045C35.0356 46.5737 36.0144 46.608 36.9925 46.6129C36.9825 46.5896 36.9733 46.5635 36.9609 46.5395C36.6368 45.8314 37.5883 45.2124 37.9149 45.9212C38.0185 46.1472 38.1044 46.3823 38.2073 46.611C39.34 46.5958 40.4381 46.5528 41.4462 46.4971L41.3076 46.1908C40.9864 45.4808 41.938 44.8618 42.2591 45.5718L42.6464 46.4268C43.2317 46.3886 43.757 46.3527 44.2218 46.3217C43.9261 46.8773 43.6107 47.4183 43.3396 47.9901L43.8487 49.1027C44.1698 49.8127 43.2182 50.4317 42.8971 49.7216L42.7293 49.3427C42.3247 50.246 41.9218 51.1528 41.5342 52.0496C41.3967 52.3654 41.2736 52.6856 41.1391 52.9994C41.6631 53.5529 41.4862 54.7894 40.572 54.766L40.4111 54.758C39.0883 57.9233 37.8194 61.1222 36.6256 64.3641L38.163 64.8286Z" fill="#1A1A1A"/>
<path d="M80.6564 13.3512C80.6254 12.9178 80.6309 12.4721 80.6003 12.0476C79.5995 12.995 78.5993 13.9397 77.5952 14.9007C77.6424 15.4726 77.6659 16.046 77.7161 16.6159C77.7911 17.385 76.8501 17.3658 76.6421 16.7862C76.5693 16.5929 76.4996 16.3976 76.4293 16.205C76.4124 16.1564 76.448 16.1265 76.4336 16.0785C75.3498 17.1501 74.2763 18.2325 73.2132 19.3257C73.2279 19.5567 73.2323 19.7875 73.2494 20.0192C73.2944 20.6979 72.5325 20.7617 72.2643 20.283C71.1987 21.3939 70.1761 22.541 69.1301 23.6782C69.155 24.2346 69.1515 24.7913 69.1861 25.3506C69.2342 26.1464 68.1331 26.1487 68.0862 25.3591C68.0765 25.1935 68.0779 25.0255 68.0682 24.8599C67.089 25.9445 66.093 27.0125 65.1412 28.1229C65.1627 28.5483 65.0559 28.9695 64.8382 29.3183C64.749 29.416 64.6313 29.4742 64.507 29.4821C64.3826 29.49 64.2599 29.4471 64.1614 29.3613C63.8829 30.2591 64.9393 31.257 65.6406 30.4285C66.0349 29.9663 66.4702 29.5166 66.8717 29.0566C71.5022 23.7189 76.4165 18.6758 81.505 13.845C81.4226 13.8987 81.3295 13.9282 81.2343 13.9308C81.1391 13.9334 81.0448 13.909 80.9602 13.8597C80.8756 13.8105 80.8035 13.7381 80.7504 13.6492C80.6973 13.5603 80.665 13.4578 80.6564 13.3512Z" fill="#1A1A1A"/>
<path d="M94.1914 0.254314C91.259 -0.449023 88.3351 -1.08006 85.401 -1.71129C84.7861 -1.84133 84.1758 -1.99034 83.5609 -2.12039C82.4271 -2.36028 81.9499 -0.401186 83.0933 -0.158385L83.5549 -0.0571032L83.8173 0.00162031C84.2011 0.0823768 84.584 0.17741 84.9678 0.258167C85.7244 0.422195 86.4777 0.599776 87.2361 0.76724L88.3673 1.01797C89.5346 1.2796 90.7046 1.53039 91.87 1.80015C90.8416 2.70442 89.8159 3.61532 88.7929 4.53285C88.531 4.76472 88.2666 4.99587 88.0064 5.23118C87.2647 5.89361 86.5198 6.52603 85.779 7.20617C85.5084 7.45286 85.2455 7.71057 84.9742 7.95997C83.8585 8.97737 82.7618 10.0237 81.6526 11.0576C81.6987 11.8179 81.6975 12.5815 81.7516 13.3413C81.7555 13.4064 81.7477 13.4718 81.7286 13.5334C81.7095 13.595 81.6794 13.6517 81.6403 13.6999C82.495 12.8885 83.3568 12.0909 84.2211 11.2824C87.647 8.10874 91.1039 4.99668 94.5917 1.94622C94.9928 1.59652 94.9165 0.908417 94.5961 0.518531C94.489 0.385171 94.3475 0.292786 94.1914 0.254314Z" fill="#1A1A1A"/>
<path d="M72.7093 38.0823C72.2227 37.956 71.7286 37.8072 71.2377 37.6883C70.1738 37.4259 69.7096 39.1246 70.5995 39.5641C70.507 38.8682 71.4645 38.5902 71.6521 39.3206C71.703 39.5189 71.7345 39.723 71.7854 39.9213C72.8231 40.1846 73.8627 40.4513 74.8963 40.7539C75.2434 40.8585 75.5829 40.984 75.9293 41.0913C76.1366 41.1537 76.3387 41.2379 76.5471 41.3064C77.0605 41.4611 77.5631 41.6503 78.067 41.834C77.4938 42.4833 76.9372 43.1492 76.3759 43.8137C76.0672 44.1767 75.7495 44.5341 75.445 44.9013C74.6978 45.8032 73.9663 46.7156 73.2425 47.639C73.2657 47.8232 73.3054 48.0036 73.3263 48.187C73.4108 48.8515 72.6775 49.1534 72.3937 48.7397C71.5369 49.8525 70.6669 50.9556 69.8345 52.096L70.0292 53.4472C70.1507 54.2273 69.0901 54.5585 68.9692 53.7756C68.9481 53.6472 68.9301 53.5169 68.909 53.3886C68.0486 54.5816 67.1841 55.8025 66.3448 57.0368C66.396 57.3426 66.4326 57.6441 66.4885 57.9514C66.6178 58.6991 65.658 59.0082 65.464 58.337C64.3907 59.95 63.3339 61.5767 62.2937 63.217L62.3922 64.7222C62.4412 65.4922 61.4314 65.5017 61.3174 64.7877C60.6004 65.9426 59.8959 67.11 59.1939 68.2781L59.4269 69.9778C59.535 70.7597 58.4744 71.0908 58.3669 70.3062C58.3406 70.124 58.316 69.9452 58.2921 69.7637C58.1065 70.0767 57.9256 70.391 57.7417 70.7074L59.5688 71.2578C65.7255 60.8062 72.4788 50.7782 80.359 42.0598C80.8809 41.4851 80.5828 40.611 79.9589 40.3563C79.193 40.0471 78.4066 39.8131 77.6273 39.5493C76.0065 38.9933 74.3672 38.5043 72.7093 38.0823Z" fill="#1A1A1A"/>
<path d="M40.6165 54.7582C41.5284 54.7802 41.7067 53.5443 41.1823 52.9913L41.1219 52.9412C40.975 52.8061 40.7919 52.7305 40.6021 52.7265L40.5877 52.7222L40.622 52.8167C40.8613 53.5685 39.7978 53.89 39.5596 53.1444C39.5146 52.9972 39.455 52.8573 39.4045 52.7114C38.2896 52.7066 37.1278 52.6819 35.9667 52.5674C35.9054 52.6328 35.8321 52.6823 35.7518 52.7121C35.6716 52.742 35.5865 52.7516 35.5026 52.7402C35.4187 52.7288 35.338 52.6967 35.2664 52.6462C35.1948 52.5957 35.1341 52.528 35.0884 52.448C34.1702 52.3328 33.2715 52.0699 32.4198 51.6673C31.4588 51.1687 31.7679 50.7825 32.1321 49.7421C32.1762 49.6218 32.2318 49.5078 32.276 49.3875C32.5521 48.6516 32.8577 47.9333 33.1866 47.225L32.8219 46.1973C32.5663 45.4813 33.5502 45.1793 33.8449 45.8287C33.8749 45.768 33.9031 45.7039 33.933 45.6432C34.4859 44.494 32.9282 43.4642 32.3698 44.6146C32.1749 45.0206 31.8808 45.5826 31.5396 46.2118C31.0517 47.1255 30.6324 48.0835 30.2862 49.0756C29.8381 50.4248 29.6761 51.7441 30.3659 52.6112C31.1935 53.6476 32.7842 53.9758 33.9255 54.1948C36.0766 54.6104 38.269 54.69 40.4466 54.7448L40.6165 54.7582Z" fill="#1A1A1A"/>
<path d="M80.6576 13.3512C80.6673 13.4564 80.7001 13.5571 80.7531 13.6445C80.806 13.7318 80.8775 13.8029 80.9611 13.8514C81.0446 13.8999 81.1375 13.9243 81.2315 13.9223C81.3255 13.9203 81.4176 13.8921 81.4995 13.8401C81.5575 13.8076 81.6078 13.76 81.6462 13.7014C81.6854 13.6532 81.7154 13.5965 81.7346 13.5349C81.7537 13.4733 81.7615 13.4079 81.7575 13.3428C81.7035 12.583 81.7047 11.8194 81.6585 11.0591C81.4849 8.10223 81.3174 5.17342 81.2701 2.22851C81.2798 2.18786 81.2383 2.16666 81.2316 2.12978C81.1145 1.46132 80.1591 1.48136 80.1726 2.23769C80.1779 2.52975 80.207 2.80863 80.2112 3.09454C80.2706 6.08278 80.4013 9.06829 80.6032 12.0511C80.63 12.4803 80.6265 12.9178 80.6576 13.3512Z" fill="#1A1A1A"/>
<path d="M76.4369 16.0791C76.4441 16.1248 76.4181 16.1577 76.4326 16.2056C76.5029 16.3982 76.5726 16.5934 76.6454 16.7867C76.8583 17.3678 77.7944 17.3855 77.7193 16.6165C77.6692 16.0466 77.6457 15.4731 77.5985 14.9013C77.3652 12.0862 77.1483 9.26741 76.9999 6.44308C76.9936 6.33952 76.9339 6.28667 76.8975 6.2118C76.6545 5.70292 75.8637 5.75806 75.9 6.45154C75.9094 6.67221 75.9345 6.89182 75.947 7.11051C76.1017 9.96286 76.309 12.8108 76.551 15.6546C76.4998 15.7073 76.4622 15.7746 76.4422 15.8492C76.4221 15.9239 76.4203 16.0033 76.4369 16.0791Z" fill="#1A1A1A"/>
<path d="M72.2677 20.2837C72.5359 20.7624 73.2977 20.6986 73.2528 20.0199C73.2357 19.7882 73.2313 19.5574 73.2166 19.3264C73.0194 16.2154 72.9302 13.0991 72.9491 9.97756C72.9494 9.87888 72.9442 9.78147 72.9462 9.68623C72.9527 8.88944 71.8431 8.89499 71.8462 9.69469C71.8421 10.1349 71.8598 10.5701 71.8598 11.0145C71.8608 14.0239 71.946 17.0267 72.1504 20.0276C72.1596 20.1408 72.2239 20.2182 72.2677 20.2837Z" fill="#1A1A1A"/>
<path d="M68.0788 25.3596C68.1257 26.1492 69.2268 26.1469 69.1788 25.3511C69.1442 24.7917 69.1477 24.2351 69.1227 23.6787C68.9697 20.3534 68.9401 17.0304 69.0795 13.7031C69.0956 13.6354 69.0828 13.5589 69.0839 13.4895C69.1212 12.6933 68.0206 12.7045 67.9839 13.498C67.9653 13.9339 67.9757 14.3669 67.9613 14.8069C67.8518 18.1606 67.8749 21.5107 68.0608 24.8604C68.0711 25.0232 68.0698 25.1913 68.0788 25.3596Z" fill="#1A1A1A"/>
<path d="M64.8311 29.3189C65.0489 28.9701 65.1556 28.549 65.1341 28.1235C65.1567 27.259 64.9435 26.2566 64.8949 25.5826L64.414 18.9287C64.4054 18.8129 64.3404 18.7497 64.295 18.6692C64.0261 18.1932 63.2643 18.2571 63.314 18.9372C63.3315 19.1893 63.3482 19.4442 63.368 19.697L63.6851 24.1115L63.8438 26.329C63.867 26.6439 63.9666 27.8734 64.0225 28.2679L63.9608 28.3422C63.9244 28.3865 63.9343 28.4533 63.9015 28.5044C63.8395 28.6131 63.8112 28.7418 63.8213 28.8705C63.8313 28.9991 63.879 29.1204 63.9568 29.2153L64.0498 29.313C64.0742 29.3407 64.1197 29.3341 64.1496 29.3605C64.2482 29.4479 64.3719 29.492 64.4973 29.4843C64.6228 29.4767 64.7415 29.4179 64.8311 29.3189Z" fill="#1A1A1A"/>
<path d="M60.4416 23.3259C60.3611 23.2779 60.2711 23.2538 60.1801 23.2559C60.089 23.258 60 23.2863 59.9214 23.338C59.8428 23.3897 59.7773 23.4631 59.731 23.5513C59.6848 23.6395 59.6594 23.7396 59.6572 23.8419C59.6562 24.0304 59.6819 24.2153 59.6839 24.4018C59.7026 25.5933 59.8247 26.78 60.0486 27.9448C60.0906 28.1695 60.1078 28.4012 60.1594 28.6288C60.3295 29.4003 61.3912 29.0754 61.2194 28.3004C61.2 28.219 61.1971 28.1339 61.1801 28.0533C60.8887 26.6709 60.7493 25.2535 60.7651 23.8329C60.7682 23.7202 60.7382 23.6095 60.6797 23.5178C60.6212 23.4262 60.5375 23.3587 60.4416 23.3259Z" fill="#1A1A1A"/>
<path d="M72.2674 48.501C72.2815 48.6156 72.3462 48.6584 72.3942 48.728C72.6799 49.1336 73.4016 48.8369 73.3268 48.1753C73.3059 47.9919 73.2662 47.8115 73.243 47.6273C73.2048 47.3428 73.1521 47.0655 73.1109 46.783C72.7838 44.4663 72.3422 42.1719 71.7883 39.9104C71.7374 39.712 71.7059 39.508 71.655 39.3096C71.4674 38.5793 70.5123 38.8579 70.6024 39.5531C70.5953 39.5829 70.5901 39.6046 70.583 39.6344C70.6539 39.9114 70.7078 40.1948 70.7708 40.4723C71.3935 43.0108 71.8744 45.5905 72.2109 48.1964C72.2323 48.3016 72.255 48.4014 72.2674 48.501Z" fill="#1A1A1A"/>
<path d="M68.9814 53.7673C69.1023 54.5501 70.1653 54.2198 70.0414 53.4389L69.8467 52.0877L69.8329 52.0051L68.5174 43.4326C68.5091 43.3808 68.5002 43.3316 68.4943 43.2804C68.3734 42.4976 67.3111 42.8252 67.4326 43.6054L67.592 44.6381C68.0387 47.5552 68.485 50.4702 68.9309 53.3832C68.9412 53.5025 68.9604 53.6389 68.9814 53.7673Z" fill="#1A1A1A"/>
<path d="M65.4647 58.334C65.6586 59.0053 66.6184 58.6961 66.4892 57.9485C66.4332 57.6412 66.3966 57.3397 66.3455 57.0338C65.8497 54.041 65.4498 51.0363 65.2003 48.0073C65.1291 47.2219 64.0335 47.223 64.1003 48.0157C64.1396 48.469 64.2006 48.9173 64.2447 49.3721C64.5316 52.363 64.9115 55.3326 65.4249 58.2843C65.4427 58.3071 65.4698 58.3123 65.4647 58.334Z" fill="#1A1A1A"/>
<path d="M61.3278 64.7877C61.4394 65.501 62.4516 65.4922 62.4026 64.7223L62.304 63.2171L61.6488 53.2838C61.654 53.2621 61.6585 53.2432 61.6437 53.2184C61.5914 52.43 60.4909 52.4296 60.5438 53.2268C60.5786 53.7601 60.6134 54.2934 60.6482 54.8267L61.3026 64.7308C61.3047 64.7546 61.3233 64.7631 61.3278 64.7877Z" fill="#1A1A1A"/>
<path d="M58.3789 70.307C58.4864 71.0916 59.547 70.7605 59.4388 69.9786L59.2159 68.2907C58.8135 65.3831 58.4125 62.4768 58.0129 59.572C57.9924 59.4693 57.9399 59.3783 57.8648 59.3153C57.778 59.2302 57.6698 59.1774 57.5551 59.1643C57.4405 59.1512 57.3251 59.1785 57.2248 59.2423C57.1245 59.3062 57.0443 59.4034 56.9953 59.5207C56.9463 59.6379 56.9309 59.7694 56.9512 59.8969L57.0531 60.6509L58.3054 69.7591C58.328 69.946 58.3526 70.1248 58.3789 70.307Z" fill="#1A1A1A"/>
<path d="M55.6071 70.0612L54.8549 64.9144C54.8322 64.8028 54.7737 64.7046 54.6907 64.6384C54.6018 64.5602 54.4939 64.5141 54.3813 64.5062C54.2686 64.4983 54.1565 64.5289 54.0596 64.5941C53.9627 64.6592 53.8856 64.7557 53.8385 64.871C53.7914 64.9864 53.7764 65.115 53.7956 65.2401L53.9076 66.0058L54.4574 69.7149L55.6071 70.0612Z" fill="#1A1A1A"/>
<path d="M32.827 46.2012L33.1917 47.229L33.9668 49.3968L35.024 52.3643C35.0391 52.4095 35.0789 52.4156 35.0984 52.4534C35.144 52.5334 35.2048 52.6011 35.2764 52.6516C35.348 52.7021 35.4286 52.7342 35.5125 52.7456C35.5964 52.757 35.6816 52.7474 35.7618 52.7176C35.842 52.6877 35.9154 52.6383 35.9767 52.5728C36.0444 52.5095 36.0916 52.4227 36.1109 52.3261C36.1301 52.2295 36.1205 52.1284 36.0833 52.0386C35.76 51.126 35.4357 50.214 35.1104 49.3028L34.1195 46.5122L33.8935 45.8777C33.898 45.8588 33.8654 45.8547 33.8548 45.8341C33.5553 45.1833 32.5713 45.4852 32.827 46.2012Z" fill="#1A1A1A"/>
<path d="M39.4189 52.7183C39.4646 52.8627 39.5242 53.0027 39.574 53.1513C39.8123 53.8969 40.8758 53.5754 40.6364 52.8237L40.6021 52.7291C40.1593 51.3351 39.6477 49.9698 39.1068 48.6189C38.8334 47.9557 38.5504 47.2895 38.2602 46.6212C38.157 46.3926 38.071 46.1576 37.9672 45.9317C37.6401 45.2232 36.6974 45.8396 37.0137 46.5507C37.026 46.5747 37.0353 46.6007 37.0453 46.6241C37.3865 47.3601 37.6883 48.1103 37.9948 48.862C38.4887 50.1174 38.9803 51.404 39.4189 52.7183Z" fill="#1A1A1A"/>
<path d="M42.3824 48.4788L42.7704 49.3334L42.9384 49.7122C43.2601 50.422 44.2082 49.8043 43.8896 49.0925L43.3796 47.9804L42.6735 46.4229L42.2856 45.5683C41.9639 44.8585 41.0158 45.4762 41.3344 46.188L41.4733 46.4941L42.0692 47.8093L42.3824 48.4788Z" fill="#1A1A1A"/>
<path d="M43.5595 19.335C40.1031 24.8041 36.9767 30.5276 34.2012 36.4669C33.6669 37.6246 35.2289 38.6586 35.7638 37.4982C38.5393 31.5589 41.6657 25.8354 45.1221 20.3663C45.7906 19.2955 44.2272 18.2785 43.5595 19.335Z" fill="#1A1A1A"/>
<path d="M48.0159 15.1851L47.7965 15.119C46.6733 14.7806 46.2057 16.7426 47.3289 17.081L47.5483 17.1471C48.6704 17.4793 49.1391 15.5235 48.0159 15.1851Z" fill="#1A1A1A"/>
<path d="M46.0503 88.7395C46.8762 87.507 47.7091 86.2563 48.5489 84.9873C48.5181 84.8561 48.4823 84.703 48.4706 84.6326C48.3597 83.9167 48.2457 83.2027 48.1321 82.4975L47.4016 77.758C46.5298 79.3891 45.6606 81.0094 44.7989 82.6523C44.7478 82.7472 44.6992 82.8429 44.6481 82.9379C44.6794 82.9909 44.7307 83.0035 44.7485 83.0698C45.2538 84.9386 45.6751 86.8344 46.0503 88.7395Z" fill="#FFE761"/>
<path d="M48.4133 77.1566L49.4298 83.6552C50.1632 82.5439 50.8992 81.4248 51.638 80.2977C51.4997 79.6316 51.3103 78.9413 51.2692 78.6908C51.1377 77.9308 51.0112 77.1608 50.8765 76.4144L50.2189 72.5508C49.4522 73.9464 48.6863 75.3393 47.9299 76.735C47.9864 76.7261 48.0439 76.73 48.099 76.7465C48.1541 76.763 48.2057 76.7917 48.2508 76.831C48.2959 76.8703 48.3335 76.9194 48.3614 76.9753C48.3893 77.0312 48.4069 77.0929 48.4133 77.1566Z" fill="#FFE761"/>
<path d="M27.4424 107.555C26.9957 110.264 26.8187 112.221 27.0373 113.027C27.1756 113.531 27.7066 113.319 28.5417 112.568C28.5187 112.524 28.4744 112.493 28.4582 112.442C27.9638 110.859 27.6232 109.22 27.4424 107.555Z" fill="#FFE761"/>
<path d="M36.0526 103.236C35.904 102.451 35.7311 101.669 35.5964 100.88C34.961 102.201 34.3173 103.515 33.6933 104.843C33.7839 105.265 33.8556 105.691 33.9461 106.113C34.6101 105.224 35.3202 104.25 36.0526 103.236Z" fill="#FFE761"/>
<path d="M41.6548 95.2399C41.3089 93.6777 40.9947 92.1056 40.7121 90.5236C40.119 91.6897 39.539 92.8656 38.9525 94.0366L39.8467 97.8728C40.4345 97.0178 41.0372 96.1402 41.6548 95.2399Z" fill="#FFE761"/>
<path d="M45.1694 90.0513C44.8156 88.1323 44.404 86.2279 43.9122 84.3457C43.115 85.8696 42.3206 87.3962 41.529 88.9256C41.8131 90.6242 42.1352 92.3148 42.4954 93.9976C43.3725 92.7166 44.2639 91.4012 45.1694 90.0513Z" fill="#FFE761"/>
<path d="M38.9861 99.0978L38.1736 95.5913C37.5769 96.7941 36.9844 98.001 36.3961 99.2122C36.5504 100.147 36.7678 101.067 36.9381 101.989C37.5999 101.07 38.2826 100.106 38.9861 99.0978Z" fill="#FFE761"/>
<path d="M56.1053 73.4529C56.3246 73.1182 56.5384 72.7847 56.7553 72.4492C57.089 71.8729 57.4161 71.2918 57.7521 70.7163L55.6045 70.0693C55.775 71.1896 55.9419 72.3174 56.1053 73.4529Z" fill="#FFE761"/>
<path d="M36.0465 71.4763C33.8614 79.6477 31.5487 88.6143 29.7971 96.1699C29.492 98.6008 29.3273 101.051 29.3042 103.506C29.2637 105.45 29.3699 107.394 29.6216 109.318C34.0041 99.6011 38.7689 90.0575 43.7267 80.6911C45.8795 76.6227 48.0797 72.5396 50.3473 68.4883L38.2305 64.8381C37.4747 67.0444 36.7521 69.2636 36.0465 71.4763Z" fill="#FFE761"/>
<path d="M52.5018 78.9836C53.405 77.6002 54.3064 76.2171 55.206 74.8345C54.9552 73.1266 54.7017 71.4188 54.4455 69.7113L52.1677 69.0251C51.7989 69.6837 51.4343 70.3464 51.0653 71.0166L52.2571 77.9834C52.3093 78.2518 52.4004 78.5958 52.5018 78.9836Z" fill="#FFE761"/>
<path d="M31.7939 104.855C31.8216 104.607 31.9241 104.378 32.0843 104.205C32.2444 104.032 32.4525 103.927 32.6737 103.906C32.9519 103.638 33.4411 103.634 33.5556 104.151C33.6042 104.381 33.6419 104.613 33.6929 104.843C34.3169 103.515 34.9606 102.201 35.596 100.879C35.4887 100.246 35.3321 99.6236 35.2302 98.9888C35.1033 98.2099 36.1639 97.8788 36.2895 98.6631C36.3207 98.8468 36.3658 99.0259 36.3963 99.2123C36.9846 98.0012 37.5771 96.7942 38.1738 95.5914L37.8077 94.0056C37.6304 93.2319 38.6897 92.9062 38.8677 93.6773L38.9518 94.0395C39.5383 92.8685 40.1183 91.6926 40.7114 90.5265C40.6075 89.9434 40.4715 89.3651 40.3858 88.7816C40.2564 88.002 41.3164 87.6736 41.4451 88.4559C41.4724 88.6123 41.5083 88.7654 41.5343 88.9272C42.3199 87.394 43.1143 85.8674 43.9175 84.3473C43.835 84.032 43.7695 83.7218 43.6822 83.4051C43.4917 82.7087 44.3325 82.4217 44.6442 82.9455C44.6953 82.8505 44.7439 82.7548 44.795 82.6598C45.6535 81.0305 46.524 79.4048 47.3978 77.7656L47.3547 77.4912C47.341 77.3981 47.3459 77.3027 47.3692 77.212C47.3925 77.1214 47.4334 77.0377 47.4891 76.967C47.5448 76.8964 47.6138 76.8407 47.6911 76.8039C47.7684 76.7671 47.852 76.7501 47.9359 76.7543C48.6874 75.3571 49.4534 73.9642 50.2248 72.5701L49.9748 71.1151C49.84 70.3367 50.9006 70.0056 51.0341 70.7894C51.0469 70.8659 51.0597 70.9423 51.0748 71.0195C51.4419 70.3575 51.8065 69.6947 52.1772 69.028L50.3598 68.4805C48.1019 72.5347 45.8921 76.6149 43.7393 80.6833C38.7815 90.0497 34.0216 99.5832 29.6341 109.31C29.3825 107.387 29.2763 105.442 29.3168 103.499C29.3399 101.044 29.5045 98.593 29.8097 96.1621C30.5727 89.8713 32.1646 83.6793 34.0645 77.7455C34.718 75.6972 35.3827 73.5912 36.0591 71.4685C36.7621 69.2666 37.4847 67.0474 38.243 64.8303L36.6884 64.3619C34.9436 69.1138 33.3214 73.9259 31.8333 78.7608C29.3386 86.8652 26.2885 98.1133 27.4528 107.558C27.6336 109.223 27.9742 110.862 28.4686 112.445C28.4848 112.496 28.5292 112.527 28.5521 112.571C28.8742 113.214 29.7684 113.484 30.1198 112.692C30.5214 111.788 30.9407 110.906 31.3527 109.991C31.4488 108.222 31.6194 106.487 31.7939 104.855Z" fill="#1A1A1A"/>
<path d="M57.7549 70.7082C57.4195 71.281 57.0924 71.8622 56.7581 72.4411L56.123 73.5452C56.2397 74.32 56.3554 75.0955 56.4701 75.8717C56.5837 76.6524 55.5262 76.9815 55.4077 76.1994C55.3522 75.8254 55.2967 75.4514 55.2435 75.0781C54.376 76.6079 53.5194 78.1429 52.6735 79.6831C52.9075 80.6743 53.0737 81.7438 52.6768 82.3359C52.633 82.4162 52.5737 82.4845 52.5033 82.5356C52.4328 82.5867 52.353 82.6194 52.2699 82.6312C52.1867 82.6429 52.1022 82.6335 52.0227 82.6036C51.9432 82.5736 51.8707 82.524 51.8106 82.4583L51.7072 82.3284C51.6072 82.2112 51.5516 82.0549 51.5522 81.8925C51.5528 81.7301 51.6096 81.5743 51.7105 81.4581L51.7529 81.4214C51.7587 81.397 51.7632 81.3781 51.7697 81.351C51.0846 82.6065 50.4061 83.8602 49.734 85.1119C49.9757 86.1142 50.2292 87.2943 49.8623 87.9883C49.7856 88.1261 49.6649 88.2258 49.525 88.2668C49.385 88.3078 49.2364 88.287 49.1096 88.2088L48.9901 88.1467C48.8859 88.0788 48.8046 87.9742 48.7588 87.849C48.7129 87.7239 48.7051 87.5852 48.7365 87.4545L48.7624 87.3461C48.7863 87.2459 48.863 87.2167 48.9148 87.151C48.9303 86.9875 48.9244 86.8223 48.8973 86.6607C48.4406 87.4932 47.997 88.3355 47.5573 89.1615C47.2028 89.836 46.8549 90.5154 46.5003 91.1899C46.5539 91.4965 46.6122 91.8045 46.6681 92.1118C46.6902 92.2418 46.6743 92.3763 46.6229 92.4953C46.5715 92.6144 46.4873 92.7115 46.3828 92.7724C46.2783 92.8333 46.1591 92.8546 46.0429 92.8332C45.9268 92.8118 45.8199 92.7488 45.7382 92.6536C44.9193 94.2252 44.0986 95.7933 43.2905 97.3739C43.4073 97.8593 43.5071 98.3511 43.6318 98.836C43.8285 99.604 42.7675 99.9262 42.5694 99.1636L42.5144 98.9176C41.9543 100.021 41.3997 101.123 40.8487 102.232L41.408 104.655C41.5884 105.426 40.5266 105.751 40.3481 104.983L40.0689 103.781C39.3953 105.143 38.7398 106.517 38.0801 107.887C38.1943 108.427 38.2709 108.973 38.393 109.512C38.5678 110.285 37.5061 110.61 37.3312 109.837C37.3121 109.744 37.299 109.647 37.2774 109.553C36.6531 110.861 36.0288 112.169 35.419 113.481C35.4906 113.874 35.5823 114.259 35.6563 114.653C35.6832 114.792 35.666 114.936 35.6078 115.062C35.5497 115.188 35.4542 115.287 35.338 115.341C35.2218 115.396 35.0922 115.403 34.9717 115.362C34.8512 115.32 34.7475 115.233 34.6785 115.114C34.2542 116.02 33.8383 116.927 33.4309 117.834C32.9053 114.771 32.9942 111.461 33.2597 108.32C32.9985 107.042 32.7739 105.751 32.4933 104.479C32.4689 104.374 32.4731 104.263 32.5053 104.161C32.5375 104.059 32.5962 103.97 32.6738 103.906C32.4526 103.926 32.2445 104.032 32.0843 104.205C31.9242 104.378 31.8217 104.607 31.794 104.855C31.6195 106.487 31.4489 108.222 31.3455 109.988C31.123 113.697 31.2013 117.563 32.289 120.923C32.5314 121.673 33.5632 122.016 33.9378 121.17C38.4665 110.949 43.4476 100.953 48.6198 91.1313C52.1211 84.4833 55.7369 77.7885 59.5844 71.2594L57.7549 70.7082Z" fill="#1A1A1A"/>
<path d="M55.6071 70.0612L54.4453 69.7112C54.6998 71.4183 54.9533 73.126 55.2058 74.8344C55.2179 74.9136 55.2294 74.9954 55.244 75.0753C55.2971 75.4486 55.3526 75.8226 55.4082 76.1966C55.5266 76.9787 56.5914 76.6518 56.4706 75.8689C56.3497 75.086 56.2408 74.3184 56.1234 73.5424L56.1086 73.4421C55.943 72.3156 55.7759 71.1886 55.6071 70.0612Z" fill="#1A1A1A"/>
<path d="M52.2567 77.9834L51.0766 71.0114C51.0614 70.9342 51.0486 70.8577 51.0358 70.7813C50.9023 69.9975 49.8513 70.3315 49.9765 71.1069L50.2188 72.5509L50.8784 76.4064C51.0105 77.1636 51.1396 77.9228 51.2711 78.6827C51.3121 78.9332 51.5016 79.6235 51.6399 80.2896C51.7174 80.6303 51.7589 80.9802 51.7635 81.3318C51.757 81.3589 51.7525 81.3779 51.7467 81.4023L51.7044 81.4389C51.6035 81.5551 51.5467 81.7109 51.5461 81.8733C51.5454 82.0358 51.601 82.1921 51.7011 82.3093L51.8044 82.4392C51.8646 82.5049 51.9371 82.5545 52.0166 82.5844C52.0961 82.6143 52.1805 82.6238 52.2637 82.612C52.3469 82.6002 52.4267 82.5676 52.4971 82.5165C52.5676 82.4654 52.6269 82.3971 52.6706 82.3167C53.0699 81.7254 52.9039 80.6443 52.6674 79.6639C52.611 79.4233 52.5534 79.1881 52.495 78.9672C52.4001 78.5958 52.309 78.2518 52.2567 77.9834Z" fill="#1A1A1A"/>
<path d="M49.4301 83.6551L48.4136 77.1565C48.4062 77.0939 48.3879 77.0336 48.3597 76.9791C48.3315 76.9245 48.294 76.8767 48.2494 76.8384C48.2048 76.8002 48.1538 76.7722 48.0996 76.756C48.0453 76.7399 47.9887 76.736 47.9331 76.7445C47.8492 76.7404 47.7656 76.7573 47.6883 76.7941C47.611 76.8309 47.542 76.8867 47.4863 76.9573C47.4306 77.0279 47.3897 77.1116 47.3664 77.2023C47.3431 77.293 47.3382 77.3883 47.3519 77.4815L47.395 77.7558L48.1353 82.4867C48.2463 83.2027 48.3603 83.9167 48.4738 84.6218C48.4855 84.6921 48.5213 84.8452 48.552 84.9765C48.6567 85.4263 48.8187 86.0908 48.8994 86.6409C48.9265 86.8025 48.9324 86.9676 48.9169 87.1312C48.8651 87.1969 48.7932 87.2275 48.7645 87.3263L48.7386 87.4347C48.7072 87.5654 48.715 87.7041 48.7608 87.8292C48.8067 87.9544 48.888 88.059 48.9922 88.1269L49.1117 88.189C49.2385 88.2672 49.3871 88.2879 49.527 88.2469C49.667 88.2059 49.7877 88.1063 49.8644 87.9685C50.2319 87.2717 49.9778 86.0944 49.7361 85.0921C49.6324 84.66 49.5332 84.2526 49.4937 83.9415L49.4301 83.6551Z" fill="#1A1A1A"/>
<path d="M44.7416 83.0676C44.7238 83.0012 44.6726 82.9887 44.6413 82.9357C44.3295 82.4119 43.4887 82.6989 43.6792 83.3952C43.7665 83.712 43.8321 84.0222 43.9145 84.3375C44.4044 86.2278 44.8203 88.1248 45.1717 90.0431C45.3184 90.8367 45.484 91.6272 45.6082 92.4285C45.6235 92.5376 45.6889 92.5777 45.7375 92.6446C45.8192 92.7398 45.9261 92.8028 46.0423 92.8242C46.1584 92.8456 46.2776 92.8243 46.3821 92.7634C46.4866 92.7025 46.5708 92.6053 46.6223 92.4863C46.6737 92.3673 46.6895 92.2328 46.6675 92.1028C46.6212 91.7984 46.5556 91.4882 46.4997 91.1809C46.3643 90.3617 46.2131 89.5435 46.0522 88.7225C45.6755 86.8343 45.2542 84.9386 44.7416 83.0676Z" fill="#1A1A1A"/>
<path d="M41.5338 88.9268C41.5072 88.7678 41.4707 88.6173 41.4446 88.4556C41.3159 87.6732 40.2608 88.0031 40.3853 88.7813C40.4807 89.3676 40.607 89.943 40.7109 90.5262C40.9956 92.1068 41.3098 93.6789 41.6536 95.2425C41.9207 96.4848 42.1998 97.6987 42.5115 98.9166L42.5665 99.1626C42.7645 99.9252 43.8256 99.6029 43.6289 98.835C43.5042 98.3501 43.4044 97.8582 43.2876 97.3729C43.015 96.2509 42.74 95.1283 42.5003 93.9988C42.1417 92.3165 41.8195 90.6259 41.5338 88.9268Z" fill="#1A1A1A"/>
<path d="M38.9512 94.0393L38.8671 93.6771C38.6892 92.9061 37.6298 93.2317 37.8071 94.0055L38.1732 95.5912L38.9857 99.0978L40.0657 103.78L40.345 104.982C40.5235 105.751 41.5853 105.426 41.4049 104.654L40.8455 102.231L39.8407 97.8624L38.9512 94.0393Z" fill="#1A1A1A"/>
<path d="M36.3958 99.2122C36.3653 99.0259 36.3201 98.8467 36.289 98.663C36.1633 97.8787 35.1051 98.2106 35.2297 98.9887C35.3363 99.625 35.4857 100.245 35.5954 100.879C35.7301 101.669 35.903 102.45 36.0517 103.236C36.445 105.347 36.8062 107.463 37.2743 109.553C37.2959 109.646 37.309 109.743 37.3282 109.836C37.5031 110.609 38.5648 110.284 38.3899 109.511C38.2606 108.97 38.1913 108.426 38.0771 107.886C37.6535 105.935 37.2931 103.967 36.9351 102C36.7675 101.067 36.55 100.147 36.3958 99.2122Z" fill="#1A1A1A"/>
<path d="M33.6932 104.843C33.6421 104.612 33.6044 104.38 33.5558 104.151C33.4413 103.634 32.9521 103.638 32.6739 103.905C32.5963 103.97 32.5376 104.059 32.5054 104.161C32.4732 104.263 32.4691 104.374 32.4934 104.478C32.774 105.751 32.9987 107.041 33.2598 108.32C33.7133 110.536 34.1887 112.747 34.5875 114.976C34.5998 115.044 34.6474 115.061 34.6714 115.112C34.7404 115.23 34.8441 115.318 34.9646 115.359C35.0851 115.401 35.2147 115.394 35.3309 115.339C35.4471 115.284 35.5426 115.185 35.6008 115.06C35.6589 114.934 35.6761 114.789 35.6492 114.651C35.5801 114.258 35.4884 113.873 35.4119 113.479C34.9645 111.02 34.4608 108.559 33.9411 106.111C33.8554 105.69 33.7837 105.265 33.6932 104.843Z" fill="#1A1A1A"/>
</svg>
