<svg width="79" height="144" viewBox="0 0 79 144" fill="none" xmlns="http://www.w3.org/2000/svg">
<path d="M16.1567 15.4195C15.431 14.7414 14.7495 14.1376 14.1211 13.623C16.0923 17.4866 18.0192 21.3795 19.8663 25.3162C20.4193 26.4936 20.9729 27.6788 21.5271 28.8717L25.934 27.5441C22.8635 23.3153 19.6 19.2683 16.1567 15.4195Z" fill="#EA90A6"/>
<path d="M11.8926 12.0397C11.6297 11.8886 11.3555 11.7637 11.0732 11.6663C11.0732 11.6663 14.2331 20.5915 17.7442 30.0112L20.3065 29.2393C17.6661 23.4063 14.8412 17.6746 11.8926 12.0397Z" fill="#EA90A6"/>
<path d="M11.3896 8.47363L11.4337 8.51187C11.4197 8.49807 11.405 8.48529 11.3896 8.47363Z" fill="#1A1A1A"/>
<path d="M21.5267 28.8719C20.9738 27.6799 20.4202 26.4947 19.8659 25.3164C18.0187 21.3797 16.0919 17.4868 14.1207 13.6232C13.9682 13.3246 13.8147 13.0268 13.6603 12.7301C14.5042 13.615 15.3346 14.5021 16.1562 15.4196C19.6023 19.2674 22.8686 23.3136 25.9418 27.5418L27.2502 27.1477C25.0775 24.138 22.8286 21.209 20.4867 18.4015C17.3392 15.3376 14.1144 12.3726 10.7484 9.66081C10.6764 9.60179 10.6158 9.52693 10.5704 9.44078C10.5249 9.35464 10.4955 9.259 10.4839 9.15967C10.4723 9.06035 10.4787 8.95941 10.5029 8.86298C10.527 8.76656 10.5684 8.67665 10.6244 8.59874C10.5761 8.65206 10.5359 8.71387 10.5053 8.78173C10.4956 8.80055 10.4839 8.818 10.4747 8.83867C10.4654 8.85935 10.4619 8.89621 10.4548 8.92616C10.4341 9.00597 10.4294 9.08994 10.4411 9.17204C10.4527 9.25414 10.4803 9.33232 10.522 9.40097C10.9875 10.2707 11.4333 11.1544 11.8897 12.0308C14.8383 17.6656 17.6632 23.3974 20.3036 29.2304L21.5267 28.8719Z" fill="#1A1A1A"/>
<path d="M10.7483 9.6605C14.1143 12.3723 17.3391 15.3373 20.4784 18.4037C22.4639 20.3437 24.4171 22.3167 26.3382 24.3226C27.0987 25.1173 27.8431 25.9329 28.5931 26.7428L29.9922 26.3213C29.069 25.319 28.147 24.3144 27.2075 23.333C22.2066 18.1017 16.99 12.9971 11.4338 8.50764L11.3876 8.46985L11.3675 8.45207C11.3114 8.40321 11.2469 8.368 11.178 8.34864C11.1092 8.32928 11.0375 8.32621 10.9676 8.33962C10.8976 8.35303 10.8309 8.38263 10.7717 8.42654C10.7124 8.47045 10.6619 8.52772 10.6234 8.59471C10.5669 8.67278 10.5252 8.763 10.5008 8.85984C10.4764 8.95667 10.4699 9.05809 10.4816 9.15787C10.4933 9.25765 10.5229 9.3537 10.5688 9.44013C10.6147 9.52655 10.6758 9.60154 10.7483 9.6605Z" fill="#1A1A1A"/>
<path d="M46.7223 65.0345L52.6514 60.8487L43.291 56.9884L36.0996 61.4869L46.7223 65.0345Z" fill="#EA90A6"/>
<path d="M43.6728 55.6705L52.5633 59.3403C52.0547 58.4081 51.5465 57.4776 51.0169 56.5616C46.3998 50.5963 36.6278 38.1301 27.7207 27.8169C33.9272 36.4963 39.3701 45.9047 43.6728 55.6705Z" fill="#EA90A6"/>
<path d="M51.6918 86.9621L59.9541 91.3421C59.6989 90.761 59.3112 89.9652 59.2516 89.8042C58.9537 88.9993 58.6475 88.1969 58.3266 87.4068C57.805 86.1285 57.2542 84.8663 56.6743 83.6201C53.8567 77.5482 50.4662 71.5873 46.4619 66.3977L36.8877 63.1982C43.0293 69.8394 47.7772 78.5944 51.6918 86.9621Z" fill="#EA90A6"/>
<path d="M65.95 132.007C65.854 131.97 65.7697 131.903 65.7077 131.813C55.455 117.382 41.0775 105.818 26.5957 97.2302C27.0224 98.553 62.5459 123.533 66.6556 134.492C66.5506 133.955 66.435 133.403 66.3148 132.847C66.2456 132.805 66.1852 132.746 66.1378 132.675C66.0904 132.605 66.0571 132.523 66.0402 132.437C66.0214 132.291 65.9808 132.15 65.95 132.007Z" fill="#EA90A6"/>
<path d="M58.8 115.39C60.8074 118.96 62.732 122.613 64.5271 126.339C61.8798 116.915 57.8485 107.813 53.5037 99.3326L45.3164 96.1428C50.7295 101.56 54.978 108.591 58.8 115.39Z" fill="#EA90A6"/>
<path d="M54.5638 99.0079C54.4698 99.1083 54.5293 99.1144 54.5638 99.0079V99.0079Z" fill="#EA90A6"/>
<path d="M55.9401 79.1468C53.4602 73.349 50.7758 67.3164 49.3321 64.8348L47.7388 65.9629C50.8309 70.0616 53.5765 74.4753 55.9401 79.1468Z" fill="#EA90A6"/>
<path d="M35.2476 82.6826C31.5218 74.5582 25.7149 67.1322 19.29 61.5208C19.29 61.5208 34.8838 82.9592 35.932 86.8305C36.1096 86.6557 36.7725 86.2094 36.8218 85.956C36.9074 85.5067 35.586 83.4197 35.2476 82.6826Z" fill="#EA90A6"/>
<path d="M54.6961 98.8941C54.7236 98.9537 54.7555 99.0106 54.7914 99.0642L55.4279 98.4331C55.2744 98.531 55.1227 98.6364 54.967 98.725C54.874 98.7757 54.7835 98.8322 54.6961 98.8941Z" fill="#EA90A6"/>
<path d="M53.8163 97.9844L58.576 93.7671C58.9195 93.4648 59.4192 93.1353 59.7301 92.7554L51.2962 88.2859L43.6458 94.0262L53.8163 97.9844Z" fill="#EA90A6"/>
<path d="M41.7071 94.0059C41.7217 93.9527 41.7423 93.9018 41.7683 93.8543C41.8239 93.7313 41.9155 93.6335 42.0276 93.5774L50.427 87.2695C46.1857 78.2507 41.0042 68.8191 34.0733 62.1752C34.0392 62.133 34.011 62.0851 33.99 62.0333C33.981 62.019 33.9728 62.0043 33.9653 61.989C33.915 61.8728 33.8944 61.7432 33.9055 61.6146C33.9167 61.486 33.9593 61.3633 34.0285 61.2602C34.0807 61.1754 34.1503 61.106 34.2314 61.0579L42.4002 55.9488C37.9615 45.9536 32.3416 36.352 25.9273 27.5423L21.527 28.8679C25.0542 36.4558 28.4892 44.3318 30.4026 52.5828C30.4338 52.7296 30.4232 52.8837 30.3725 53.0235C30.3217 53.1632 30.2333 53.2816 30.1196 53.3619L20.7309 61.0612C28.0432 67.6062 34.5007 76.3968 37.9876 86.1381C38.018 86.2552 38.0194 86.3794 37.9917 86.4973C37.9641 86.6153 37.9084 86.7225 37.8307 86.8076L35.2791 89.3159C34.4973 90.4879 33.1566 91.6811 31.7548 92.7813L27.9827 96.4903C40.6709 104.112 53.2668 114.039 63.0172 126.14C61.5507 123.148 60.0148 120.203 58.4094 117.305C53.9288 109.19 48.8789 100.577 41.9622 94.8238C41.942 94.806 41.933 94.7829 41.9145 94.7646C41.8698 94.7235 41.8313 94.6747 41.8004 94.62C41.742 94.5337 41.7029 94.4328 41.6867 94.3259C41.6704 94.2189 41.6775 94.1092 41.7071 94.0059Z" fill="#EA90A6"/>
<path d="M29.2043 52.4327C29.031 52.3437 28.9165 51.5591 28.8062 51.304C28.2514 50.0298 27.9904 48.4523 27.5491 47.12C26.4025 43.6521 25.0649 40.2657 23.6629 36.9205C22.5815 34.3416 21.4572 31.7835 20.3063 29.2395L17.7456 30.0109C21.5701 40.2707 25.8115 51.1147 26.8427 51.6649C27.7884 52.1753 26.1003 54.4414 24.0852 56.6707C25.6903 55.392 27.2803 54.0799 28.8177 52.7102C28.907 52.6395 29.0654 52.5401 29.2043 52.4327Z" fill="#EA90A6"/>
<path d="M27.242 27.15L25.9336 27.5442C32.3466 36.3482 37.9678 45.9554 42.4065 55.9507L34.2378 61.0598C34.3041 61.0183 34.3773 60.9925 34.4529 60.9841C34.5285 60.9757 34.6047 60.9848 34.677 61.0109L36.0991 61.4871L43.2905 56.9886L43.0712 56.8996C42.3295 56.5922 42.6496 55.2492 43.3983 55.5565L43.6735 55.6724C39.3704 45.9047 33.9274 36.4963 27.7205 27.815C27.5614 27.5926 27.4023 27.3701 27.242 27.15Z" fill="#1A1A1A"/>
<path d="M33.9714 61.9905C33.9272 61.8727 33.9098 61.7444 33.9207 61.6172C33.9317 61.49 33.9706 61.368 34.034 61.2621C33.965 61.3651 33.9226 61.4877 33.9116 61.6162C33.9005 61.7448 33.9212 61.8743 33.9714 61.9905Z" fill="#1A1A1A"/>
<path d="M34.3519 62.3517C34.2768 62.3288 34.2065 62.2889 34.1455 62.2345C34.0845 62.18 34.034 62.1122 33.9971 62.0352C34.0182 62.087 34.0463 62.1349 34.0804 62.1771C41.0095 68.8136 46.191 78.2451 50.4341 87.2714L42.0347 93.5793C42.0976 93.5461 42.1657 93.5273 42.2351 93.5242C42.3045 93.521 42.3738 93.5335 42.4388 93.5609L43.6533 94.034L51.3038 88.2938L50.9413 88.1008C50.2213 87.7212 50.8434 86.5179 51.5596 86.8966L51.6996 86.9717C47.7858 78.6077 43.037 69.849 36.892 63.2009L34.3519 62.3517Z" fill="#1A1A1A"/>
<path d="M65.7066 131.813C65.7686 131.903 65.8529 131.971 65.9489 132.007C65.5418 130.105 65.0565 128.218 64.5275 126.339C62.7324 122.613 60.8083 118.962 58.8005 115.39C54.978 108.589 50.7299 101.56 45.3168 96.1431L42.1074 94.8971C42.0369 94.8681 41.9716 94.8252 41.9145 94.7704C41.933 94.7886 41.9421 94.8118 41.9622 94.8296C48.879 100.583 53.9289 109.195 58.4095 117.311C60.0088 120.208 61.5447 123.153 63.0173 126.146C53.2655 114.04 40.6696 104.112 27.9814 96.4905L31.7535 92.7815L35.2778 89.3162L37.8294 86.8078C37.9071 86.7227 37.9628 86.6155 37.9905 86.4975C38.0181 86.3796 38.0167 86.2554 37.9864 86.1383C34.5008 76.4026 28.0415 67.6046 20.7296 61.0615L30.1193 53.3658C30.2329 53.2855 30.3214 53.1671 30.3721 53.0274C30.4228 52.8877 30.4334 52.7335 30.4022 52.5867C28.4888 44.3358 25.0538 36.4597 21.5266 28.8719L20.3057 29.2397C21.4567 31.7837 22.5825 34.3413 23.6624 36.9206C25.0644 40.2658 26.4015 43.6504 27.5485 47.1201C27.9898 48.4524 28.2426 50.0324 28.8056 51.3042C28.9159 51.5593 29.0304 52.3439 29.2037 52.4328C29.0649 52.5403 28.8998 52.6417 28.8189 52.7178C27.2815 54.0875 25.6897 55.3921 24.0864 56.6783C22.5261 57.9297 20.9548 59.1645 19.4117 60.4286C19.1276 60.6613 18.9442 61.2196 19.2901 61.521C25.7167 67.1399 31.5219 74.5584 35.2477 82.6828C35.5861 83.4199 36.9075 85.507 36.8219 85.9563C36.7726 86.2097 36.1048 86.6574 35.9321 86.8307L32.3103 90.3911L26.4655 96.14C26.3997 96.2158 26.3501 96.3075 26.3204 96.4081C26.2907 96.5086 26.2817 96.6155 26.2941 96.7205C26.3065 96.8255 26.34 96.926 26.3921 97.0144C26.4441 97.1027 26.5134 97.1766 26.5946 97.2304C41.0763 105.818 55.4539 117.382 65.7066 131.813Z" fill="#1A1A1A"/>
<path d="M41.7073 93.9992C41.7217 93.9461 41.7419 93.8953 41.7673 93.848C41.7418 93.8953 41.7216 93.9461 41.7073 93.9992Z" fill="#1A1A1A"/>
<path d="M41.7996 94.6197C41.7464 94.5308 41.7104 94.43 41.6943 94.3242C41.6781 94.2184 41.682 94.11 41.7058 94.0064C41.6767 94.1093 41.6701 94.2189 41.6864 94.3257C41.7028 94.4325 41.7416 94.5334 41.7996 94.6197Z" fill="#1A1A1A"/>
<path d="M54.5412 60.2695C54.5024 60.1957 54.4587 60.1234 54.4178 60.0483C47.7814 47.5619 39.2907 36.4134 29.9925 26.3215L28.5967 26.7419C36.969 35.7609 44.6955 45.6246 51.0224 56.568C51.552 57.484 52.0602 58.4145 52.5689 59.3467C53.1175 59.5712 53.6653 59.7971 54.2123 60.0247C54.3043 60.064 54.3873 60.1261 54.4551 60.2062C54.523 60.2863 54.5741 60.3825 54.6046 60.4877C54.6351 60.5929 54.6443 60.7045 54.6314 60.8142C54.6186 60.9239 54.584 61.029 54.5304 61.1217C54.6074 61.013 54.6537 60.8808 54.6632 60.7422C54.6727 60.6036 54.645 60.4649 54.5838 60.3442L54.5412 60.2695Z" fill="#1A1A1A"/>
<path d="M60.5731 93.201L59.7291 92.7534C59.4182 93.1334 58.918 93.461 58.575 93.7651L53.8152 97.9824L54.0937 98.0973C54.8422 98.3888 54.5205 99.7323 53.7662 99.4386L53.5053 99.3383C57.8501 107.819 61.8814 116.921 64.5287 126.345C65.0577 128.223 65.543 130.111 65.9501 132.012C65.9842 132.155 66.0182 132.298 66.0518 132.439C66.0688 132.525 66.1021 132.607 66.1495 132.677C66.1968 132.748 66.2572 132.807 66.3264 132.849C66.7272 133.106 67.3943 132.744 67.2546 132.076C65.0921 121.771 60.9327 111.968 56.5403 102.665C56.0158 101.554 55.5377 100.008 54.7967 99.0586C54.7608 99.0049 54.7289 98.9481 54.7014 98.8885C54.7895 98.8248 54.8808 98.7668 54.9747 98.7147C55.1304 98.626 55.2822 98.5207 55.4357 98.4227C57.5204 97.079 59.4715 94.7297 61.3316 93.0818C61.4253 92.9793 61.4825 92.8419 61.4924 92.6954C61.4709 92.8031 61.4281 92.9041 61.3672 92.9908C61.3063 93.0774 61.2289 93.1476 61.1407 93.1962C61.0524 93.2447 60.9556 93.2703 60.8574 93.2712C60.7592 93.272 60.662 93.248 60.5731 93.201ZM54.5635 99.0075C54.5287 99.1135 54.4689 99.1076 54.5635 99.0075V99.0075Z" fill="#1A1A1A"/>
<path d="M53.8806 61.357L52.6507 60.8488L46.7217 65.0346L46.9774 65.1206C47.7452 65.3744 47.4148 66.7185 46.6498 66.4619L46.4579 66.3984C50.4621 71.588 53.8527 77.5489 56.6703 83.6209C57.248 84.8677 57.7988 86.1299 58.3225 87.4076C58.646 88.2008 58.953 89.0069 59.2476 89.8049C59.3071 89.9659 59.6948 90.7617 59.9501 91.3429L61.1884 91.9977C61.2638 92.038 61.3314 92.0946 61.3872 92.1644C59.8852 87.6679 58.0636 83.3146 55.94 79.1468C53.5764 74.4753 50.8307 70.0616 47.7387 65.9629L49.3356 64.8356L54.259 61.3643C54.1364 61.4147 54.0015 61.4121 53.8806 61.357Z" fill="#1A1A1A"/>
<path d="M61.1908 91.9961L59.9526 91.3414L51.691 86.9618L51.5511 86.8866C50.8345 86.5061 50.2124 87.7094 50.9328 88.0908L51.2953 88.2837L59.7284 92.7527L60.5724 93.2002C60.6605 93.2454 60.7563 93.2682 60.8531 93.2668C60.9499 93.2654 61.0452 93.24 61.1322 93.1923C61.2193 93.1446 61.2958 93.0759 61.3564 92.991C61.417 92.9061 61.4601 92.8072 61.4826 92.7014C61.5082 92.61 61.5131 92.5129 61.4968 92.4189C61.4806 92.3248 61.4438 92.2368 61.3897 92.1628C61.3338 92.093 61.2662 92.0364 61.1908 91.9961Z" fill="#1A1A1A"/>
<path d="M42.4326 93.5506C42.3675 93.5233 42.2983 93.5108 42.2289 93.5139C42.1595 93.5171 42.0914 93.5358 42.0285 93.569C41.9163 93.6251 41.8248 93.7229 41.7692 93.8459C41.7433 93.8934 41.7227 93.9443 41.708 93.9975C41.6837 94.1014 41.6794 94.21 41.6955 94.3159C41.7116 94.4218 41.7477 94.5226 41.8013 94.6115C41.8322 94.6663 41.8707 94.7151 41.9153 94.7561C41.9724 94.8109 42.0377 94.8539 42.1082 94.8829L45.3139 96.1437L53.5005 99.3331L53.7614 99.4335C54.5157 99.7271 54.8374 98.3837 54.0889 98.0923L53.8105 97.9774L43.6419 94.0173L42.4326 93.5506Z" fill="#1A1A1A"/>
<path d="M34.6776 61.0109C34.6053 60.9848 34.529 60.9757 34.4535 60.9841C34.3779 60.9925 34.3047 61.0182 34.2384 61.0597C34.1573 61.1078 34.0877 61.1772 34.0355 61.262C33.9718 61.3679 33.9327 61.4901 33.9216 61.6173C33.9106 61.7446 33.928 61.8729 33.9722 61.9907C33.9798 62.006 33.988 62.0207 33.9969 62.035C34.0339 62.112 34.0844 62.1799 34.1454 62.2343C34.2064 62.2887 34.2766 62.3286 34.3517 62.3515L36.8858 63.1984L46.4593 66.3975L46.6512 66.4609C47.4194 66.7165 47.7399 65.3755 46.9787 65.1198L46.7231 65.0338L36.0996 61.487L34.6776 61.0109Z" fill="#1A1A1A"/>
<path d="M54.2091 60.0149C53.661 59.7824 53.1132 59.5565 52.5658 59.337L43.6764 55.6694L43.4012 55.5535C42.6526 55.2463 42.3325 56.5892 43.0741 56.8965L43.2934 56.9855L52.653 60.8455L53.8828 61.3537C54.0041 61.4059 54.1382 61.4058 54.2594 61.3535C54.3709 61.3088 54.4652 61.2221 54.5263 61.1081C54.5793 61.0156 54.6134 60.9109 54.626 60.8016C54.6385 60.6924 54.6293 60.5814 54.5989 60.4767C54.5686 60.372 54.5178 60.2762 54.4504 60.1963C54.383 60.1164 54.3005 60.0545 54.2091 60.0149Z" fill="#1A1A1A"/>
</svg>
