<svg width="55" height="38" viewBox="0 0 55 38" fill="none" xmlns="http://www.w3.org/2000/svg">
<path d="M23.8963 7.94092C23.447 8.62412 23.1389 9.19185 23.1646 9.36506C23.1988 9.60562 24.2686 14.6815 25.7214 20.4478C25.4547 18.6837 25.1894 16.9244 24.9255 15.1698C24.5603 12.7642 24.2173 10.3546 23.8963 7.94092Z" fill="white"/>
<path d="M19.9969 7.90221C17.6946 10.3223 15.3952 12.744 13.0986 15.1672C16.4066 12.2805 20.0461 8.34725 23.3905 4.43328C23.3905 4.40442 23.3905 4.37314 23.3905 4.34668L19.9969 7.90221Z" fill="white"/>
<path d="M11.4796 14.4817C14.6934 11.0929 17.9107 7.70821 21.1317 4.32749C25.6821 -0.456509 30.2346 -5.2381 34.7893 -10.0173L35.6986 -10.9795C35.8762 -11.6243 36.0452 -12.269 36.2228 -12.9041L18.9064 4.54881L8.40484 15.1336C7.86136 15.6652 6.79152 17.1207 5.72168 18.1503C8.20799 18.9658 9.45115 16.6203 11.4796 14.4817Z" fill="white"/>
<path d="M51.3548 -28.4995C52.1464 -31.1313 51.971 -33.5995 51.5473 -36.1687C51.4981 -36.022 51.4403 -35.8656 51.4018 -35.7333C50.7599 -33.5682 50.0945 -31.432 49.4183 -29.291C47.4926 -23.1879 45.5049 -17.1089 43.5064 -11.0346C40.9973 -3.42001 38.4675 4.18259 35.917 11.7732C36.6423 11.2175 37.3741 10.6666 38.1037 10.1157C40.9566 2.09691 43.7703 -5.93871 46.5448 -13.9912C48.1945 -18.8024 49.8848 -23.6137 51.3548 -28.4995Z" fill="white"/>
<path d="M26.3828 5.18384C26.8257 6.0234 27.2023 6.86778 27.4526 7.3032C28.2807 8.74658 29.0788 10.2236 29.8812 11.6911C29.9496 11.4024 30.0267 11.1137 30.0951 10.825C29.3334 9.34558 28.5696 7.86612 27.8164 6.38185C27.504 5.77322 26.9755 5.42921 26.3828 5.18384Z" fill="white"/>
<path d="M31.7061 4.27222C32.7046 0.291694 33.7352 -3.676 34.7979 -7.63086L34.126 -6.92601L31.7061 4.27222Z" fill="white"/>
<path d="M54.1188 -32.19C54.0332 -34.9974 53.4277 -37.0711 52.7023 -38.5674C53.3442 -35.3823 54.0139 -32.0914 53.1302 -28.9448C51.7822 -24.2082 50.1176 -19.5629 48.5299 -14.932C45.8617 -7.12815 43.1251 0.646866 40.3691 8.40263C40.9982 7.89985 41.9568 7.02179 42.9239 6.42038L41.8541 6.31454C41.8541 6.31454 54.3413 -24.7085 54.1188 -32.19Z" fill="white"/>
<path d="M44.9146 14.549C43.8448 17.2649 42.3149 19.8293 40.9669 22.3721C38.3501 27.3084 35.6648 32.2015 32.9495 37.0705C32.9046 37.1431 32.8506 37.2079 32.7891 37.263C36.8117 35.0979 46.7184 13.5819 46.6071 11.9533C46.4852 10.1851 45.4303 6.66089 45.4303 6.66089C45.6207 9.32393 45.886 12.0832 44.9146 14.549Z" fill="white"/>
<path d="M39.5568 11.0923C37.9421 12.2967 36.3366 13.5196 34.7404 14.7609C34.2012 15.1794 33.3667 14.4746 33.6021 13.777C36.9143 3.9347 40.188 -5.92439 43.4232 -15.8003C45.2697 -21.4415 47.1099 -27.0876 48.8666 -32.7648C49.4015 -34.4945 49.9471 -36.2266 50.4178 -37.9803C49.4849 -37.184 48.0834 -36.4358 47.3816 -35.8465C45.2312 -34.0471 43.1129 -32.1971 40.9968 -30.3472C36.6875 -26.5824 32.4081 -22.7767 28.041 -19.1008C26.6631 -17.9389 22.5571 -13.3273 20.5522 -13.7531C18.3504 -14.2222 20.6998 -19.6132 21.0743 -20.8738C22.9037 -27.0443 24.9257 -33.1425 26.8706 -39.2649C27.7265 -41.9881 28.5952 -44.7136 29.3848 -47.4633C29.6415 -48.3558 30.3583 -50.1095 30.4546 -51.3123C30.1836 -51.3273 29.912 -51.312 29.6437 -51.2666C28.7643 -51.0525 27.8699 -50.9033 26.9883 -50.6964C24.5384 -50.1167 22.1034 -49.4407 19.6813 -48.7334C17.0923 -47.9757 14.5119 -47.1746 11.9592 -46.2773C10.3502 -45.7144 7.92593 -45.2501 6.57793 -44.0641C4.49174 -42.2358 4.7485 -35.4784 4.45965 -32.7264C3.67225 -25.2705 3.04889 -17.7946 2.58957 -10.2986C2.10386 -2.36004 1.68662 5.85279 3.04746 13.712C3.24003 14.8378 3.58452 15.8939 3.83486 16.9909C3.86919 17.1169 3.88012 17.2496 3.86696 17.3806C4.52812 17.027 5.2877 15.9372 5.79267 15.42C16.2814 4.8737 26.7601 -5.68462 37.2288 -16.255C37.7745 -16.8035 38.7694 -16.2814 38.5233 -15.4058C35.7824 -5.65335 33.1741 4.16645 30.9018 14.0704C30.7328 14.8066 29.832 14.9052 29.4875 14.2773C28.6616 12.7505 27.8249 11.227 26.9776 9.70662C26.3678 8.61687 25.7559 7.52712 25.1182 6.45901C25.1182 6.44218 25.0862 6.4085 25.0755 6.39166C25.2894 7.6883 25.6018 9.11965 25.7174 9.96403C26.2237 13.5292 26.7687 17.0847 27.3521 20.6306C27.8506 23.6689 28.362 26.7072 28.9654 29.7191C29.1794 30.7752 29.5474 31.8842 29.6779 32.945C30.3904 31.4415 31.9117 29.6614 32.5836 28.4585C34.1156 25.7161 35.6005 22.94 37.0769 20.1519C38.5191 17.4095 39.9398 14.6534 41.3392 11.8837C41.5403 11.4844 42.0303 10.1445 42.5524 8.9272C41.5381 9.62483 40.5432 10.3537 39.5568 11.0923ZM6.46881 -34.1337C6.61644 -34.7976 7.52581 -34.5137 7.37817 -33.8522C7.12241 -32.7092 6.95278 -31.5439 6.87107 -30.3688C6.82399 -29.6929 5.88039 -29.6904 5.92747 -30.3688C6.01308 -31.6387 6.19417 -32.8981 6.46881 -34.1337ZM4.84051 -3.98625C4.84051 -4.66945 5.77983 -4.66704 5.78197 -3.98625C5.78796 -2.95559 5.69035 -1.92747 5.49097 -0.921467C5.36045 -0.255108 4.45109 -0.538971 4.58161 -1.20293C4.75965 -2.117 4.84649 -3.05054 4.84051 -3.98625ZM4.22428 5.92978C4.04596 5.04762 4.06878 4.12911 4.29061 3.25952C4.45751 2.60519 5.36045 2.88425 5.19998 3.54099C5.01996 4.22504 4.99714 4.94925 5.13365 5.64592C5.26631 6.31227 4.35694 6.59614 4.22428 5.92978ZM4.88331 12.0882C4.78274 11.4026 4.68004 10.717 4.57947 10.0314C4.47891 9.34578 5.39041 9.06913 5.48883 9.74992C5.58726 10.4307 5.6921 11.1211 5.79267 11.8067C5.89323 12.4923 4.98601 12.7594 4.88758 12.0882H4.88331ZM5.88681 -23.3516L6.00877 -26.2576C6.03873 -26.9384 6.98019 -26.9408 6.95237 -26.2576C6.91243 -25.2954 6.87107 -24.3267 6.82827 -23.3516C6.80474 -22.6708 5.86114 -22.6708 5.89109 -23.3516H5.88681ZM7.45306 1.66699C7.45306 2.35019 6.5116 2.35019 6.5116 1.66699V-1.41462C6.5116 -2.09782 7.45306 -2.09542 7.45306 -1.41462V1.66699ZM8.97865 8.69385C8.97865 9.37705 8.03505 9.37705 8.03505 8.69385V5.95624C8.03505 5.27304 8.97865 5.27544 8.97865 5.95624V8.69385ZM9.89229 -26.6088C9.85164 -25.9304 8.90804 -25.928 8.9487 -26.6088C9.01177 -27.6992 9.16434 -28.7808 9.40445 -29.8396C9.55208 -30.5011 10.4614 -30.2197 10.3117 -29.5581C10.0933 -28.5906 9.95439 -27.6025 9.89657 -26.6064L9.89229 -26.6088ZM45.6677 -31.3888C45.8539 -32.0359 46.7632 -31.7593 46.5771 -31.1074C46.2476 -29.9543 45.9188 -28.802 45.5907 -27.6505C45.4045 -27.0034 44.4952 -27.2824 44.6813 -27.9319C45.0123 -29.0754 45.3425 -30.2269 45.672 -31.3864L45.6677 -31.3888ZM44.508 -24.7397C44.294 -24.0613 44.0801 -23.3813 43.8661 -22.6997C43.6628 -22.0598 42.7535 -22.3364 42.9568 -22.9811C43.16 -23.6258 43.3847 -24.3427 43.5987 -25.0235C43.8083 -25.6586 44.7177 -25.382 44.5123 -24.7372L44.508 -24.7397ZM42.3683 -27.944C42.5823 -28.5814 43.4853 -28.3048 43.2777 -27.6625L42.5074 -25.2569C42.2935 -24.6194 41.3905 -24.896 41.5981 -25.5383L42.3683 -27.944ZM41.5638 -18.7063C41.7649 -19.3462 42.6765 -19.0696 42.4732 -18.4249L41.7671 -16.1756C41.566 -15.5357 40.6545 -15.8123 40.8577 -16.4571L41.5638 -18.7063Z" fill="white"/>
<path d="M4.01074 19.2256C4.12856 19.3064 4.25239 19.3756 4.38085 19.4324C4.26105 19.3675 4.14124 19.2977 4.01716 19.2231L4.01074 19.2256Z" fill="white"/>
<path d="M38.929 22.8076C40.3412 20.1614 41.7769 17.5152 43.0607 14.792C43.784 13.2524 43.9872 11.7032 44.0108 10.0986C43.9295 10.2478 43.8374 10.4066 43.769 10.5437C42.3076 13.5219 40.7905 16.4639 39.2585 19.3988C36.6909 24.3015 34.2239 29.4496 31.177 34.001C31.0429 34.1944 30.9001 34.3799 30.749 34.5567L32.02 35.4324C34.3551 31.2466 36.6581 27.0383 38.929 22.8076Z" fill="white"/>
<path d="M39.4928 10.8854C39.1247 11.915 37.627 11.4627 37.995 10.4235L38.102 10.1156C37.3723 10.6664 36.6406 11.2173 35.9152 11.773C38.4657 4.17924 40.9955 -3.42336 43.5047 -11.0348C45.5031 -17.109 47.4909 -23.188 49.4166 -29.2911C50.0927 -31.4321 50.7646 -33.5756 51.4001 -35.7334C51.4386 -35.8657 51.4963 -36.0221 51.5456 -36.1688C51.3573 -37.3091 51.1176 -38.4662 50.9037 -39.6714C50.8805 -39.7933 50.8806 -39.9193 50.9037 -40.0412C50.9269 -40.1631 50.9727 -40.2781 51.0382 -40.3787C51.1036 -40.4793 51.1872 -40.5632 51.2835 -40.625C51.3798 -40.6868 51.4866 -40.725 51.5969 -40.7371C51.5033 -40.7386 51.4099 -40.7273 51.3187 -40.7035C50.5741 -40.5663 49.607 -39.7749 48.9651 -39.2793C45.0559 -36.2482 41.3543 -32.8515 37.6098 -29.5726C33.583 -26.0435 29.5711 -22.4832 25.4372 -19.1129C25.1933 -18.2725 24.9487 -17.433 24.7033 -16.5942C24.3931 -15.5309 22.8974 -15.988 23.2056 -17.0561C23.2548 -17.2221 23.3018 -17.3857 23.3489 -17.5492C22.7605 -17.1956 22.0972 -16.8107 21.5537 -16.409C21.7206 -17.0537 21.8169 -17.8187 21.9603 -18.3335C23.886 -25.2304 26.2054 -31.9903 28.3579 -38.7958C29.325 -41.8485 30.3007 -44.9037 31.1566 -47.9973C31.178 -48.0719 31.2079 -48.1633 31.2293 -48.2379C31.0606 -49.4969 30.8089 -50.74 30.4762 -51.957C30.1916 -53.0347 31.6872 -53.4918 31.9739 -52.4189C31.9743 -52.4237 31.9743 -52.4285 31.9739 -52.4333C31.9608 -52.4793 31.9436 -52.5236 31.9226 -52.5656C31.882 -52.6965 31.8088 -52.8115 31.7117 -52.8968C31.6145 -52.9821 31.4976 -53.0342 31.3748 -53.0468C29.8428 -53.8406 26.1754 -52.5247 24.1556 -51.8295C23.749 -51.6876 23.3874 -51.5673 23.1521 -51.5024C18.188 -50.172 13.1812 -48.7407 8.38831 -46.7729C5.46551 -45.5701 4.53689 -45.024 3.99769 -41.5767C2.92786 -34.7832 2.3908 -27.8526 1.82378 -20.9893C1.49641 -17.0176 1.18188 -13.017 0.946516 -9.01405C0.627705 -3.55326 0.477928 1.91715 0.820276 7.35869C0.952935 9.44678 0.974332 19.0958 3.84364 19.2618C3.89713 19.2618 3.95918 19.2305 4.01695 19.2257C3.90997 19.1607 3.81796 19.1198 3.70884 19.0477C2.85297 18.4896 3.62325 16.9836 4.48982 17.5442C4.87744 17.8013 5.29125 18.0048 5.72227 18.1504C6.79211 17.1208 7.86195 15.6653 8.40114 15.1241L18.9027 4.53929L36.2191 -12.9136C36.0415 -12.2713 35.8724 -11.6266 35.6948 -10.9891L35.7954 -11.0949C36.5229 -11.8599 37.6205 -10.6282 36.8909 -9.86324L34.7919 -7.65727C33.7221 -3.70241 32.6915 0.265278 31.7001 4.2458C31.3534 5.63626 31.0111 7.02913 30.673 8.42439C30.9683 9.01859 31.2614 9.61518 31.5631 10.1998C32.0638 11.162 30.7244 12.0497 30.2258 11.0802L30.0868 10.8108C30.0183 11.0994 29.9413 11.3881 29.8728 11.6768C29.0704 10.2094 28.2723 8.73712 27.4443 7.28893C27.1961 6.85832 26.8195 6.00913 26.3744 5.16956C25.5993 4.89539 24.8057 4.69186 24.0015 4.56094C23.8999 4.54516 23.803 4.50277 23.7186 4.43716C23.6343 4.37156 23.5648 4.28459 23.5158 4.18325L23.3746 4.33241C23.3746 4.35886 23.3746 4.39014 23.3746 4.41901C23.4067 5.25376 23.642 6.19677 23.7298 6.88478C23.7747 7.2336 23.8325 7.5776 23.8796 7.92642C24.1962 10.3321 24.5393 12.7417 24.9087 15.1553C25.1741 16.9067 25.4394 18.666 25.7047 20.4333C26.3466 24.5999 27.027 28.7761 28.0262 32.8247C28.1745 33.5344 28.4308 34.2099 28.7837 34.8214C28.7537 34.2032 29.3122 33.5609 29.9199 33.9794L30.7372 34.5424C30.8883 34.3655 31.0311 34.1801 31.1651 33.9866C34.212 29.4352 36.6855 24.2871 39.2467 19.3845C40.7787 16.4496 42.2957 13.5075 43.7571 10.5293C43.8256 10.3922 43.9176 10.2334 43.9989 10.0843C44.0139 8.97528 43.954 7.84222 43.8684 6.65384C43.7892 5.53281 45.3384 5.54243 45.4175 6.65384C45.4202 6.50112 45.386 6.35044 45.3186 6.21784C45.2511 6.08524 45.153 5.9757 45.0345 5.90088C44.4483 5.62182 43.678 5.92012 42.8948 6.40125C41.9277 7.00266 40.9691 7.88071 40.3401 8.38349C40.0683 9.22546 39.7859 10.0578 39.4928 10.8854ZM37.0685 20.1494C35.6007 22.9376 34.1158 25.7137 32.5752 28.4561C31.9033 29.6589 30.382 31.4391 29.6695 32.9426C29.539 31.8721 29.1688 30.7775 28.957 29.7167C28.3536 26.7048 27.8422 23.6665 27.3437 20.6282C26.7631 17.0871 26.2196 13.5372 25.7133 9.97843C25.5934 9.13405 25.2725 7.70269 25.0714 6.40606C25.082 6.4229 25.1056 6.45658 25.1141 6.47342C25.756 7.54152 26.3637 8.63849 26.9735 9.72102C27.8208 11.235 28.6574 12.7585 29.4834 14.2917C29.8214 14.9196 30.7287 14.821 30.8977 14.0848C33.1786 4.18085 35.7783 -5.64135 38.5192 -15.3914C38.7653 -16.267 37.7703 -16.7891 37.2247 -16.2406C26.7517 -5.68626 16.2744 4.86726 5.79288 15.42C5.2815 15.9348 4.52191 17.0269 3.86717 17.3806C3.88033 17.2496 3.86941 17.1169 3.83508 16.9909C3.58474 15.8939 3.24025 14.8378 3.04768 13.712C1.68684 5.85276 2.10408 -2.36248 2.58979 -10.2987C3.04768 -17.7898 3.67104 -25.2657 4.45986 -32.7264C4.74872 -35.4784 4.49196 -42.2359 6.57814 -44.0641C7.93256 -45.2501 10.3568 -45.7144 11.9637 -46.2797C14.5163 -47.177 17.0989 -47.9781 19.6858 -48.7359C22.1079 -49.4431 24.5429 -50.1191 26.9928 -50.6989C27.8743 -50.9058 28.7687 -51.0549 29.6481 -51.269C29.9164 -51.3144 30.1881 -51.3297 30.4591 -51.3147C30.3585 -50.0975 29.6417 -48.3558 29.3892 -47.4657C28.589 -44.7137 27.7267 -41.9881 26.8644 -39.2697C24.9259 -33.1426 22.8974 -27.0491 21.068 -20.8786C20.6936 -19.6181 18.3442 -14.2271 20.5459 -13.758C22.5572 -13.3322 26.6633 -17.9438 28.0348 -19.1057C32.4019 -22.7815 36.6812 -26.5872 40.9905 -30.352C43.1067 -32.202 45.225 -34.0519 47.3753 -35.8513C48.0771 -36.4407 49.4786 -37.1888 50.4115 -37.9851C49.9408 -36.2314 49.3952 -34.4993 48.8603 -32.7697C47.1036 -27.0924 45.2635 -21.4464 43.4169 -15.8052C40.186 -5.92762 36.9123 3.93548 33.5958 13.7841C33.3605 14.4818 34.1949 15.1866 34.7341 14.768C36.3275 13.5283 37.9329 12.3055 39.5505 11.0995C40.5369 10.3609 41.5319 9.63202 42.5461 8.93439C42.024 10.1516 41.534 11.4916 41.3329 11.8909C39.9364 14.6542 38.5149 17.407 37.0685 20.1494Z" fill="#1A1A1A"/>
<path d="M50.9006 -39.6714C51.1253 -38.4686 51.3585 -37.3091 51.5425 -36.1688C51.9704 -33.5996 52.1416 -31.1314 51.3499 -28.4996C49.88 -23.6138 48.1896 -18.8025 46.5399 -13.9912C43.7726 -5.93557 40.959 2.10005 38.0989 10.1156L37.9919 10.4235C37.6218 11.4628 39.1195 11.915 39.4897 10.8854C39.7828 10.0579 40.0653 9.22554 40.3584 8.398C43.1143 0.635014 45.851 -7.14 48.5191 -14.9367C50.1068 -19.5747 51.7714 -24.2128 53.1194 -28.9495C54.0117 -32.0768 53.3334 -35.3749 52.6915 -38.56C52.5845 -39.0844 52.4775 -39.6088 52.3834 -40.1285C52.3685 -40.2284 52.3355 -40.3239 52.2866 -40.409C52.2376 -40.4941 52.1737 -40.5671 52.0988 -40.6234C52.0238 -40.6798 51.9394 -40.7183 51.8507 -40.7366C51.7621 -40.7549 51.671 -40.7526 51.5832 -40.7299C51.4744 -40.716 51.3695 -40.6769 51.275 -40.6149C51.1805 -40.5529 51.0985 -40.4694 51.0343 -40.3698C50.9701 -40.2703 50.925 -40.1567 50.902 -40.0364C50.879 -39.9162 50.8785 -39.7919 50.9006 -39.6714Z" fill="#1A1A1A"/>
<path d="M23.3829 4.34678L23.5241 4.19763C23.4635 4.04335 23.4411 3.87351 23.4593 3.70609C23.4774 3.53868 23.5355 3.3799 23.6274 3.24655C23.7193 3.1132 23.8415 3.01025 23.9811 2.94857C24.1207 2.8869 24.2726 2.8688 24.4206 2.89618L24.7073 2.95392C27.8455 -0.345008 30.9837 -3.64233 34.1219 -6.93805L34.7938 -7.6429L36.8928 -9.84887C37.6224 -10.6139 36.5248 -11.8455 35.7973 -11.0806L35.6967 -10.9747L34.7873 -10.0125C30.2355 -5.23486 25.6823 -0.454866 21.1276 4.32753C17.9096 7.70986 14.6922 11.0946 11.4755 14.4817C9.44713 16.6203 8.20398 18.9658 5.7241 18.1503C5.28781 18.0053 4.8689 17.8009 4.47666 17.5417C3.62079 16.9812 2.82911 18.4871 3.69568 19.0452C3.80481 19.1174 3.89681 19.1583 4.0038 19.2232C4.11078 19.2882 4.24772 19.3676 4.36754 19.4325C6.95869 20.8759 8.3559 20.171 10.4207 17.9891C11.3108 17.0477 12.2023 16.1087 13.0953 15.1721C15.3933 12.7505 17.6927 10.3288 19.9936 7.90711L23.3829 4.34678Z" fill="#1A1A1A"/>
<path d="M43.8803 6.67785C43.9659 7.86624 44.0258 8.99929 44.0108 10.1083C43.9873 11.7128 43.784 13.2621 43.0608 14.8017C41.777 17.5297 40.3412 20.1735 38.929 22.8173C36.6653 27.0512 34.3637 31.2594 32.0243 35.442L30.7555 34.5567L29.9381 33.9938C29.3304 33.5752 28.772 34.2175 28.8019 34.8358C28.8059 34.971 28.8407 35.1028 28.9028 35.2186C28.965 35.3344 29.0526 35.4304 29.1571 35.4973L31.8916 37.3834C32.0332 37.474 32.1968 37.5112 32.3586 37.4895C32.5203 37.4679 32.6716 37.3885 32.7903 37.2631C32.8518 37.208 32.9059 37.1432 32.9508 37.0706C35.666 32.2016 38.3513 27.3086 40.9682 22.3722C42.3162 19.8295 43.846 17.265 44.9159 14.5491C45.8873 12.0833 45.622 9.31203 45.4315 6.66823C45.3502 5.55683 43.8075 5.54721 43.8803 6.67785Z" fill="#1A1A1A"/>
<path d="M24.7073 2.95394L24.4206 2.89621C24.2726 2.86882 24.1207 2.88692 23.9811 2.9486C23.8415 3.01027 23.7193 3.11323 23.6274 3.24658C23.5356 3.37992 23.4775 3.5387 23.4593 3.70612C23.4411 3.87354 23.4635 4.04337 23.5241 4.19766C23.5731 4.29899 23.6425 4.38596 23.7269 4.45156C23.8113 4.51717 23.9082 4.55956 24.0098 4.57534C24.814 4.70626 25.6075 4.90979 26.3827 5.18396C26.9754 5.42453 27.5039 5.77334 27.8141 6.38678C28.5673 7.87106 29.3312 9.35052 30.0929 10.83L30.232 11.0994C30.7305 12.0617 32.07 11.1908 31.5693 10.219C31.2676 9.63439 30.9745 9.03779 30.6792 8.4436C30.1015 7.28168 29.5238 6.11735 28.8925 4.99632C28.088 3.56257 26.1516 3.24503 24.7073 2.95394Z" fill="#1A1A1A"/>
<path d="M5.13748 5.64586C5.00097 4.9492 5.02379 4.22499 5.20381 3.54093C5.37071 2.88419 4.46135 2.60514 4.29446 3.25947C4.07263 4.12906 4.04981 5.04757 4.22813 5.92973C4.35651 6.59609 5.26586 6.31223 5.13748 5.64586Z" fill="#1A1A1A"/>
<path d="M6.5166 -1.41477V1.66926C6.5166 2.35246 7.45804 2.35246 7.45804 1.66926V-1.41477C7.45804 -2.09557 6.5166 -2.09797 6.5166 -1.41477Z" fill="#1A1A1A"/>
<path d="M4.58265 10.0313C4.68321 10.7169 4.78592 11.4025 4.88649 12.0881C4.98705 12.7737 5.89429 12.4754 5.79586 11.8067C5.69743 11.1379 5.59259 10.4354 5.49202 9.74983C5.39146 9.06422 4.48422 9.36253 4.58265 10.0313Z" fill="#1A1A1A"/>
<path d="M8.03906 5.95617V8.69859C8.03906 9.38179 8.98265 9.38179 8.98265 8.69859V5.95617C8.98265 5.27297 8.03906 5.27057 8.03906 5.95617Z" fill="#1A1A1A"/>
</svg>
