<svg width="132" height="46" viewBox="0 0 132 46" fill="none" xmlns="http://www.w3.org/2000/svg">
<path d="M63.4089 42.9545C65.2208 42.1847 67.0736 41.5429 68.9566 41.0329C68.6367 42.0459 68.3062 43.0565 67.965 44.0646L61.9212 46.4274C62.4444 45.2091 62.9478 44.0346 63.4089 42.9545Z" fill="#FFE761"/>
<path d="M61.396 47.713C63.4512 46.9093 65.5059 46.105 67.5601 45.3002C67.1746 46.4016 66.7529 47.4874 66.3427 48.5768C64.2891 49.5818 62.1996 50.4647 60.075 51.2599C60.5332 50.0829 60.9653 48.8988 61.396 47.713Z" fill="#FFE761"/>
<path d="M66.118 36.668C66.2427 36.8133 66.3792 36.9424 66.5039 37.0844C66.2852 37.1636 66.0517 37.2524 65.827 37.3381L66.118 36.668Z" fill="#FFE761"/>
<path d="M65.2712 38.6148C65.8154 38.4115 66.3616 38.2071 66.9098 38.0017C67.004 37.9612 67.0823 37.8842 67.1308 37.7847C67.7439 38.4995 68.3273 39.2432 68.9123 39.982C67.2351 40.4369 65.5817 40.9965 63.9597 41.6581C64.4416 40.5555 64.8859 39.5193 65.2712 38.6148Z" fill="#FFE761"/>
<path d="M76.6186 40.5771C78.5488 43.1461 80.3073 45.872 81.8799 48.7326C81.9445 48.861 82.0377 48.9683 82.1505 49.0439C82.2632 49.1194 82.3915 49.1606 82.5227 49.1635C82.6539 49.1663 82.7835 49.1307 82.8987 49.06C83.0139 48.9894 83.1108 48.8863 83.1798 48.7607C86.8937 41.6298 88.1844 32.5362 89.6717 24.5576C90.691 19.088 91.5963 13.5938 92.3877 8.07476C96.4991 13.4092 100.58 18.8382 104.213 24.5847C105.016 25.8546 106.238 27.4531 106.542 29.064C102.358 39.6607 89.2586 70.1221 84.4792 76.7161C84.3254 76.6605 84.1422 76.4369 83.7179 75.9589C82.4807 74.5735 81.5448 72.7839 80.6361 71.1197C79.1547 68.4067 77.796 65.5961 76.5387 62.7433C76.2966 62.1936 75.4903 62.146 75.2373 62.7168C72.961 67.8572 69.7352 72.6796 66.3178 77.2618L59.1164 68.8665C64.1113 58.6834 68.6484 48.1038 71.6869 37.0637L76.6186 40.5771ZM92.1754 53.8567C90.0397 58.8585 87.6083 63.6938 84.8974 68.33C84.3648 69.2299 85.6558 70.0864 86.1869 69.1882C88.8978 64.552 91.3292 59.7167 93.4649 54.7149C93.8745 53.7453 92.5939 52.8807 92.1754 53.8567ZM93.273 50.5908L93.4034 50.7428C94.0709 51.521 95.1463 50.3549 94.4788 49.5767L94.3484 49.4247C93.6809 48.6465 92.6098 49.811 93.276 50.5876L93.273 50.5908Z" fill="#FFE761"/>
<path d="M85.4007 8.38858C86.041 9.22861 86.6708 10.0799 87.3067 10.9248L84.8742 11.9861C85.0521 10.7875 85.2276 9.58834 85.4007 8.38858Z" fill="#FFE761"/>
<path d="M80.8994 39.8552C80.4461 40.0855 79.7172 40.3119 79.1683 40.6781C79.5018 39.4592 79.7903 38.2213 80.0961 36.9903C82.3264 35.8002 84.493 34.4791 86.6061 33.0454C86.3004 34.5652 85.9603 36.0739 85.5859 37.5714C85.516 37.5667 85.4493 37.5391 85.3713 37.5785L80.8994 39.8552Z" fill="#FFE761"/>
<path d="M66.8046 35.0822L67.3093 33.9226L70.3854 36.1216C70.1712 36.9147 69.9613 37.7096 69.7297 38.499C68.7903 37.3214 67.8153 36.1825 66.8046 35.0822Z" fill="#FFE761"/>
<path d="M79.5174 41.637C79.7936 41.5245 80.6248 41.1131 80.8367 41.0059L82.3274 40.247L85.2954 38.7372C84.9474 40.0428 84.56 41.3224 84.1331 42.576C84.0733 42.513 83.997 42.4736 83.9155 42.4636C83.8341 42.4537 83.752 42.4738 83.6816 42.5209C82.7736 43.1026 81.8056 43.5568 80.7993 43.8733C80.3595 43.1769 79.8785 42.5091 79.4136 41.8301C79.4376 41.788 79.4775 41.7609 79.4943 41.7169L79.5174 41.637Z" fill="#FFE761"/>
<path d="M84.7446 12.9005C84.8047 12.9448 84.8734 12.9722 84.9448 12.9805C85.0163 12.9888 85.0885 12.9778 85.1554 12.9483C86.0803 12.5448 87.0039 12.142 87.9259 11.7396C88.3373 12.2894 88.7533 12.8312 89.1619 13.381C87.5286 13.9858 85.9273 14.6944 84.3655 15.5034C84.4962 14.6397 84.6123 13.7757 84.7446 12.9005Z" fill="#FFE761"/>
<path d="M82.4632 46.6885C82.0913 46.0377 81.7164 45.3901 81.3225 44.7504C82.1605 44.4641 82.9716 44.0866 83.7443 43.6232C83.3567 44.6753 82.9296 45.6971 82.4632 46.6885Z" fill="#FFE761"/>
<path d="M92.4554 5.59332C92.3852 5.49513 92.293 5.41964 92.1884 5.37456C92.0837 5.32948 91.9703 5.31641 91.8597 5.3367C92.1445 4.68944 92.4314 4.18498 92.6344 4.17435C93.1913 4.1217 107.857 25.4266 107.857 25.4266C107.878 25.5008 107.729 25.9687 107.439 26.757C106.677 25.2582 105.564 23.8293 104.847 22.7333C100.985 16.7936 96.7458 11.1431 92.4554 5.59332Z" fill="#FFE761"/>
<path d="M81.8092 21.6505C80.7378 27.7245 79.4659 33.7484 77.8793 39.6461L77.8292 39.5876C78.6029 35.9508 80.5575 26.7757 82.3561 18.4144C82.1863 19.4365 82.0181 20.457 81.8338 21.482C81.8143 21.5354 81.8059 21.593 81.8092 21.6505Z" fill="#FFE761"/>
<path d="M85.4667 5.88107C85.3773 5.76858 85.2585 5.69089 85.1273 5.65921C85.5866 3.6011 85.891 2.28477 85.9469 2.16285C86.2582 1.50301 90.6196 8.35213 90.8335 8.38767C90.6426 9.66911 90.4482 10.9543 90.2504 12.2433C88.6647 10.1172 87.0879 7.97828 85.4667 5.88107Z" fill="#FFE761"/>
<path d="M82.392 26.6622C82.4473 26.6446 82.4973 26.6106 82.5368 26.5638C82.5763 26.5169 82.6039 26.459 82.6167 26.396C84.5437 25.4541 86.461 24.484 88.3572 23.4659C88.1427 24.6397 87.9293 25.8413 87.7155 27.0627C85.716 28.3303 83.6748 29.5057 81.5917 30.5889C81.8697 29.2797 82.1364 27.9708 82.392 26.6622Z" fill="#FFE761"/>
<path d="M82.6813 25.2421C82.9063 24.0505 83.1051 22.8485 83.3141 21.655C85.3117 20.6193 87.2854 19.53 89.2352 18.3872C89.0082 19.7002 88.7885 21.0182 88.55 22.3277C88.4872 22.3281 88.4293 22.3006 88.3601 22.337C86.4844 23.3489 84.5864 24.3046 82.6813 25.2421Z" fill="#FFE761"/>
<path d="M81.3561 31.7374C81.4246 31.7404 81.4913 31.7681 81.5678 31.7302C83.581 30.6949 85.5476 29.5617 87.4848 28.3574C87.2869 29.4637 87.0817 30.5758 86.8691 31.6938C84.7836 33.1396 82.6347 34.4446 80.4319 35.6533C80.7463 34.3487 81.0679 33.0491 81.3561 31.7374Z" fill="#FFE761"/>
<path d="M83.5321 20.4043C83.7561 19.0913 83.9903 17.7801 84.1955 16.4617C84.2558 16.507 84.3258 16.5336 84.3982 16.5388C84.4706 16.5441 84.543 16.5277 84.608 16.4915C86.2878 15.6111 88.0154 14.8511 89.7805 14.2159L89.9234 14.4059C89.7727 15.3299 89.6047 16.247 89.4511 17.1742C89.4247 17.1836 89.4002 17.165 89.3722 17.1825C87.4565 18.3249 85.4971 19.3696 83.5321 20.4043Z" fill="#FFE761"/>
<path d="M84.7443 12.9007C84.7915 12.5948 84.8344 12.2872 84.8788 11.9813L87.3113 10.92L87.9256 11.7398C87.0026 12.1433 86.0791 12.5461 85.1551 12.9485C85.0882 12.978 85.016 12.989 84.9445 12.9807C84.873 12.9724 84.8044 12.945 84.7443 12.9007Z" fill="#1A1A1A"/>
<path d="M84.198 16.4651C84.2499 16.1445 84.3105 15.8274 84.3608 15.5085C85.9226 14.6996 87.524 13.991 89.1572 13.3861C89.3629 13.666 89.5774 13.9394 89.7831 14.2193C88.0179 14.8544 86.2903 15.6145 84.6106 16.4948C84.5455 16.5311 84.4732 16.5474 84.4007 16.5422C84.3283 16.537 84.2584 16.5104 84.198 16.4651Z" fill="#1A1A1A"/>
<path d="M65.2704 38.6148L65.244 38.6241C64.9207 38.7837 64.585 38.9092 64.2411 38.9991C64.3555 38.6044 64.4583 38.2028 64.5683 37.8063C64.6476 37.7751 64.7152 37.747 64.7357 37.7408L65.3231 37.5198L65.8223 37.333C66.0425 37.2555 66.2745 37.165 66.4992 37.0794C66.7055 37.3199 66.9252 37.5426 67.13 37.7847C67.0816 37.8842 67.0033 37.9611 66.909 38.0017C66.3638 38.2083 65.8176 38.4126 65.2704 38.6148Z" fill="#1A1A1A"/>
<path d="M66.3176 77.2618C69.7291 72.6861 72.9608 67.8572 75.2372 62.7169C75.4901 62.1461 76.2964 62.1937 76.5386 62.7434C77.7959 65.5962 79.1546 68.4067 80.636 71.1197C81.5447 72.784 82.4805 74.5735 83.7177 75.959C84.1362 76.4302 84.3222 76.6637 84.479 76.7162C84.6764 76.7858 84.8172 76.559 85.3091 76.103C87.0427 74.4876 88.263 71.2111 89.3717 69.0677C91.1025 65.7212 92.7483 62.3089 94.346 58.8941C97.7481 51.637 101.026 44.2888 104.077 36.8456C104.892 34.8588 106.42 32.2809 106.652 30.0755C106.665 29.7345 106.628 29.3934 106.543 29.0658C106.242 27.4582 105.017 25.8563 104.214 24.5864C100.578 18.8366 96.4975 13.4076 92.389 8.07651C91.6015 13.5956 90.6961 19.0899 89.673 24.5593C88.1946 32.5283 86.8949 41.6315 83.181 48.7625C83.1121 48.888 83.0152 48.9912 82.9 49.0618C82.7847 49.1324 82.6552 49.168 82.5239 49.1652C82.3927 49.1624 82.2645 49.1211 82.1517 49.0456C82.039 48.97 81.9457 48.8628 81.8811 48.7344C80.3086 45.8738 78.5501 43.1478 76.6199 40.5788C75.2328 38.7345 73.7445 36.9895 72.1638 35.3539C72.0145 35.9251 71.8507 36.4895 71.6956 37.0574C68.6454 48.1005 64.1126 58.6852 59.1252 68.8602L58.045 67.601C58.4691 66.7318 58.8802 65.8574 59.2985 64.9848L59.8362 64.7693C59.9243 64.7348 60.0011 64.6711 60.0564 64.5866C60.1118 64.5021 60.1431 64.4007 60.1462 64.2958C60.1493 64.1909 60.1241 64.0874 60.0739 63.999C60.0237 63.9105 59.9508 63.8412 59.8649 63.8001C60.4179 62.63 60.9535 61.4529 61.4877 60.2742L62.0137 60.0552C62.1039 60.0206 62.1824 59.9554 62.2382 59.8686C62.294 59.7818 62.3245 59.6776 62.3255 59.5705C62.3264 59.4633 62.2977 59.3585 62.2434 59.2705C62.189 59.1825 62.1117 59.1156 62.0222 59.0791C62.6248 57.7294 63.2124 56.3746 63.785 55.0145C64.1412 54.8281 64.4983 54.6429 64.8564 54.4587C65.3906 54.1825 64.9497 53.2874 64.4214 53.5605C64.411 53.5718 64.4006 53.5831 64.3772 53.5826C64.8835 52.3568 65.3757 51.1269 65.8538 49.8929C66.1626 49.7482 66.4771 49.6168 66.7845 49.4672C67.3229 49.2057 66.8805 48.309 66.3495 48.569C66.7596 47.4796 67.1814 46.3937 67.5669 45.2924L68.2865 45.015C68.8358 44.7997 68.6227 43.8059 68.0705 44.0211C68.0352 44.0368 68 44.0492 67.9633 44.0632C68.3006 43.0528 68.6312 42.0422 68.9549 41.0315C69.1616 40.975 69.367 40.9069 69.5694 40.8487C69.5943 40.841 69.5976 40.8181 69.6139 40.8004C70.2531 41.3483 71.1604 40.2904 70.5655 39.5301C70.2939 39.18 70.0074 38.846 69.7227 38.4907C69.9543 37.7012 70.1641 36.9064 70.3783 36.1133C70.608 35.2647 70.8667 34.4266 71.0715 33.5792C71.2338 32.9261 71.9142 32.8169 72.3294 33.2241C74.3 35.1816 76.1335 37.3068 77.8138 39.5809L77.8639 39.6394C77.7287 40.1502 77.6135 40.6844 77.474 41.1902C77.2216 42.0925 78.2926 42.559 78.7531 41.9661C78.7732 41.9895 78.7976 42.0179 78.8237 42.0283L78.9238 42.0648C79.016 42.0901 79.1132 42.0804 79.2 42.037C79.2868 41.9936 79.3583 41.9191 79.4034 41.8252C79.8682 42.5041 80.3493 43.1719 80.7891 43.8683C80.7304 43.8868 80.6744 43.9185 80.6143 43.9353C80.0468 44.1059 80.2628 45.0997 80.8274 44.9291C80.9946 44.88 81.1506 44.8011 81.312 44.7454C81.706 45.3851 82.0808 46.0327 82.4527 46.6835C82.9192 45.692 83.3462 44.6703 83.7339 43.6182C83.8547 43.5452 83.984 43.492 84.1049 43.4157C84.1699 43.373 84.2241 43.3123 84.2624 43.2393C84.3006 43.1664 84.3216 43.0837 84.3234 42.999C84.3252 42.9144 84.3078 42.8306 84.2727 42.7557C84.2376 42.6808 84.186 42.6173 84.1229 42.5711C84.5498 41.3174 84.9372 40.0378 85.2852 38.7322C85.4559 38.647 85.6266 38.5586 85.7958 38.4718C86.2534 38.24 85.9895 37.5946 85.5754 37.5665C85.9488 36.07 86.2889 34.5613 86.5955 33.0405C86.8715 32.8541 87.1543 32.6893 87.4289 32.498C87.9248 32.1503 87.4913 31.2505 86.9938 31.5998C86.9496 31.6284 86.9024 31.657 86.8581 31.6889C87.0727 30.5687 87.2779 29.4566 87.4738 28.3524C87.7583 28.1761 88.0455 28.0162 88.3286 27.8349C88.8388 27.5106 88.4038 26.6124 87.8936 26.9367C87.8331 26.9765 87.7683 27.0113 87.7049 27.051C87.9258 25.8446 88.1321 24.6346 88.3466 23.4542C88.4924 23.3768 88.6438 23.3093 88.7896 23.2286C89.2504 22.9804 88.9692 22.315 88.5444 22.3212C88.783 21.0117 89.0027 19.6937 89.2296 18.3807C89.4183 18.2664 89.6094 18.1784 89.7965 18.069C90.2873 17.7754 89.9176 16.9901 89.4419 17.1642C89.5983 16.2403 89.7664 15.3232 89.9141 14.3959L90.1641 14.7308C90.7783 15.5637 91.848 14.391 91.2395 13.5647C90.9096 13.1166 90.5693 12.6798 90.2394 12.2317C90.4363 10.9438 90.6307 9.65857 90.8226 8.37605C90.9407 7.5646 91.0764 6.7535 91.1902 5.94032C91.2018 5.77146 91.2718 5.61445 91.3852 5.50295C91.4986 5.39146 91.6463 5.33436 91.7967 5.34391C91.8144 5.33676 91.8325 5.3311 91.851 5.32697C91.9616 5.30669 92.075 5.31975 92.1797 5.36483C92.2843 5.40992 92.3765 5.4854 92.4467 5.58359C96.7356 11.1317 100.976 16.7806 104.843 22.7089C105.557 23.8081 106.672 25.2386 107.434 26.7326C107.948 27.7489 108.306 28.7948 108.255 29.7947C108.159 31.6453 106.896 33.8691 106.243 35.5213C102.928 43.8385 99.2688 52.0027 95.4742 60.0656C93.6452 63.9828 91.767 67.8695 89.7386 71.6579C88.7019 73.591 87.4778 76.646 85.7619 77.9778C85.0244 78.5519 84.2177 78.4403 83.3918 77.8886C82.5659 77.3368 81.7765 76.4166 80.9695 75.2352C81.245 74.7141 81.4818 74.2414 81.665 73.9203C82.1846 73.0087 80.8981 72.1539 80.377 73.0605C80.35 73.1092 80.32 73.1578 80.2929 73.2064C80.2754 73.2061 80.2729 73.1831 80.2494 73.1924L79.7506 73.2627C79.322 72.509 78.9084 71.7261 78.514 70.9321C78.533 70.9308 78.5535 70.928 78.5739 70.9284C79.1595 70.9091 79.1774 69.8873 78.5904 69.9048C78.4035 69.9109 78.2178 69.935 78.0294 69.9426C77.5861 69.0147 77.1746 68.1039 76.8073 67.2612L77.0599 67.2516C77.6455 67.2291 77.6634 66.2072 77.0778 66.2297L76.3725 66.2564C76.163 65.7648 75.976 65.3228 75.8101 64.9322C75.5706 65.395 75.3484 65.8679 75.0887 66.3172L74.1687 66.3477C73.5831 66.3702 73.5652 67.3921 74.1508 67.3695L74.4619 67.3545C74.0421 68.045 73.6194 68.7354 73.197 69.4094C73.0487 69.6476 72.8918 69.8757 72.7435 70.1106C72.1776 69.9055 71.4522 70.5438 71.833 71.2784L71.9024 71.4062C70.3936 73.7481 68.8414 76.0596 67.2316 78.3273L66.3176 77.2618Z" fill="#1A1A1A"/>
<path d="M82.4573 22.1363C82.7486 21.988 83.0332 21.8051 83.3187 21.6599C83.1098 22.8535 82.9023 24.0454 82.6859 25.2471C82.299 25.4377 81.9205 25.6482 81.5337 25.8356C81.0087 26.0825 81.3978 26.8403 81.8542 26.7774C82.0077 26.7592 82.1613 26.7377 82.3134 26.7179C82.3514 26.7121 82.3565 26.6712 82.3931 26.6637C82.1375 27.9745 81.8707 29.2812 81.5929 30.5838C81.4383 30.6643 81.288 30.7532 81.1321 30.832C80.6773 31.0673 80.9413 31.7126 81.3568 31.7391C81.0686 33.0508 80.7398 34.342 80.4269 35.6483C80.0588 35.8509 79.702 36.0766 79.3281 36.2725C78.7967 36.5521 79.2362 37.4487 79.7631 37.1707C79.8735 37.1122 79.9812 37.0438 80.0916 36.9854C79.7857 38.2163 79.4972 39.4542 79.1638 40.6731C78.8814 40.826 78.6531 41.0815 78.5158 41.3983C78.4886 41.51 78.4983 41.629 78.543 41.7334C78.5877 41.8377 78.6645 41.9203 78.7591 41.9661C78.2929 42.5522 77.2276 42.0924 77.48 41.1902C77.6195 40.6844 77.7347 40.1501 77.8699 39.6393C79.4507 33.7349 80.7284 27.7177 81.7997 21.6437C81.7981 21.7323 81.8164 21.8198 81.8528 21.8983C81.8893 21.9768 81.9428 22.0437 82.0083 22.0928C82.0739 22.1419 82.1494 22.1716 82.2278 22.1792C82.3063 22.1868 82.3852 22.172 82.4573 22.1363Z" fill="#1A1A1A"/>
<path d="M85.4654 5.88113C87.0923 7.98502 88.6693 10.1109 90.2505 12.245C90.5804 12.6931 90.9207 13.1299 91.2506 13.578C91.859 14.4043 90.7893 15.5771 90.1752 14.7441L89.9252 14.4092L89.7823 14.2192C89.5766 13.9394 89.3621 13.6659 89.1565 13.3861C88.7479 12.8363 88.332 12.2945 87.9205 11.7447L87.3062 10.9249C86.6703 10.08 86.0404 9.22869 85.4001 8.38866C85.23 9.58739 85.0545 10.7866 84.8737 11.9862C84.8294 12.2921 84.7865 12.5997 84.7392 12.9056C84.6099 13.7742 84.5012 14.6335 84.3601 15.5084C84.3097 15.8274 84.2492 16.1445 84.1973 16.465C83.9893 17.78 83.7551 19.0912 83.5339 20.4076C83.0261 20.6746 82.5352 20.9812 82.0246 21.2416C81.9811 21.2644 81.9421 21.2969 81.9101 21.3372C81.8781 21.3774 81.8537 21.4246 81.8384 21.4757C82.0183 20.4555 82.1865 19.435 82.3607 18.4081C83.0312 14.3503 83.6498 10.2919 84.2162 6.23308C84.2807 5.76675 84.7541 5.55324 85.1333 5.65777C85.262 5.69147 85.3781 5.76956 85.4654 5.88113Z" fill="#1A1A1A"/>
<path d="M69.7243 38.5053C70.0004 38.8506 70.2941 39.1929 70.5671 39.5447C71.162 40.3051 70.2547 41.363 69.6155 40.815C70.1004 40.6116 69.8959 39.7214 69.3507 39.8612C69.2027 39.8992 69.0588 39.9554 68.9107 39.9934C68.3257 39.2546 67.7378 38.5157 67.1291 37.7961C66.9229 37.5556 66.7061 37.3297 66.4984 37.0908C66.3752 36.9472 66.2401 36.8164 66.1125 36.6744C65.8073 36.3187 65.4843 35.9856 65.1643 35.6492C64.976 36.3756 64.7703 37.095 64.5675 37.8178C64.4575 38.2142 64.3547 38.6158 64.2403 39.0106C63.9591 39.9795 63.6648 40.94 63.3604 41.8986C63.2326 41.9534 63.1006 41.9934 62.9742 42.0499C62.5127 42.2472 62.6121 42.9647 62.9919 43.0298C62.6189 44.1725 62.2574 45.3219 61.8567 46.4558L60.9092 46.8385C60.3585 47.0521 60.5701 48.0474 61.1223 47.8322C61.2134 47.798 61.3045 47.7605 61.3955 47.7262C60.9723 48.9039 60.5327 50.0961 60.0745 51.2731C59.8572 51.354 59.6485 51.4449 59.4283 51.5225C58.8954 51.7167 59.0808 52.6213 59.5904 52.5103C58.9822 54.0294 58.3585 55.5405 57.7194 57.0436L56.7112 57.5662C56.1961 57.8346 56.5943 58.6599 57.0995 58.4667C56.6434 59.5125 56.1742 60.5531 55.7035 61.592L54.5164 62.083C53.9699 62.3082 54.1815 63.3036 54.7295 63.0768C54.8573 63.0253 54.9822 62.9736 55.1086 62.9204C54.9815 63.1968 54.8516 63.4698 54.7216 63.7461L53.6358 62.4802C57.8966 53.2864 61.646 43.7769 64.1012 33.8751C64.2621 33.2204 64.9439 33.1129 65.3577 33.5184C65.8634 34.0177 66.3289 34.5637 66.8108 35.0921C67.8176 36.1879 68.7888 37.3256 69.7243 38.5053Z" fill="#1A1A1A"/>
<path d="M82.4571 22.1364C82.3855 22.1706 82.3075 22.1842 82.2301 22.1761C82.1527 22.168 82.0783 22.1383 82.0136 22.0898C81.949 22.0412 81.8961 21.9754 81.8597 21.8981C81.8233 21.8209 81.8046 21.7346 81.8053 21.6472C81.803 21.587 81.8135 21.5271 81.8358 21.4723C81.8512 21.4211 81.8756 21.374 81.9076 21.3338C81.9396 21.2935 81.9785 21.261 82.022 21.2382C82.5327 20.9778 83.0236 20.6711 83.5314 20.4042C85.5039 19.3614 87.4558 18.3248 89.37 17.184C89.3923 17.1598 89.4225 17.1851 89.4489 17.1757C89.926 17.0033 90.2958 17.7886 89.8036 18.0805C89.6135 18.1931 89.4224 18.2811 89.2367 18.3922C87.2898 19.5405 85.3161 20.6298 83.3156 21.66C83.0286 21.81 82.7484 21.9881 82.4571 22.1364Z" fill="#1A1A1A"/>
<path d="M82.3917 26.6621C82.3593 26.6746 82.3486 26.7088 82.312 26.7163C82.1599 26.7361 82.0063 26.7576 81.8528 26.7758C81.3935 26.8354 81.0073 26.0809 81.5323 25.834C81.9191 25.6466 82.2976 25.4361 82.6845 25.2455C84.5896 24.308 86.4905 23.3556 88.3676 22.3453C88.4367 22.309 88.4947 22.3364 88.5574 22.3361C88.9822 22.33 89.2634 22.9953 88.8026 23.2435C88.6568 23.3242 88.5054 23.3917 88.3597 23.4692C86.4621 24.4856 84.5462 25.4573 82.6192 26.3993C82.6057 26.462 82.5775 26.5195 82.5375 26.5658C82.4974 26.612 82.4471 26.6453 82.3917 26.6621Z" fill="#1A1A1A"/>
<path d="M81.356 31.7374C80.9405 31.7109 80.6765 31.0656 81.1313 30.8304C81.2873 30.7515 81.4375 30.6627 81.5921 30.5821C83.6732 29.4967 85.7145 28.3213 87.7158 27.056C87.7792 27.0163 87.844 26.9815 87.9045 26.9417C88.4147 26.6173 88.8554 27.5222 88.3395 27.8399C88.0579 28.0196 87.7707 28.1794 87.4847 28.3574C85.5476 29.5617 83.581 30.6948 81.5677 31.7302C81.4912 31.7681 81.4157 31.7468 81.356 31.7374Z" fill="#1A1A1A"/>
<path d="M79.7663 37.1774C79.2393 37.4555 78.7999 36.5588 79.3313 36.2792C79.7051 36.0834 80.0619 35.8576 80.4301 35.6551C82.6314 34.448 84.7817 33.1414 86.8672 31.6956C86.9043 31.6553 86.9587 31.6351 87.0029 31.6065C87.5004 31.2573 87.9339 32.1571 87.4379 32.5047C87.1649 32.6944 86.882 32.8593 86.6046 33.0472C84.4902 34.4793 82.325 35.802 80.0947 36.9921C79.9858 37.049 79.8782 37.1174 79.7663 37.1774Z" fill="#1A1A1A"/>
<path d="M78.5182 41.405C78.6554 41.0881 78.8838 40.8326 79.1662 40.6798C79.7135 40.3152 80.444 40.0872 80.8972 39.8569L85.372 37.5836C85.45 37.5441 85.5167 37.5717 85.5867 37.5764C86.0007 37.6046 86.2647 38.2499 85.8071 38.4818C85.6378 38.5686 85.4671 38.657 85.2964 38.7421L82.3284 40.2519L80.8377 41.0108C80.6259 41.1181 79.7946 41.5294 79.5185 41.6419L79.4953 41.7219C79.4814 41.7692 79.4344 41.7879 79.4146 41.8351C79.3695 41.929 79.298 42.0036 79.2112 42.0469C79.1244 42.0903 79.0273 42.1001 78.935 42.0747L78.8349 42.0382C78.8073 42.0294 78.7933 41.9898 78.7644 41.9761C78.6686 41.9308 78.5907 41.8479 78.5454 41.7427C78.5001 41.6376 78.4904 41.5175 78.5182 41.405Z" fill="#1A1A1A"/>
<path d="M84.1331 42.576C84.1962 42.6222 84.2478 42.6858 84.2829 42.7607C84.318 42.8356 84.3355 42.9193 84.3337 43.004C84.3319 43.0886 84.3108 43.1713 84.2726 43.2443C84.2343 43.3172 84.1801 43.3779 84.1151 43.4207C83.9942 43.497 83.8649 43.5501 83.7441 43.6231C82.9698 44.0851 82.1572 44.461 81.3179 44.7453C81.1565 44.8011 81.0005 44.8799 80.8334 44.929C80.2687 45.0997 80.0527 44.1058 80.6202 43.9353C80.6804 43.9184 80.7363 43.8868 80.795 43.8683C81.8014 43.5518 82.7694 43.0976 83.6773 42.5159C83.7486 42.4682 83.8319 42.4483 83.9143 42.4591C83.9966 42.47 84.0736 42.5111 84.1331 42.576Z" fill="#1A1A1A"/>
<path d="M63.1965 43.0373C63.1171 43.0718 63.0637 43.0362 62.9997 43.0251C62.6243 42.9551 62.5262 42.2491 62.9819 42.0451C63.1083 41.9886 63.2403 41.9486 63.3682 41.8938C63.5665 41.8109 63.7661 41.7428 63.9644 41.6631C65.5864 41.0015 67.2398 40.4419 68.9171 39.987C69.0651 39.9489 69.209 39.8928 69.357 39.8548C69.9022 39.715 70.1053 40.6035 69.6219 40.8086C69.6055 40.8263 69.5936 40.8392 69.5773 40.8569C69.3707 40.9101 69.1667 40.9798 68.9629 41.0397C67.0798 41.5497 65.227 42.1915 63.4152 42.9613C63.3389 42.986 63.2656 43.0075 63.1965 43.0373Z" fill="#1A1A1A"/>
<path d="M61.1219 47.819C60.5696 48.0342 60.3566 47.0371 60.9087 46.8252L61.8562 46.4425L61.915 46.4207L67.9586 44.0579C67.9953 44.0439 68.0306 44.0315 68.0658 44.0158C68.6181 43.8006 68.8326 44.7961 68.2819 45.0096L67.5534 45.2934C65.4972 46.0982 63.4425 46.9025 61.3893 47.7063C61.3084 47.7457 61.2129 47.7847 61.1219 47.819Z" fill="#1A1A1A"/>
<path d="M59.591 52.5087C59.0813 52.6198 58.8959 51.7152 59.4289 51.5209C59.649 51.4433 59.8577 51.3524 60.075 51.2715C62.1997 50.4763 64.2935 49.5985 66.3428 48.5884C66.8767 48.3318 67.3148 49.2235 66.7778 49.4866C66.4704 49.6362 66.1574 49.7661 65.8471 49.9123C63.8074 50.8766 61.7441 51.7568 59.6389 52.5212C59.6171 52.5158 59.6029 52.4958 59.591 52.5087Z" fill="#1A1A1A"/>
</svg>
