<svg width="328" height="175" viewBox="0 0 328 175" fill="none" xmlns="http://www.w3.org/2000/svg">
<rect width="328" height="175" rx="15" fill="#BCE7F0"/>
<mask id="mask0_553_11731" style="mask-type:alpha" maskUnits="userSpaceOnUse" x="0" y="0" width="328" height="175">
<rect width="328" height="175" rx="15" fill="#BCE7F0"/>
</mask>
<g mask="url(#mask0_553_11731)">
<path d="M225.086 33.1923C225.013 33.1444 224.955 33.0734 224.918 32.9882C218.749 19.2602 208.782 7.07864 198.28 -2.69727C198.427 -1.53724 223.596 25.6326 225.284 35.3534C225.28 34.8955 225.269 34.4237 225.256 33.9473C225.206 33.8995 225.165 33.8402 225.138 33.7735C225.11 33.7067 225.095 33.6339 225.094 33.5602C225.101 33.438 225.089 33.3154 225.086 33.1923Z" fill="#EA90A6"/>
<path d="M221.778 18.2778C222.872 21.5728 223.887 24.9193 224.786 28.3003C224.057 20.1116 222.151 11.9197 219.895 4.17415L213.705 0.00488281C217.296 5.45808 219.693 12.0031 221.778 18.2778Z" fill="#EA90A6"/>
<path d="M220.808 4.11226C220.716 4.1771 220.764 4.19378 220.808 4.11226V4.11226Z" fill="#EA90A6"/>
<path d="M220.933 4.04526C220.947 4.09911 220.964 4.15159 220.985 4.20218L221.6 3.80972C221.46 3.86013 221.32 3.91693 221.18 3.95935C221.096 3.98284 221.014 4.01152 220.933 4.04526Z" fill="#EA90A6"/>
<path d="M220.354 3.1346L224.873 0.609244C225.199 0.428672 225.656 0.25588 225.967 0.00576128L219.771 -5.25382L212.664 -2.0411L220.354 3.1346Z" fill="#EA90A6"/>
<path d="M211.085 -2.42919C211.105 -2.46978 211.13 -2.50737 211.158 -2.54106C211.222 -2.63071 211.312 -2.69287 211.412 -2.71709L219.214 -6.24892C217.125 -14.4133 214.331 -23.0942 209.689 -29.8382C209.668 -29.8791 209.652 -29.9236 209.643 -29.9699C209.638 -29.9832 209.633 -29.9968 209.629 -30.0107C209.606 -30.115 209.609 -30.2246 209.637 -30.3273C209.666 -30.43 209.719 -30.5218 209.791 -30.5926C209.847 -30.6517 209.914 -30.695 209.987 -30.7186L217.421 -33.3175C215.318 -42.3156 212.193 -51.2192 208.3 -59.6295L204.513 -59.3923C206.237 -52.5313 207.843 -45.453 208.151 -38.3607C208.155 -38.2351 208.123 -38.1115 208.06 -38.0073C207.998 -37.9031 207.908 -37.8236 207.803 -37.7799L198.982 -33.3034C203.95 -26.567 207.881 -18.1639 209.246 -9.55535C209.253 -9.45407 209.236 -9.35257 209.195 -9.26172C209.155 -9.17087 209.093 -9.0941 209.017 -9.03964L206.557 -7.4841C205.742 -6.67868 204.468 -5.96304 203.159 -5.33487L199.522 -3.03453C208.708 5.60965 217.47 16.116 223.583 27.8485C222.842 25.1283 222.036 22.4334 221.167 19.7638C218.745 12.2898 215.935 4.30185 211.169 -1.71367C211.155 -1.73203 211.152 -1.75261 211.139 -1.77106C211.109 -1.81307 211.085 -1.86022 211.068 -1.91076C211.034 -1.9923 211.017 -2.08205 211.02 -2.17233C211.023 -2.2626 211.045 -2.35074 211.085 -2.42919Z" fill="#EA90A6"/>
<path d="M224.917 32.9884C224.954 33.0737 225.013 33.1447 225.086 33.1926C225.042 31.5647 224.933 29.933 224.786 28.3005C223.888 24.9195 222.873 21.5746 221.778 18.2779C219.694 12.0016 217.297 5.45821 213.706 0.00500897L211.279 -1.62571C211.226 -1.66287 211.179 -1.71039 211.141 -1.76603C211.153 -1.74758 211.157 -1.727 211.17 -1.70864C215.936 4.30688 218.747 12.2948 221.168 19.7689C222.033 22.4366 222.838 25.1315 223.585 27.8536C217.471 16.1162 208.709 5.60989 199.523 -3.0343L203.16 -5.33464L206.558 -7.48388L209.018 -9.03941C209.094 -9.09387 209.156 -9.17064 209.196 -9.26148C209.237 -9.35233 209.254 -9.45383 209.247 -9.55511C207.882 -18.1589 203.951 -26.5684 198.983 -33.3032L207.804 -37.7765C207.909 -37.8201 207.999 -37.8997 208.061 -38.0039C208.124 -38.108 208.156 -38.2316 208.153 -38.3573C207.844 -45.4495 206.238 -52.5278 204.514 -59.3889L203.463 -59.3231C204.015 -57.0288 204.545 -54.7283 205.034 -52.4188C205.67 -49.4234 206.247 -46.4082 206.655 -43.3602C206.813 -42.1896 206.78 -40.8533 207.046 -39.7087C207.097 -39.4797 207.071 -38.8182 207.199 -38.7124C207.07 -38.6515 206.92 -38.6004 206.842 -38.5539C205.381 -37.7321 203.886 -36.9738 202.384 -36.2326C200.923 -35.5116 199.455 -34.8063 198.005 -34.0716C197.738 -33.9364 197.504 -33.5165 197.74 -33.2045C202.127 -27.3927 205.734 -20.2331 207.539 -12.8966C207.703 -12.231 208.464 -10.2765 208.326 -9.92666C208.247 -9.72954 207.635 -9.49259 207.468 -9.38443L203.976 -7.17645L198.34 -3.61054C198.275 -3.56136 198.221 -3.49616 198.181 -3.41988C198.142 -3.3436 198.118 -3.25823 198.112 -3.17023C198.107 -3.08224 198.119 -2.9939 198.148 -2.91191C198.177 -2.82993 198.222 -2.75645 198.28 -2.69701C208.782 7.0789 218.748 19.2605 224.917 32.9884Z" fill="#1A1A1A"/>
<path d="M226.588 0.530912L225.968 0.00433638C225.657 0.254455 225.2 0.42565 224.874 0.60782L220.355 3.13318L220.564 3.28023C221.13 3.66123 220.664 4.69468 220.094 4.31074L219.896 4.17895C222.152 11.9245 224.058 20.1164 224.787 28.3051C224.933 29.9377 225.043 31.5694 225.086 33.1972C225.092 33.3202 225.098 33.4431 225.104 33.5645C225.105 33.6383 225.12 33.711 225.148 33.7778C225.176 33.8446 225.216 33.9038 225.266 33.9516C225.554 34.2379 226.152 34.0707 226.14 33.4996C225.94 24.6852 224.036 15.8973 221.866 7.47206C221.607 6.46641 221.451 5.11468 220.991 4.19847C220.97 4.14788 220.953 4.0954 220.94 4.04155C221.021 4.00657 221.104 3.97676 221.189 3.95228C221.329 3.90985 221.469 3.85306 221.609 3.80265C223.512 3.10688 225.458 1.56588 227.224 0.579159C227.316 0.513582 227.384 0.41253 227.414 0.294992C227.38 0.378703 227.33 0.452786 227.267 0.511771C227.204 0.570756 227.131 0.613136 227.051 0.635782C226.972 0.658428 226.889 0.660766 226.809 0.642614C226.729 0.624462 226.653 0.586288 226.588 0.530912ZM220.809 4.11219C220.765 4.19186 220.717 4.17563 220.809 4.11219V4.11219Z" fill="#1A1A1A"/>
<path d="M225.96 -26.7084L225.035 -27.3584L219.567 -25.0828L219.763 -24.9637C220.35 -24.6097 219.877 -23.5774 219.292 -23.9332L219.146 -24.0217C221.623 -19.0241 223.483 -13.5154 224.859 -8.02599C225.14 -6.89896 225.398 -5.76452 225.631 -4.62269C225.775 -3.91411 225.903 -3.19816 226.022 -2.49126C226.046 -2.34862 226.241 -1.62567 226.361 -1.10301L227.271 -0.331908C227.327 -0.284634 227.373 -0.225493 227.408 -0.157889C226.866 -4.111 226.041 -8.00857 224.942 -11.8128C223.723 -16.0737 222.155 -20.1977 220.256 -24.1312L221.728 -24.744L226.268 -26.6299C226.16 -26.6123 226.051 -26.6403 225.96 -26.7084Z" fill="#1A1A1A"/>
<path d="M227.274 -0.331997L226.364 -1.1031L220.293 -6.25688L220.19 -6.34495C219.664 -6.7925 218.974 -5.93084 219.504 -5.48188L219.77 -5.25509L225.967 0.00449529L226.587 0.531071C226.652 0.584797 226.727 0.621703 226.806 0.639136C226.885 0.656569 226.966 0.6541 227.044 0.631905C227.123 0.60971 227.195 0.56833 227.258 0.510753C227.32 0.453176 227.37 0.380825 227.405 0.298881C227.439 0.229283 227.458 0.15106 227.459 0.0712904C227.46 -0.00847944 227.443 -0.0872837 227.41 -0.157978C227.375 -0.225581 227.329 -0.284722 227.274 -0.331997Z" fill="#1A1A1A"/>
<path d="M211.746 -2.66106C211.697 -2.69584 211.643 -2.71929 211.586 -2.73002C211.529 -2.74075 211.47 -2.73855 211.414 -2.72354C211.314 -2.69932 211.225 -2.63715 211.161 -2.5475C211.132 -2.51375 211.108 -2.47617 211.088 -2.43563C211.052 -2.35559 211.032 -2.26792 211.029 -2.1785C211.027 -2.08908 211.041 -1.99999 211.071 -1.91722C211.088 -1.86668 211.112 -1.81951 211.142 -1.77751C211.18 -1.72187 211.227 -1.67435 211.28 -1.63719L213.702 0.00506394L219.892 4.17433L220.089 4.30611C220.66 4.69005 221.126 3.6566 220.56 3.2756L220.35 3.12855L212.661 -2.04883L211.746 -2.66106Z" fill="#1A1A1A"/>
<path d="M50.8963 7.94092C50.447 8.62412 50.1389 9.19185 50.1646 9.36506C50.1988 9.60562 51.2686 14.6815 52.7214 20.4478C52.4547 18.6837 52.1894 16.9244 51.9255 15.1698C51.5603 12.7642 51.2173 10.3546 50.8963 7.94092Z" fill="white"/>
<path d="M46.9969 7.90221C44.6946 10.3223 42.3952 12.744 40.0986 15.1672C43.4066 12.2805 47.0461 8.34725 50.3905 4.43328C50.3905 4.40442 50.3905 4.37314 50.3905 4.34668L46.9969 7.90221Z" fill="white"/>
<path d="M38.4796 14.4817C41.6934 11.0929 44.9107 7.70821 48.1317 4.32749C52.6821 -0.456509 57.2346 -5.2381 61.7893 -10.0173L62.6986 -10.9795C62.8762 -11.6243 63.0452 -12.269 63.2228 -12.9041L45.9064 4.54881L35.4048 15.1336C34.8614 15.6652 33.7915 17.1207 32.7217 18.1503C35.208 18.9658 36.4511 16.6203 38.4796 14.4817Z" fill="white"/>
<path d="M78.3548 -28.4995C79.1464 -31.1313 78.971 -33.5995 78.5473 -36.1687C78.4981 -36.022 78.4403 -35.8656 78.4018 -35.7333C77.7599 -33.5682 77.0945 -31.432 76.4183 -29.291C74.4926 -23.1879 72.5049 -17.1089 70.5064 -11.0346C67.9973 -3.42001 65.4675 4.18259 62.917 11.7732C63.6423 11.2175 64.3741 10.6666 65.1037 10.1157C67.9566 2.09691 70.7703 -5.93871 73.5448 -13.9912C75.1945 -18.8024 76.8848 -23.6137 78.3548 -28.4995Z" fill="white"/>
<path d="M53.3828 5.18384C53.8257 6.0234 54.2023 6.86778 54.4526 7.3032C55.2807 8.74658 56.0788 10.2236 56.8812 11.6911C56.9496 11.4024 57.0267 11.1137 57.0951 10.825C56.3334 9.34558 55.5696 7.86612 54.8164 6.38185C54.504 5.77322 53.9755 5.42921 53.3828 5.18384Z" fill="white"/>
<path d="M58.7061 4.27222C59.7046 0.291694 60.7352 -3.676 61.7979 -7.63086L61.126 -6.92601L58.7061 4.27222Z" fill="white"/>
<path d="M81.1188 -32.19C81.0332 -34.9974 80.4277 -37.0711 79.7023 -38.5674C80.3442 -35.3823 81.0139 -32.0914 80.1302 -28.9448C78.7822 -24.2082 77.1176 -19.5629 75.5299 -14.932C72.8617 -7.12815 70.1251 0.646866 67.3691 8.40263C67.9982 7.89985 68.9568 7.02179 69.9239 6.42038L68.8541 6.31454C68.8541 6.31454 81.3413 -24.7085 81.1188 -32.19Z" fill="white"/>
<path d="M71.9146 14.549C70.8448 17.2649 69.3149 19.8293 67.9669 22.3721C65.3501 27.3084 62.6648 32.2015 59.9495 37.0705C59.9046 37.1431 59.8506 37.2079 59.7891 37.263C63.8117 35.0979 73.7184 13.5819 73.6071 11.9533C73.4852 10.1851 72.4303 6.66089 72.4303 6.66089C72.6207 9.32393 72.886 12.0832 71.9146 14.549Z" fill="white"/>
<path d="M66.5568 11.0923C64.9421 12.2967 63.3366 13.5196 61.7404 14.7609C61.2012 15.1794 60.3667 14.4746 60.6021 13.777C63.9143 3.9347 67.188 -5.92439 70.4232 -15.8003C72.2697 -21.4415 74.1099 -27.0876 75.8666 -32.7648C76.4015 -34.4945 76.9471 -36.2266 77.4178 -37.9803C76.4849 -37.184 75.0834 -36.4358 74.3816 -35.8465C72.2312 -34.0471 70.1129 -32.1971 67.9968 -30.3472C63.6875 -26.5824 59.4081 -22.7767 55.041 -19.1008C53.6631 -17.9389 49.5571 -13.3273 47.5522 -13.7531C45.3504 -14.2222 47.6998 -19.6132 48.0743 -20.8738C49.9037 -27.0443 51.9257 -33.1425 53.8706 -39.2649C54.7265 -41.9881 55.5952 -44.7136 56.3848 -47.4633C56.6415 -48.3558 57.3583 -50.1095 57.4546 -51.3123C57.1836 -51.3273 56.912 -51.312 56.6437 -51.2666C55.7643 -51.0525 54.8699 -50.9033 53.9883 -50.6964C51.5384 -50.1167 49.1034 -49.4407 46.6813 -48.7334C44.0923 -47.9757 41.5119 -47.1746 38.9592 -46.2773C37.3502 -45.7144 34.9259 -45.2501 33.5779 -44.0641C31.4917 -42.2358 31.7485 -35.4784 31.4596 -32.7264C30.6722 -25.2705 30.0489 -17.7946 29.5896 -10.2986C29.1039 -2.36004 28.6866 5.85279 30.0475 13.712C30.24 14.8378 30.5845 15.8939 30.8349 16.9909C30.8692 17.1169 30.8801 17.2496 30.867 17.3806C31.5281 17.027 32.2877 15.9372 32.7927 15.42C43.2814 4.8737 53.7601 -5.68462 64.2288 -16.255C64.7745 -16.8035 65.7694 -16.2814 65.5233 -15.4058C62.7824 -5.65335 60.1741 4.16645 57.9018 14.0704C57.7328 14.8066 56.832 14.9052 56.4875 14.2773C55.6616 12.7505 54.8249 11.227 53.9776 9.70662C53.3678 8.61687 52.7559 7.52712 52.1182 6.45901C52.1182 6.44218 52.0862 6.4085 52.0755 6.39166C52.2894 7.6883 52.6018 9.11965 52.7174 9.96403C53.2237 13.5292 53.7687 17.0847 54.3521 20.6306C54.8506 23.6689 55.362 26.7072 55.9654 29.7191C56.1794 30.7752 56.5474 31.8842 56.6779 32.945C57.3904 31.4415 58.9117 29.6614 59.5836 28.4585C61.1156 25.7161 62.6005 22.94 64.0769 20.1519C65.5191 17.4095 66.9398 14.6534 68.3392 11.8837C68.5403 11.4844 69.0303 10.1445 69.5524 8.9272C68.5381 9.62483 67.5432 10.3537 66.5568 11.0923ZM33.4688 -34.1337C33.6164 -34.7976 34.5258 -34.5137 34.3782 -33.8522C34.1224 -32.7092 33.9528 -31.5439 33.8711 -30.3688C33.824 -29.6929 32.8804 -29.6904 32.9275 -30.3688C33.0131 -31.6387 33.1942 -32.8981 33.4688 -34.1337ZM31.8405 -3.98625C31.8405 -4.66945 32.7798 -4.66704 32.782 -3.98625C32.788 -2.95559 32.6903 -1.92747 32.491 -0.921467C32.3605 -0.255108 31.4511 -0.538971 31.5816 -1.20293C31.7596 -2.117 31.8465 -3.05054 31.8405 -3.98625ZM31.2243 5.92978C31.046 5.04762 31.0688 4.12911 31.2906 3.25952C31.4575 2.60519 32.3605 2.88425 32.2 3.54099C32.02 4.22504 31.9971 4.94925 32.1336 5.64592C32.2663 6.31227 31.3569 6.59614 31.2243 5.92978ZM31.8833 12.0882C31.7827 11.4026 31.68 10.717 31.5795 10.0314C31.4789 9.34578 32.3904 9.06913 32.4888 9.74992C32.5873 10.4307 32.6921 11.1211 32.7927 11.8067C32.8932 12.4923 31.986 12.7594 31.8876 12.0882H31.8833ZM32.8868 -23.3516L33.0088 -26.2576C33.0387 -26.9384 33.9802 -26.9408 33.9524 -26.2576C33.9124 -25.2954 33.8711 -24.3267 33.8283 -23.3516C33.8047 -22.6708 32.8611 -22.6708 32.8911 -23.3516H32.8868ZM34.4531 1.66699C34.4531 2.35019 33.5116 2.35019 33.5116 1.66699V-1.41462C33.5116 -2.09782 34.4531 -2.09542 34.4531 -1.41462V1.66699ZM35.9787 8.69385C35.9787 9.37705 35.0351 9.37705 35.0351 8.69385V5.95624C35.0351 5.27304 35.9787 5.27544 35.9787 5.95624V8.69385ZM36.8923 -26.6088C36.8516 -25.9304 35.908 -25.928 35.9487 -26.6088C36.0118 -27.6992 36.1643 -28.7808 36.4044 -29.8396C36.5521 -30.5011 37.4614 -30.2197 37.3117 -29.5581C37.0933 -28.5906 36.9544 -27.6025 36.8966 -26.6064L36.8923 -26.6088ZM72.6677 -31.3888C72.8539 -32.0359 73.7632 -31.7593 73.5771 -31.1074C73.2476 -29.9543 72.9188 -28.802 72.5907 -27.6505C72.4045 -27.0034 71.4952 -27.2824 71.6813 -27.9319C72.0123 -29.0754 72.3425 -30.2269 72.672 -31.3864L72.6677 -31.3888ZM71.508 -24.7397C71.294 -24.0613 71.0801 -23.3813 70.8661 -22.6997C70.6628 -22.0598 69.7535 -22.3364 69.9568 -22.9811C70.16 -23.6258 70.3847 -24.3427 70.5987 -25.0235C70.8083 -25.6586 71.7177 -25.382 71.5123 -24.7372L71.508 -24.7397ZM69.3683 -27.944C69.5823 -28.5814 70.4853 -28.3048 70.2777 -27.6625L69.5074 -25.2569C69.2935 -24.6194 68.3905 -24.896 68.5981 -25.5383L69.3683 -27.944ZM68.5638 -18.7063C68.7649 -19.3462 69.6765 -19.0696 69.4732 -18.4249L68.7671 -16.1756C68.566 -15.5357 67.6545 -15.8123 67.8577 -16.4571L68.5638 -18.7063Z" fill="white"/>
<path d="M31.0107 19.2256C31.1286 19.3064 31.2524 19.3756 31.3809 19.4324C31.261 19.3675 31.1412 19.2977 31.0172 19.2231L31.0107 19.2256Z" fill="white"/>
<path d="M65.929 22.8076C67.3412 20.1614 68.7769 17.5152 70.0607 14.792C70.784 13.2524 70.9872 11.7032 71.0108 10.0986C70.9295 10.2478 70.8374 10.4066 70.769 10.5437C69.3076 13.5219 67.7905 16.4639 66.2585 19.3988C63.6909 24.3015 61.2239 29.4496 58.177 34.001C58.0429 34.1944 57.9001 34.3799 57.749 34.5567L59.02 35.4324C61.3551 31.2466 63.6581 27.0383 65.929 22.8076Z" fill="white"/>
<path d="M66.4928 10.8854C66.1247 11.915 64.627 11.4627 64.995 10.4235L65.102 10.1156C64.3723 10.6664 63.6406 11.2173 62.9152 11.773C65.4657 4.17924 67.9955 -3.42336 70.5047 -11.0348C72.5031 -17.109 74.4909 -23.188 76.4166 -29.2911C77.0927 -31.4321 77.7646 -33.5756 78.4001 -35.7334C78.4386 -35.8657 78.4963 -36.0221 78.5456 -36.1688C78.3573 -37.3091 78.1176 -38.4662 77.9037 -39.6714C77.8805 -39.7933 77.8806 -39.9193 77.9037 -40.0412C77.9269 -40.1631 77.9727 -40.2781 78.0382 -40.3787C78.1036 -40.4793 78.1872 -40.5632 78.2835 -40.625C78.3798 -40.6868 78.4866 -40.725 78.5969 -40.7371C78.5033 -40.7386 78.4099 -40.7273 78.3187 -40.7035C77.5741 -40.5663 76.607 -39.7749 75.9651 -39.2793C72.0559 -36.2482 68.3543 -32.8515 64.6098 -29.5726C60.583 -26.0435 56.5711 -22.4832 52.4372 -19.1129C52.1933 -18.2725 51.9487 -17.433 51.7033 -16.5942C51.3931 -15.5309 49.8974 -15.988 50.2056 -17.0561C50.2548 -17.2221 50.3018 -17.3857 50.3489 -17.5492C49.7605 -17.1956 49.0972 -16.8107 48.5537 -16.409C48.7206 -17.0537 48.8169 -17.8187 48.9603 -18.3335C50.886 -25.2304 53.2054 -31.9903 55.3579 -38.7958C56.325 -41.8485 57.3007 -44.9037 58.1566 -47.9973C58.178 -48.0719 58.2079 -48.1633 58.2293 -48.2379C58.0606 -49.4969 57.8089 -50.74 57.4762 -51.957C57.1916 -53.0347 58.6872 -53.4918 58.9739 -52.4189C58.9743 -52.4237 58.9743 -52.4285 58.9739 -52.4333C58.9608 -52.4793 58.9436 -52.5236 58.9226 -52.5656C58.882 -52.6965 58.8088 -52.8115 58.7117 -52.8968C58.6145 -52.9821 58.4976 -53.0342 58.3748 -53.0468C56.8428 -53.8406 53.1754 -52.5247 51.1556 -51.8295C50.749 -51.6876 50.3874 -51.5673 50.1521 -51.5024C45.188 -50.172 40.1812 -48.7407 35.3883 -46.7729C32.4655 -45.5701 31.5369 -45.024 30.9977 -41.5767C29.9279 -34.7832 29.3908 -27.8526 28.8238 -20.9893C28.4964 -17.0176 28.1819 -13.017 27.9465 -9.01405C27.6277 -3.55326 27.4779 1.91715 27.8203 7.35869C27.9529 9.44678 27.9743 19.0958 30.8436 19.2618C30.8971 19.2618 30.9592 19.2305 31.0169 19.2257C30.91 19.1607 30.818 19.1198 30.7088 19.0477C29.853 18.4896 30.6232 16.9836 31.4898 17.5442C31.8774 17.8013 32.2912 18.0048 32.7223 18.1504C33.7921 17.1208 34.8619 15.6653 35.4011 15.1241L45.9027 4.53929L63.2191 -12.9136C63.0415 -12.2713 62.8724 -11.6266 62.6948 -10.9891L62.7954 -11.0949C63.5229 -11.8599 64.6205 -10.6282 63.8909 -9.86324L61.7919 -7.65727C60.7221 -3.70241 59.6915 0.265278 58.7001 4.2458C58.3534 5.63626 58.0111 7.02913 57.673 8.42439C57.9683 9.01859 58.2614 9.61518 58.5631 10.1998C59.0638 11.162 57.7244 12.0497 57.2258 11.0802L57.0868 10.8108C57.0183 11.0994 56.9413 11.3881 56.8728 11.6768C56.0704 10.2094 55.2723 8.73712 54.4443 7.28893C54.1961 6.85832 53.8195 6.00913 53.3744 5.16956C52.5993 4.89539 51.8057 4.69186 51.0015 4.56094C50.8999 4.54516 50.803 4.50277 50.7186 4.43716C50.6343 4.37156 50.5648 4.28459 50.5158 4.18325L50.3746 4.33241C50.3746 4.35886 50.3746 4.39014 50.3746 4.41901C50.4067 5.25376 50.642 6.19677 50.7298 6.88478C50.7747 7.2336 50.8325 7.5776 50.8796 7.92642C51.1962 10.3321 51.5393 12.7417 51.9087 15.1553C52.1741 16.9067 52.4394 18.666 52.7047 20.4333C53.3466 24.5999 54.027 28.7761 55.0262 32.8247C55.1745 33.5344 55.4308 34.2099 55.7837 34.8214C55.7537 34.2032 56.3122 33.5609 56.9199 33.9794L57.7372 34.5424C57.8883 34.3655 58.0311 34.1801 58.1651 33.9866C61.212 29.4352 63.6855 24.2871 66.2467 19.3845C67.7787 16.4496 69.2957 13.5075 70.7571 10.5293C70.8256 10.3922 70.9176 10.2334 70.9989 10.0843C71.0139 8.97528 70.954 7.84222 70.8684 6.65384C70.7892 5.53281 72.3384 5.54243 72.4175 6.65384C72.4202 6.50112 72.386 6.35044 72.3186 6.21784C72.2511 6.08524 72.153 5.9757 72.0345 5.90088C71.4483 5.62182 70.678 5.92012 69.8948 6.40125C68.9277 7.00266 67.9691 7.88071 67.3401 8.38349C67.0683 9.22546 66.7859 10.0578 66.4928 10.8854ZM64.0685 20.1494C62.6007 22.9376 61.1158 25.7137 59.5752 28.4561C58.9033 29.6589 57.382 31.4391 56.6695 32.9426C56.539 31.8721 56.1688 30.7775 55.957 29.7167C55.3536 26.7048 54.8422 23.6665 54.3437 20.6282C53.7631 17.0871 53.2196 13.5372 52.7133 9.97843C52.5934 9.13405 52.2725 7.70269 52.0714 6.40606C52.082 6.4229 52.1056 6.45658 52.1141 6.47342C52.756 7.54152 53.3637 8.63849 53.9735 9.72102C54.8208 11.235 55.6574 12.7585 56.4834 14.2917C56.8214 14.9196 57.7287 14.821 57.8977 14.0848C60.1786 4.18085 62.7783 -5.64135 65.5192 -15.3914C65.7653 -16.267 64.7703 -16.7891 64.2247 -16.2406C53.7517 -5.68626 43.2744 4.86726 32.7929 15.42C32.2815 15.9348 31.5219 17.0269 30.8672 17.3806C30.8803 17.2496 30.8694 17.1169 30.8351 16.9909C30.5847 15.8939 30.2402 14.8378 30.0477 13.712C28.6868 5.85276 29.1041 -2.36248 29.5898 -10.2987C30.0477 -17.7898 30.671 -25.2657 31.4599 -32.7264C31.7487 -35.4784 31.492 -42.2359 33.5781 -44.0641C34.9326 -45.2501 37.3568 -45.7144 38.9637 -46.2797C41.5163 -47.177 44.0989 -47.9781 46.6858 -48.7359C49.1079 -49.4431 51.5429 -50.1191 53.9928 -50.6989C54.8743 -50.9058 55.7687 -51.0549 56.6481 -51.269C56.9164 -51.3144 57.1881 -51.3297 57.4591 -51.3147C57.3585 -50.0975 56.6417 -48.3558 56.3892 -47.4657C55.589 -44.7137 54.7267 -41.9881 53.8644 -39.2697C51.9259 -33.1426 49.8974 -27.0491 48.068 -20.8786C47.6936 -19.6181 45.3442 -14.2271 47.5459 -13.758C49.5572 -13.3322 53.6633 -17.9438 55.0348 -19.1057C59.4019 -22.7815 63.6812 -26.5872 67.9905 -30.352C70.1067 -32.202 72.225 -34.0519 74.3753 -35.8513C75.0771 -36.4407 76.4786 -37.1888 77.4115 -37.9851C76.9408 -36.2314 76.3952 -34.4993 75.8603 -32.7697C74.1036 -27.0924 72.2635 -21.4464 70.4169 -15.8052C67.186 -5.92762 63.9123 3.93548 60.5958 13.7841C60.3605 14.4818 61.1949 15.1866 61.7341 14.768C63.3275 13.5283 64.9329 12.3055 66.5505 11.0995C67.5369 10.3609 68.5319 9.63202 69.5461 8.93439C69.024 10.1516 68.534 11.4916 68.3329 11.8909C66.9364 14.6542 65.5149 17.407 64.0685 20.1494Z" fill="#1A1A1A"/>
<path d="M77.9006 -39.6714C78.1253 -38.4686 78.3585 -37.3091 78.5425 -36.1688C78.9704 -33.5996 79.1416 -31.1314 78.3499 -28.4996C76.88 -23.6138 75.1896 -18.8025 73.5399 -13.9912C70.7726 -5.93557 67.959 2.10005 65.0989 10.1156L64.9919 10.4235C64.6218 11.4628 66.1195 11.915 66.4897 10.8854C66.7828 10.0579 67.0653 9.22554 67.3584 8.398C70.1143 0.635014 72.851 -7.14 75.5191 -14.9367C77.1068 -19.5747 78.7714 -24.2128 80.1194 -28.9495C81.0117 -32.0768 80.3334 -35.3749 79.6915 -38.56C79.5845 -39.0844 79.4775 -39.6088 79.3834 -40.1285C79.3685 -40.2284 79.3355 -40.3239 79.2866 -40.409C79.2376 -40.4941 79.1737 -40.5671 79.0988 -40.6234C79.0238 -40.6798 78.9394 -40.7183 78.8507 -40.7366C78.7621 -40.7549 78.671 -40.7526 78.5832 -40.7299C78.4744 -40.716 78.3695 -40.6769 78.275 -40.6149C78.1805 -40.5529 78.0985 -40.4694 78.0343 -40.3698C77.9701 -40.2703 77.925 -40.1567 77.902 -40.0364C77.879 -39.9162 77.8785 -39.7919 77.9006 -39.6714Z" fill="#1A1A1A"/>
<path d="M50.3829 4.34678L50.5241 4.19763C50.4635 4.04335 50.4411 3.87351 50.4593 3.70609C50.4774 3.53868 50.5355 3.3799 50.6274 3.24655C50.7193 3.1132 50.8415 3.01025 50.9811 2.94857C51.1207 2.8869 51.2726 2.8688 51.4206 2.89618L51.7073 2.95392C54.8455 -0.345008 57.9837 -3.64233 61.1219 -6.93805L61.7938 -7.6429L63.8928 -9.84887C64.6224 -10.6139 63.5248 -11.8455 62.7973 -11.0806L62.6967 -10.9747L61.7873 -10.0125C57.2355 -5.23486 52.6823 -0.454866 48.1276 4.32753C44.9096 7.70986 41.6922 11.0946 38.4755 14.4817C36.4471 16.6203 35.204 18.9658 32.7241 18.1503C32.2878 18.0053 31.8689 17.8009 31.4767 17.5417C30.6208 16.9812 29.8291 18.4871 30.6957 19.0452C30.8048 19.1174 30.8968 19.1583 31.0038 19.2232C31.1108 19.2882 31.2477 19.3676 31.3675 19.4325C33.9587 20.8759 35.3559 20.171 37.4207 17.9891C38.3108 17.0477 39.2023 16.1087 40.0953 15.1721C42.3933 12.7505 44.6927 10.3288 46.9936 7.90711L50.3829 4.34678Z" fill="#1A1A1A"/>
<path d="M70.8803 6.67785C70.9659 7.86624 71.0258 8.99929 71.0108 10.1083C70.9873 11.7128 70.784 13.2621 70.0608 14.8017C68.777 17.5297 67.3412 20.1735 65.929 22.8173C63.6653 27.0512 61.3637 31.2594 59.0243 35.442L57.7555 34.5567L56.9381 33.9938C56.3304 33.5752 55.772 34.2175 55.8019 34.8358C55.8059 34.971 55.8407 35.1028 55.9028 35.2186C55.965 35.3344 56.0526 35.4304 56.1571 35.4973L58.8916 37.3834C59.0332 37.474 59.1968 37.5112 59.3586 37.4895C59.5203 37.4679 59.6716 37.3885 59.7903 37.2631C59.8518 37.208 59.9059 37.1432 59.9508 37.0706C62.666 32.2016 65.3513 27.3086 67.9682 22.3722C69.3162 19.8295 70.846 17.265 71.9159 14.5491C72.8873 12.0833 72.622 9.31203 72.4315 6.66823C72.3502 5.55683 70.8075 5.54721 70.8803 6.67785Z" fill="#1A1A1A"/>
<path d="M51.7073 2.95394L51.4206 2.89621C51.2726 2.86882 51.1207 2.88692 50.9811 2.9486C50.8415 3.01027 50.7193 3.11323 50.6274 3.24658C50.5356 3.37992 50.4775 3.5387 50.4593 3.70612C50.4411 3.87354 50.4635 4.04337 50.5241 4.19766C50.5731 4.29899 50.6425 4.38596 50.7269 4.45156C50.8113 4.51717 50.9082 4.55956 51.0098 4.57534C51.814 4.70626 52.6075 4.90979 53.3827 5.18396C53.9754 5.42453 54.5039 5.77334 54.8141 6.38678C55.5673 7.87106 56.3312 9.35052 57.0929 10.83L57.232 11.0994C57.7305 12.0617 59.07 11.1908 58.5693 10.219C58.2676 9.63439 57.9745 9.03779 57.6792 8.4436C57.1015 7.28168 56.5238 6.11735 55.8925 4.99632C55.088 3.56257 53.1516 3.24503 51.7073 2.95394Z" fill="#1A1A1A"/>
<path d="M32.1375 5.64586C32.001 4.9492 32.0238 4.22499 32.2038 3.54093C32.3707 2.88419 31.4614 2.60514 31.2945 3.25947C31.0726 4.12906 31.0498 5.04757 31.2281 5.92973C31.3565 6.59609 32.2659 6.31223 32.1375 5.64586Z" fill="#1A1A1A"/>
<path d="M33.5166 -1.41477V1.66926C33.5166 2.35246 34.458 2.35246 34.458 1.66926V-1.41477C34.458 -2.09557 33.5166 -2.09797 33.5166 -1.41477Z" fill="#1A1A1A"/>
<path d="M31.5826 10.0313C31.6832 10.7169 31.7859 11.4025 31.8865 12.0881C31.9871 12.7737 32.8943 12.4754 32.7959 11.8067C32.6974 11.1379 32.5926 10.4354 32.492 9.74983C32.3915 9.06422 31.4842 9.36253 31.5826 10.0313Z" fill="#1A1A1A"/>
<path d="M35.0391 5.95617V8.69859C35.0391 9.38179 35.9827 9.38179 35.9827 8.69859V5.95617C35.9827 5.27297 35.0391 5.27057 35.0391 5.95617Z" fill="#1A1A1A"/>
<path d="M188.351 162.292C187.844 161.614 187.49 161.046 187.506 160.863C187.528 160.611 188.346 155.249 189.522 149.14C189.347 150.996 189.173 152.847 189.001 154.692C188.761 157.223 188.544 159.756 188.351 162.292Z" fill="white"/>
<path d="M184.295 162.619C181.757 160.27 179.223 157.919 176.692 155.566C180.303 158.326 184.32 162.152 188.029 165.979C188.03 166.009 188.032 166.042 188.034 166.069L184.295 162.619Z" fill="white"/>
<path d="M175.046 156.399C178.589 159.689 182.134 162.975 185.684 166.256C190.698 170.9 195.715 175.541 200.734 180.18L201.736 181.114C201.959 181.772 202.172 182.431 202.394 183.079L183.355 166.19L171.808 155.947C171.212 155.433 170.013 153.998 168.84 153.005C171.38 151.973 172.81 154.322 175.046 156.399Z" fill="white"/>
<path d="M219.052 198.196C220.029 200.876 219.99 203.458 219.699 206.163C219.64 206.014 219.57 205.856 219.522 205.721C218.728 203.515 217.911 201.34 217.083 199.162C214.723 192.952 212.3 186.771 209.866 180.597C206.811 172.856 203.735 165.13 200.638 157.418C201.425 157.943 202.219 158.462 203.01 158.982C206.447 167.117 209.844 175.273 213.2 183.45C215.198 188.336 217.237 193.219 219.052 198.196Z" fill="white"/>
<path d="M191.099 164.978C191.511 164.071 191.853 163.165 192.089 162.693C192.866 161.13 193.611 159.534 194.361 157.948C194.449 158.243 194.546 158.538 194.634 158.833C193.927 160.429 193.218 162.025 192.521 163.625C192.231 164.282 191.701 164.679 191.099 164.978Z" fill="white"/>
<path d="M196.693 165.535C197.964 169.604 199.268 173.658 200.605 177.695L199.864 177.011L196.693 165.535Z" fill="white"/>
<path d="M222.144 201.833C222.218 204.761 221.709 206.964 221.041 208.575C221.524 205.212 222.029 201.738 220.926 198.528C219.247 193.698 217.243 188.986 215.321 184.283C212.09 176.357 208.788 168.467 205.468 160.598C206.152 161.075 207.201 161.918 208.242 162.473L207.135 162.662C207.135 162.662 221.939 194.03 222.144 201.833Z" fill="white"/>
<path d="M209.84 153.866C208.568 151.118 206.827 148.562 205.275 146.014C202.264 141.07 199.184 136.175 196.075 131.307C196.024 131.235 195.964 131.171 195.896 131.119C200.209 133.076 211.774 154.739 211.753 156.443C211.729 158.292 210.836 162.037 210.836 162.037C210.879 159.252 210.995 156.36 209.84 153.866Z" fill="white"/>
<path d="M204.465 157.858C202.714 156.724 200.972 155.569 199.238 154.395C198.653 153.999 197.825 154.794 198.111 155.503C202.132 165.502 206.113 175.522 210.056 185.563C212.306 191.298 214.551 197.039 216.71 202.818C217.367 204.579 218.036 206.341 218.628 208.132C217.611 207.372 216.109 206.696 215.344 206.135C213.001 204.42 210.688 202.651 208.378 200.881C203.674 197.281 198.998 193.635 194.239 190.131C192.737 189.023 188.195 184.526 186.133 185.117C183.869 185.767 186.628 191.205 187.091 192.489C189.355 198.777 191.815 204.975 194.196 211.203C195.245 213.974 196.308 216.747 197.29 219.551C197.609 220.461 198.458 222.233 198.628 223.478C198.347 223.513 198.063 223.518 197.781 223.49C196.853 223.332 195.914 223.243 194.984 223.092C192.401 222.669 189.827 222.145 187.265 221.587C184.526 220.989 181.794 220.346 179.085 219.6C177.378 219.133 174.827 218.828 173.355 217.693C171.078 215.944 170.951 208.892 170.49 206.049C169.236 198.347 168.152 190.612 167.237 182.844C166.269 174.618 165.356 166.101 166.314 157.821C166.449 156.635 166.746 155.511 166.943 154.351C166.971 154.217 166.975 154.078 166.953 153.943C167.662 154.262 168.516 155.34 169.072 155.841C180.603 166.045 192.124 176.262 203.635 186.492C204.235 187.023 205.24 186.406 204.933 185.513C201.512 175.565 198.225 165.537 195.283 155.396C195.064 154.643 194.121 154.606 193.799 155.285C193.029 156.935 192.247 158.582 191.453 160.227C190.882 161.406 190.309 162.585 189.707 163.744C189.708 163.762 189.677 163.799 189.667 163.817C189.814 162.452 190.056 160.939 190.127 160.052C190.446 156.304 190.806 152.564 191.207 148.83C191.548 145.631 191.904 142.431 192.356 139.252C192.517 138.137 192.836 136.956 192.91 135.842C193.739 137.355 195.426 139.095 196.195 140.298C197.949 143.039 199.657 145.819 201.356 148.612C203.017 151.36 204.656 154.124 206.274 156.903C206.506 157.304 207.094 158.663 207.709 159.891C206.612 159.24 205.534 158.554 204.465 157.858ZM172.663 207.366C172.855 208.046 173.785 207.683 173.593 207.006C173.26 205.835 173.016 204.635 172.862 203.418C172.774 202.718 171.792 202.785 171.88 203.487C172.043 204.802 172.305 206.1 172.663 207.366ZM169.212 176.109C169.251 176.82 170.229 176.748 170.191 176.04C170.138 174.966 169.976 173.904 169.71 172.871C169.535 172.187 168.605 172.55 168.78 173.231C169.019 174.169 169.163 175.135 169.212 176.109ZM167.992 165.834C167.858 166.765 167.936 167.719 168.217 168.608C168.429 169.277 169.352 168.92 169.147 168.248C168.92 167.55 168.854 166.798 168.955 166.062C169.055 165.359 168.092 165.131 167.992 165.834ZM168.319 159.376C168.255 160.097 168.188 160.818 168.123 161.539C168.058 162.26 169.023 162.481 169.086 161.765C169.149 161.049 169.218 160.323 169.282 159.602C169.347 158.881 168.387 158.67 168.324 159.376L168.319 159.376ZM171.429 196.187L171.725 199.202C171.796 199.909 172.776 199.842 172.707 199.133C172.61 198.134 172.51 197.129 172.409 196.117C172.345 195.411 171.363 195.48 171.433 196.186L171.429 196.187ZM171.601 170.033C171.561 169.322 170.582 169.391 170.621 170.102L170.801 173.309C170.841 174.02 171.82 173.949 171.781 173.24L171.601 170.033ZM172.78 162.607C172.74 161.896 171.758 161.965 171.798 162.676L171.957 165.526C171.997 166.237 172.979 166.165 172.939 165.456L172.78 162.607ZM175.788 199.282C175.706 198.579 174.724 198.646 174.806 199.351C174.935 200.482 175.157 201.596 175.468 202.68C175.66 203.358 176.59 202.998 176.396 202.32C176.112 201.33 175.91 200.311 175.792 199.279L175.788 199.282ZM213.3 201.621C213.532 202.281 214.462 201.926 214.23 201.262C213.82 200.086 213.411 198.911 213.002 197.736C212.771 197.077 211.841 197.434 212.072 198.096C212.483 199.262 212.894 200.436 213.305 201.619L213.3 201.621ZM211.706 194.787C211.444 194.096 211.181 193.404 210.919 192.711C210.67 192.06 209.74 192.415 209.989 193.071C210.238 193.727 210.514 194.456 210.776 195.149C211.031 195.795 211.961 195.44 211.71 194.784L211.706 194.787ZM209.666 198.279C209.925 198.927 210.849 198.572 210.596 197.919L209.654 195.472C209.394 194.825 208.47 195.179 208.724 195.832L209.666 198.279ZM208.29 188.724C208.537 189.375 209.469 189.02 209.22 188.364L208.354 186.075C208.107 185.424 207.175 185.779 207.424 186.435L208.29 188.724Z" fill="white"/>
<path d="M166.996 152.011C167.114 151.919 167.239 151.837 167.369 151.769C167.248 151.845 167.128 151.927 167.003 152.013L166.996 152.011Z" fill="white"/>
<path d="M203.13 145.711C204.754 148.362 206.403 151.01 207.898 153.75C208.74 155.299 209.042 156.896 209.16 158.564C209.067 158.415 208.962 158.257 208.882 158.119C207.188 155.127 205.437 152.177 203.672 149.235C200.714 144.321 197.846 139.145 194.41 134.633C194.259 134.441 194.1 134.259 193.932 134.086L195.204 133.081C197.878 137.265 200.52 141.476 203.13 145.711Z" fill="white"/>
<path d="M204.343 158.039C203.899 156.995 202.367 157.578 202.812 158.632L202.941 158.944C202.149 158.426 201.355 157.907 200.567 157.383C203.672 165.095 206.755 172.818 209.817 180.552C212.257 186.724 214.686 192.902 217.051 199.11C217.882 201.288 218.708 203.468 219.497 205.667C219.545 205.801 219.615 205.96 219.675 206.109C219.546 207.31 219.365 208.532 219.214 209.802C219.197 209.931 219.205 210.062 219.236 210.187C219.268 210.312 219.322 210.428 219.396 210.528C219.47 210.628 219.562 210.709 219.666 210.766C219.77 210.823 219.883 210.855 219.999 210.859C219.902 210.868 219.804 210.863 219.707 210.845C218.924 210.758 217.871 210.007 217.174 209.539C212.926 206.676 208.872 203.418 204.781 200.286C200.381 196.914 195.995 193.508 191.494 190.31C191.19 189.453 190.886 188.598 190.581 187.743C190.195 186.66 188.665 187.247 189.049 188.336C189.11 188.505 189.169 188.672 189.228 188.839C188.594 188.515 187.881 188.164 187.292 187.786C187.504 188.445 187.649 189.233 187.829 189.759C190.242 196.792 193.056 203.654 195.7 210.576C196.887 213.681 198.084 216.787 199.158 219.943C199.184 220.019 199.221 220.112 199.248 220.188C199.147 221.511 198.958 222.823 198.684 224.115C198.452 225.258 200.035 225.622 200.27 224.483C200.271 224.488 200.271 224.493 200.271 224.499C200.26 224.547 200.245 224.595 200.225 224.64C200.191 224.779 200.122 224.904 200.026 225C199.93 225.096 199.811 225.159 199.684 225.182C198.137 226.122 194.242 225.027 192.099 224.455C191.667 224.337 191.284 224.239 191.035 224.189C185.79 223.176 180.495 222.06 175.391 220.37C172.278 219.337 171.279 218.838 170.514 215.291C168.998 208.301 168.028 201.128 167.031 194.028C166.455 189.919 165.891 185.779 165.408 181.63C164.753 175.971 164.273 170.289 164.307 164.6C164.321 162.417 163.771 152.374 166.748 151.986C166.803 151.982 166.87 152.01 166.93 152.011C166.823 152.087 166.729 152.136 166.62 152.219C165.762 152.864 166.653 154.374 167.522 153.726C167.91 153.429 168.329 153.186 168.768 153.003C169.943 153.994 171.142 155.429 171.736 155.952L183.292 166.183L202.347 183.052C202.124 182.397 201.91 181.739 201.687 181.088L201.798 181.191C202.6 181.933 203.67 180.569 202.865 179.827L200.55 177.688C199.202 173.652 197.894 169.6 196.627 165.532C196.184 164.111 195.745 162.687 195.31 161.26C195.582 160.619 195.852 159.976 196.131 159.346C196.595 158.307 195.149 157.483 194.688 158.529L194.559 158.82C194.47 158.525 194.373 158.23 194.285 157.935C193.537 159.522 192.793 161.114 192.018 162.683C191.785 163.15 191.443 164.061 191.03 164.968C190.239 165.312 189.426 165.583 188.596 165.779C188.492 165.803 188.393 165.855 188.309 165.929C188.226 166.004 188.158 166.099 188.113 166.209L187.958 166.064C187.956 166.036 187.954 166.004 187.952 165.974C187.936 165.103 188.125 164.104 188.176 163.381C188.202 163.015 188.242 162.652 188.27 162.286C188.457 159.759 188.671 157.225 188.913 154.686C189.085 152.843 189.257 150.992 189.428 149.133C189.849 144.749 190.31 140.352 191.11 136.064C191.222 135.314 191.449 134.592 191.78 133.929C191.785 134.575 192.404 135.201 193.012 134.72L193.829 134.073C193.997 134.246 194.157 134.429 194.307 134.62C197.748 139.129 200.627 144.302 203.583 149.213C205.351 152.152 207.104 155.101 208.802 158.091C208.881 158.229 208.986 158.387 209.08 158.536C209.161 159.689 209.166 160.873 209.147 162.116C209.131 163.289 210.743 163.163 210.759 162C210.771 162.159 210.745 162.318 210.682 162.461C210.62 162.605 210.524 162.726 210.405 162.813C209.812 163.147 208.993 162.894 208.149 162.452C207.107 161.898 206.057 161.056 205.373 160.58C205.04 159.724 204.697 158.879 204.343 158.039ZM201.271 148.579C199.578 145.787 197.868 143.009 196.103 140.27C195.332 139.069 193.643 137.33 192.813 135.818C192.74 136.942 192.42 138.109 192.263 139.229C191.813 142.408 191.461 145.609 191.122 148.808C190.728 152.537 190.373 156.272 190.057 160.013C189.982 160.901 189.733 162.415 189.6 163.779C189.611 163.761 189.633 163.724 189.641 163.706C190.246 162.546 190.813 161.359 191.384 160.187C192.176 158.548 192.956 156.9 193.725 155.242C194.039 154.564 194.989 154.599 195.209 155.352C198.169 165.489 201.457 175.517 204.887 185.459C205.195 186.352 204.191 186.969 203.59 186.439C192.066 176.238 180.537 166.038 169.004 155.839C168.441 155.341 167.586 154.262 166.884 153.943C166.905 154.078 166.902 154.217 166.873 154.35C166.678 155.511 166.382 156.636 166.248 157.822C165.298 166.103 166.219 174.621 167.195 182.844C168.115 190.606 169.207 198.34 170.47 206.046C170.934 208.888 171.067 215.94 173.346 217.687C174.826 218.82 177.377 219.122 179.082 219.59C181.792 220.333 184.527 220.974 187.264 221.569C189.827 222.124 192.401 222.645 194.985 223.066C195.914 223.215 196.854 223.304 197.782 223.461C198.064 223.488 198.347 223.483 198.628 223.448C198.451 222.188 197.602 220.429 197.287 219.522C196.291 216.717 195.232 213.945 194.174 211.181C191.793 204.949 189.321 198.759 187.051 192.474C186.587 191.19 183.823 185.755 186.086 185.102C188.154 184.509 192.7 189.001 194.196 190.108C198.959 193.607 203.638 197.248 208.346 200.844C210.657 202.611 212.972 204.378 215.316 206.09C216.081 206.651 217.584 207.325 218.602 208.084C218.008 206.294 217.338 204.532 216.679 202.772C214.514 196.995 212.264 191.256 210.009 185.523C206.061 175.485 202.069 165.465 198.034 155.463C197.748 154.755 198.575 153.959 199.161 154.354C200.892 155.525 202.635 156.678 204.39 157.812C205.461 158.507 206.539 159.191 207.636 159.842C207.021 158.614 206.431 157.256 206.198 156.855C204.581 154.084 202.939 151.325 201.271 148.579Z" fill="#1A1A1A"/>
<path d="M219.23 209.856C219.394 208.588 219.569 207.364 219.694 206.164C219.989 203.458 220.024 200.877 219.046 198.196C217.232 193.219 215.192 188.336 213.195 183.45C209.845 175.27 206.449 167.114 203.005 158.982L202.876 158.67C202.43 157.615 203.962 157.034 204.408 158.079C204.761 158.918 205.103 159.764 205.457 160.603C208.777 168.48 212.079 176.37 215.31 184.288C217.233 188.999 219.235 193.703 220.914 198.534C222.025 201.723 221.511 205.205 221.029 208.568C220.948 209.121 220.867 209.675 220.8 210.223C220.79 210.328 220.761 210.43 220.715 210.522C220.669 210.614 220.607 210.695 220.532 210.759C220.458 210.823 220.372 210.869 220.281 210.895C220.19 210.92 220.095 210.925 220.002 210.908C219.888 210.901 219.776 210.868 219.674 210.811C219.572 210.753 219.482 210.672 219.41 210.573C219.337 210.474 219.283 210.36 219.253 210.236C219.222 210.113 219.214 209.983 219.23 209.856Z" fill="#1A1A1A"/>
<path d="M188.025 166.07L188.181 166.215C188.127 166.38 188.113 166.558 188.142 166.731C188.171 166.904 188.24 167.065 188.344 167.197C188.447 167.329 188.58 167.427 188.729 167.481C188.878 167.535 189.037 167.543 189.19 167.503L189.485 167.422C192.943 170.624 196.402 173.825 199.86 177.024L200.6 177.708L202.913 179.849C203.717 180.592 202.647 181.955 201.845 181.212L201.734 181.109L200.731 180.175C195.716 175.538 190.698 170.898 185.679 166.256C182.133 162.973 178.587 159.687 175.042 156.399C172.806 154.323 171.375 151.973 168.842 153.004C168.396 153.188 167.972 153.431 167.579 153.73C166.721 154.376 165.809 152.867 166.679 152.222C166.788 152.139 166.881 152.09 166.989 152.014C167.097 151.939 167.234 151.846 167.355 151.77C169.968 150.077 171.463 150.707 173.739 152.826C174.721 153.74 175.703 154.652 176.687 155.561C179.22 157.912 181.754 160.263 184.29 162.614L188.025 166.07Z" fill="#1A1A1A"/>
<path d="M209.223 162.134C209.243 160.891 209.239 159.707 209.159 158.554C209.041 156.886 208.739 155.288 207.897 153.739C206.402 150.995 204.753 148.349 203.13 145.701C200.527 141.461 197.886 137.251 195.208 133.07L193.939 134.085L193.121 134.731C192.513 135.212 191.894 134.584 191.889 133.939C191.885 133.798 191.914 133.658 191.972 133.533C192.03 133.408 192.115 133.301 192.22 133.224L194.956 131.06C195.098 130.955 195.267 130.904 195.436 130.915C195.606 130.925 195.768 130.997 195.899 131.119C195.966 131.171 196.026 131.235 196.077 131.307C199.187 136.175 202.267 141.069 205.278 146.014C206.829 148.561 208.571 151.118 209.842 153.866C210.997 156.36 210.882 159.264 210.838 162.03C210.818 163.192 209.213 163.316 209.223 162.134Z" fill="#1A1A1A"/>
<path d="M189.485 167.422L189.19 167.503C189.037 167.543 188.878 167.535 188.729 167.481C188.58 167.427 188.447 167.329 188.344 167.197C188.24 167.065 188.171 166.904 188.142 166.731C188.113 166.558 188.127 166.38 188.181 166.215C188.226 166.106 188.293 166.01 188.377 165.936C188.461 165.861 188.56 165.81 188.664 165.786C189.494 165.59 190.308 165.32 191.099 164.978C191.701 164.684 192.231 164.282 192.518 163.62C193.216 162.02 193.924 160.424 194.631 158.828L194.76 158.538C195.223 157.499 196.668 158.307 196.203 159.355C195.923 159.986 195.653 160.629 195.38 161.269C194.847 162.521 194.313 163.775 193.722 164.988C192.968 166.54 190.971 167.013 189.485 167.422Z" fill="#1A1A1A"/>
<path d="M169.71 172.871C169.976 173.904 170.138 174.966 170.192 176.039C170.231 176.748 169.247 176.82 169.212 176.109C169.164 175.135 169.019 174.169 168.78 173.231C168.606 172.55 169.536 172.187 169.71 172.871Z" fill="#1A1A1A"/>
<path d="M168.96 166.062C168.859 166.797 168.924 167.549 169.152 168.248C169.364 168.919 168.434 169.276 168.222 168.608C167.94 167.719 167.863 166.765 167.997 165.834C168.092 165.131 169.055 165.359 168.96 166.062Z" fill="#1A1A1A"/>
<path d="M170.806 173.309L170.626 170.099C170.587 169.388 171.566 169.319 171.606 170.03L171.786 173.24C171.826 173.948 170.846 174.02 170.806 173.309Z" fill="#1A1A1A"/>
<path d="M168.129 161.539C168.194 160.818 168.26 160.096 168.325 159.375C168.39 158.654 169.352 158.898 169.288 159.601C169.225 160.305 169.156 161.043 169.092 161.764C169.027 162.485 168.065 162.242 168.129 161.539Z" fill="#1A1A1A"/>
<path d="M171.962 165.525L171.802 162.671C171.763 161.96 172.745 161.89 172.785 162.601L172.944 165.456C172.984 166.167 172.002 166.239 171.962 165.525Z" fill="#1A1A1A"/>
<path d="M331.217 68.2905C331.917 67.1217 332.621 65.9542 333.34 64.8C333.346 64.7784 333.317 64.7669 333.315 64.7431L332.661 54.8391C331.715 56.3202 330.785 57.8125 329.868 59.3159C329.943 59.3788 329.996 59.4699 330.016 59.5726C330.407 62.4709 330.807 65.3769 331.217 68.2905Z" fill="#FFE761"/>
<path d="M338.723 31.0941C335.175 30.3024 331.58 29.8068 327.968 29.6113C327.809 29.6096 327.653 29.5615 327.516 29.4716C327.379 29.3818 327.265 29.2533 327.186 29.0989C327.106 28.9445 327.064 28.7695 327.063 28.5911C327.062 28.4127 327.102 28.237 327.18 28.0815C331.716 19.4884 339.517 12.6284 346.155 6.18737C350.705 1.77233 355.345 -2.52168 360.075 -6.69467C352.648 -8.46164 345.149 -10.1367 337.614 -11.0938C335.949 -11.305 333.73 -11.8227 332.036 -11.2409C324.514 -0.0589181 303.519 33.3587 300.112 42.9049C300.255 43.0552 300.573 43.1422 301.271 43.3671C303.299 44.0275 305.531 44.0928 307.629 44.1992C311.05 44.3728 314.49 44.3432 317.911 44.1684C318.57 44.1346 319.087 45.0658 318.698 45.7009C315.193 51.4185 312.544 58.0792 310.233 64.8273L322.35 68.4776C329.008 56.5736 336.307 44.9818 344.917 34.9032L338.723 31.0941ZM317.117 20.3651C313.661 25.8342 310.535 31.5577 307.759 37.497C307.224 38.6574 305.662 37.6234 306.196 36.4657C308.972 30.5264 312.098 24.8029 315.555 19.3338C316.227 18.2787 317.791 19.2958 317.117 20.3651ZM319.548 17.1472L319.329 17.0811C318.205 16.7427 318.673 14.7807 319.796 15.1191L320.016 15.1852C321.139 15.5236 320.67 17.4794 319.549 17.1418L319.548 17.1472Z" fill="#FFE761"/>
<path d="M329.046 60.6399C328.25 61.9655 327.456 63.2918 326.679 64.6348C326.762 64.701 326.82 64.7992 326.843 64.9108L327.607 70.0613L329.755 70.7083C329.939 70.3919 330.12 70.0775 330.305 69.7645L329.046 60.6399Z" fill="#FFE761"/>
<path d="M305.191 47.229C304.862 47.9374 304.557 48.6557 304.28 49.3916C304.826 49.4223 305.384 49.4335 305.961 49.3955L305.191 47.229Z" fill="#FFE761"/>
<path d="M299.634 44.8899C299.317 47.3039 300.468 48.5541 302.296 49.0813C302.642 48.0892 303.061 47.1312 303.549 46.2175C301.974 45.9523 300.602 45.5329 299.634 44.8899Z" fill="#FFE761"/>
<path d="M313.123 52.9411L313.183 52.9912C313.317 52.6773 313.44 52.357 313.577 52.0411C313.964 51.144 314.364 50.2451 314.77 49.3334L314.382 48.4788C314.133 49.3506 313.699 50.8899 313.123 52.9411Z" fill="#FFE761"/>
<path d="M309.981 48.855C309.675 48.1033 309.37 47.3524 309.032 46.6171C308.053 46.6129 307.075 46.5794 306.114 46.5109L307.105 49.3015C308.091 49.1976 309.064 49.0404 309.981 48.855Z" fill="#FFE761"/>
<path d="M316.272 46.3151C315.796 46.3517 315.271 46.388 314.697 46.4214L315.389 47.9834C315.662 47.4121 315.977 46.8709 316.272 46.3151Z" fill="#FFE761"/>
<path d="M314.081 47.813L313.485 46.4978C312.477 46.5543 311.379 46.5982 310.246 46.6142C310.537 47.2825 310.82 47.9486 311.093 48.6119C312.416 48.3075 313.484 47.999 314.081 47.813Z" fill="#FFE761"/>
<path d="M325.896 66.0022C325.32 67.0107 324.738 68.0117 324.168 69.0251L326.446 69.7113L325.896 66.0022Z" fill="#FFE761"/>
<path d="M310.163 64.8286C312.477 58.0928 315.134 51.423 318.642 45.7078C319.032 45.073 318.516 44.1413 317.857 44.1746C314.436 44.3469 310.996 44.3737 307.575 44.1975C305.477 44.0896 303.246 44.0225 301.218 43.3605C300.53 43.1381 300.201 43.0533 300.06 42.8974C299.879 42.7033 300.01 42.403 300.152 41.551C300.66 38.5433 303.031 35.1748 304.401 32.6019C306.539 28.585 308.79 24.6309 311.071 20.7325C315.914 12.4396 320.916 4.24105 326.14 -3.74215C327.534 -5.87489 329.068 -9.19998 331.008 -10.7666C331.322 -10.9811 331.665 -11.1366 332.023 -11.2271C333.712 -11.8091 335.937 -11.2883 337.601 -11.0758C345.14 -10.1115 352.637 -8.43057 360.058 -6.6593C355.322 -2.49431 350.679 1.79635 346.127 6.2127C339.489 12.6327 331.679 19.5033 327.136 28.0933C327.058 28.2488 327.018 28.4244 327.019 28.6028C327.019 28.7813 327.062 28.9563 327.141 29.1108C327.22 29.2653 327.334 29.3938 327.471 29.4838C327.608 29.5737 327.764 29.622 327.922 29.6238C331.535 29.8221 335.129 30.3205 338.676 31.1149C341.223 31.6869 343.736 32.4374 346.2 33.3619C345.75 33.8737 345.314 34.3987 344.87 34.9154C336.256 45.0036 328.941 56.5881 322.277 68.474L324.094 69.0229C324.665 68.0099 325.247 67.0093 325.824 66.0012L325.713 65.2354C325.694 65.1103 325.709 64.9816 325.756 64.8664C325.804 64.7511 325.881 64.6546 325.978 64.5895C326.075 64.5245 326.187 64.4939 326.299 64.5019C326.412 64.5099 326.52 64.5561 326.609 64.6343C327.387 63.2919 328.182 61.9661 328.98 60.6411L328.878 59.887C328.858 59.7595 328.874 59.628 328.923 59.5108C328.972 59.3935 329.052 59.2963 329.152 59.2326C329.253 59.1688 329.368 59.1417 329.483 59.1548C329.597 59.168 329.706 59.2208 329.792 59.3061C330.711 57.7997 331.643 56.308 332.588 54.8312C332.556 54.2983 332.521 53.765 332.485 53.2311C332.433 52.4338 333.534 52.4351 333.585 53.2235C333.581 53.2425 333.576 53.2614 333.59 53.2889C334.448 51.9696 335.319 50.6646 336.201 49.3739C336.157 48.9218 336.096 48.4707 336.058 48.0174C335.989 47.2238 337.092 47.2258 337.158 48.0098C337.943 46.8846 338.719 45.7476 339.531 44.6447L339.371 43.6261C339.253 42.8466 340.313 42.519 340.433 43.302C340.439 43.3531 340.448 43.4023 340.456 43.4542C341.21 42.4618 341.968 41.4774 342.731 40.501C342.663 40.222 342.607 39.9378 342.544 39.6629C342.536 39.6287 342.556 39.6114 342.563 39.5816C341.674 39.1415 342.139 37.4431 343.203 37.7063C343.691 37.8248 344.173 37.9704 344.674 38.1014C345.282 37.364 345.907 36.6495 346.529 35.9308C347.194 35.1612 347.831 34.3631 348.509 33.6238C349.029 33.0487 348.734 32.1752 348.108 31.9192C345.114 30.719 342.041 29.78 338.918 29.1106L338.833 29.0851C338.431 29.5448 337.996 29.9942 337.601 30.456C336.899 31.2841 335.834 30.2824 336.123 29.3877C336.089 29.3775 336.048 29.3651 336.023 29.3401L335.93 29.2424C335.853 29.1474 335.805 29.0261 335.795 28.8974C335.785 28.7688 335.813 28.6401 335.876 28.5314C334.965 28.3753 334.055 28.1934 333.142 28.0775C333.159 28.1581 333.162 28.2432 333.181 28.3246C333.352 29.0997 332.29 29.4239 332.121 28.6522C332.069 28.4245 332.052 28.1928 332.011 27.9681C331.178 27.8734 330.349 27.8061 329.519 27.7441C330.18 26.6092 330.892 25.5034 331.656 24.4268C331.654 24.2403 331.629 24.0554 331.63 23.8669C331.632 23.7645 331.657 23.6645 331.704 23.5763C331.75 23.4882 331.816 23.4148 331.894 23.3631C331.973 23.3115 332.062 23.2833 332.153 23.2813C332.244 23.2792 332.334 23.3034 332.414 23.3515C333.345 22.1102 334.323 20.9008 335.349 19.7232C335.33 19.4703 335.313 19.2154 335.296 18.9633C335.247 18.2831 336.008 18.2198 336.277 18.6961C337.468 17.3765 338.689 16.0895 339.942 14.8351C339.956 14.3978 339.946 13.9647 339.965 13.5261C340.003 12.7326 341.103 12.7223 341.065 13.5185C341.064 13.5879 341.065 13.6607 341.061 13.7321C341.99 12.8216 342.917 11.927 343.842 11.0482C343.842 10.6065 343.824 10.1712 343.829 9.72828C343.836 8.93146 344.936 8.92384 344.929 9.72067C344.927 9.81591 344.932 9.91333 344.932 10.012C345.939 9.04361 346.957 8.09043 347.943 7.14476C347.931 6.92605 347.906 6.70641 347.897 6.48572C347.861 5.79218 348.652 5.73765 348.894 6.24673C349.988 5.19701 351.1 4.16468 352.203 3.12673C352.201 2.83539 352.172 2.55646 352.166 2.26981C352.155 1.51416 353.11 1.49485 353.225 2.1627C354.003 1.43619 354.768 0.699883 355.555 -0.0183035L355.093 -0.119943C353.95 -0.36363 354.429 -2.32246 355.563 -2.08168C356.177 -1.95116 356.788 -1.80167 357.402 -1.67116C358.5 -2.65864 359.596 -3.6416 360.691 -4.62005C361.386 -5.23524 362.07 -5.87104 362.769 -6.48206C362.922 -6.59463 363.029 -6.76977 363.067 -6.96991C363.106 -7.17005 363.073 -7.37925 362.976 -7.55263C362.973 -7.57787 362.968 -7.60277 362.961 -7.62712C362.915 -7.77061 362.836 -7.89793 362.733 -7.9961C362.629 -8.09427 362.504 -8.15977 362.371 -8.18592C354.64 -10.045 346.843 -11.7876 339.001 -12.9219C337.55 -13.1281 335.551 -13.6187 333.698 -13.6524C332.442 -13.669 331.247 -13.4836 330.336 -12.8379C328.65 -11.642 327.294 -8.8381 326.12 -7.09509C320.228 1.7148 314.681 10.8439 309.308 20.075C306.69 24.5426 304.128 29.0507 301.748 33.6801C300.534 36.0444 298.373 39.2878 298.122 42.1086C298.013 43.322 298.59 44.2167 299.592 44.8769C300.594 45.537 301.922 45.9382 303.506 46.2075C303.835 45.5749 304.142 45.0168 304.337 44.6109C304.892 43.4594 306.449 44.4905 305.9 45.6408C305.87 45.7014 305.841 45.7655 305.811 45.8262C305.822 45.8468 305.845 45.8364 305.85 45.8698L306.075 46.5045C307.036 46.5737 308.014 46.608 308.992 46.6129C308.983 46.5896 308.973 46.5635 308.961 46.5395C308.637 45.8314 309.588 45.2124 309.915 45.9212C310.019 46.1472 310.104 46.3823 310.207 46.611C311.34 46.5958 312.438 46.5528 313.446 46.4971L313.308 46.1908C312.986 45.4808 313.938 44.8618 314.259 45.5718L314.646 46.4268C315.232 46.3886 315.757 46.3527 316.222 46.3217C315.926 46.8773 315.611 47.4183 315.34 47.9901L315.849 49.1027C316.17 49.8127 315.218 50.4317 314.897 49.7216L314.729 49.3427C314.325 50.246 313.922 51.1528 313.534 52.0496C313.397 52.3654 313.274 52.6856 313.139 52.9994C313.663 53.5529 313.486 54.7894 312.572 54.766L312.411 54.758C311.088 57.9233 309.819 61.1222 308.626 64.3641L310.163 64.8286Z" fill="#1A1A1A"/>
<path d="M312.617 54.7582C313.528 54.7802 313.707 53.5443 313.182 52.9913L313.122 52.9412C312.975 52.8061 312.792 52.7305 312.602 52.7265L312.588 52.7222L312.622 52.8167C312.861 53.5685 311.798 53.89 311.56 53.1444C311.515 52.9972 311.455 52.8573 311.404 52.7114C310.29 52.7066 309.128 52.6819 307.967 52.5674C307.905 52.6328 307.832 52.6823 307.752 52.7121C307.672 52.742 307.586 52.7516 307.503 52.7402C307.419 52.7288 307.338 52.6967 307.266 52.6462C307.195 52.5957 307.134 52.528 307.088 52.448C306.17 52.3328 305.272 52.0699 304.42 51.6673C303.459 51.1687 303.768 50.7825 304.132 49.7421C304.176 49.6218 304.232 49.5078 304.276 49.3875C304.552 48.6516 304.858 47.9333 305.187 47.225L304.822 46.1973C304.566 45.4813 305.55 45.1793 305.845 45.8287C305.875 45.768 305.903 45.7039 305.933 45.6432C306.486 44.494 304.928 43.4642 304.37 44.6146C304.175 45.0206 303.881 45.5826 303.54 46.2118C303.052 47.1255 302.632 48.0835 302.286 49.0756C301.838 50.4248 301.676 51.7441 302.366 52.6112C303.194 53.6476 304.784 53.9758 305.926 54.1948C308.077 54.6104 310.269 54.69 312.447 54.7448L312.617 54.7582Z" fill="#1A1A1A"/>
<path d="M330.379 70.307C330.486 71.0916 331.547 70.7605 331.439 69.9786L331.216 68.2907C330.814 65.3831 330.413 62.4768 330.013 59.572C329.992 59.4693 329.94 59.3783 329.865 59.3153C329.778 59.2302 329.67 59.1774 329.555 59.1643C329.44 59.1512 329.325 59.1785 329.225 59.2423C329.124 59.3062 329.044 59.4034 328.995 59.5207C328.946 59.6379 328.931 59.7694 328.951 59.8969L329.053 60.6509L330.305 69.7591C330.328 69.946 330.353 70.1248 330.379 70.307Z" fill="#1A1A1A"/>
<path d="M327.607 70.0612L326.855 64.9144C326.832 64.8028 326.774 64.7046 326.691 64.6384C326.602 64.5602 326.494 64.5141 326.381 64.5062C326.269 64.4983 326.156 64.5289 326.06 64.5941C325.963 64.6592 325.886 64.7557 325.839 64.871C325.791 64.9864 325.776 65.115 325.796 65.2401L325.908 66.0058L326.457 69.7149L327.607 70.0612Z" fill="#1A1A1A"/>
<path d="M304.827 46.2012L305.192 47.229L305.967 49.3968L307.024 52.3643C307.039 52.4095 307.079 52.4156 307.098 52.4534C307.144 52.5334 307.205 52.6011 307.276 52.6516C307.348 52.7021 307.429 52.7342 307.513 52.7456C307.596 52.757 307.682 52.7474 307.762 52.7176C307.842 52.6877 307.915 52.6383 307.977 52.5728C308.044 52.5095 308.092 52.4227 308.111 52.3261C308.13 52.2295 308.12 52.1284 308.083 52.0386C307.76 51.126 307.436 50.214 307.11 49.3028L306.119 46.5122L305.894 45.8777C305.898 45.8588 305.865 45.8547 305.855 45.8341C305.555 45.1833 304.571 45.4852 304.827 46.2012Z" fill="#1A1A1A"/>
<path d="M311.419 52.7183C311.465 52.8627 311.524 53.0027 311.574 53.1513C311.812 53.8969 312.876 53.5754 312.636 52.8237L312.602 52.7291C312.159 51.3351 311.648 49.9698 311.107 48.6189C310.833 47.9557 310.55 47.2895 310.26 46.6212C310.157 46.3926 310.071 46.1576 309.967 45.9317C309.64 45.2232 308.697 45.8396 309.014 46.5507C309.026 46.5747 309.035 46.6007 309.045 46.6241C309.387 47.3601 309.688 48.1103 309.995 48.862C310.489 50.1174 310.98 51.404 311.419 52.7183Z" fill="#1A1A1A"/>
<path d="M314.382 48.4788L314.77 49.3334L314.938 49.7122C315.26 50.422 316.208 49.8043 315.89 49.0925L315.38 47.9804L314.673 46.4229L314.286 45.5683C313.964 44.8585 313.016 45.4762 313.334 46.188L313.473 46.4941L314.069 47.8093L314.382 48.4788Z" fill="#1A1A1A"/>
<path d="M315.559 19.335C312.103 24.8041 308.977 30.5276 306.201 36.4669C305.667 37.6246 307.229 38.6586 307.764 37.4982C310.539 31.5589 313.666 25.8354 317.122 20.3663C317.791 19.2955 316.227 18.2785 315.559 19.335Z" fill="#1A1A1A"/>
<path d="M320.016 15.1851L319.797 15.119C318.673 14.7806 318.206 16.7426 319.329 17.081L319.548 17.1471C320.67 17.4793 321.139 15.5235 320.016 15.1851Z" fill="#1A1A1A"/>
<path d="M318.05 88.7395C318.876 87.507 319.709 86.2563 320.549 84.9873C320.518 84.8561 320.482 84.703 320.471 84.6326C320.36 83.9167 320.246 83.2027 320.132 82.4975L319.402 77.758C318.53 79.3891 317.661 81.0094 316.799 82.6523C316.748 82.7472 316.699 82.8429 316.648 82.9379C316.679 82.9909 316.731 83.0035 316.748 83.0698C317.254 84.9386 317.675 86.8344 318.05 88.7395Z" fill="#FFE761"/>
<path d="M320.413 77.1566L321.43 83.6552C322.163 82.5439 322.899 81.4248 323.638 80.2977C323.5 79.6316 323.31 78.9413 323.269 78.6908C323.138 77.9308 323.011 77.1608 322.877 76.4144L322.219 72.5508C321.452 73.9464 320.686 75.3393 319.93 76.735C319.986 76.7261 320.044 76.73 320.099 76.7465C320.154 76.763 320.206 76.7917 320.251 76.831C320.296 76.8703 320.333 76.9194 320.361 76.9753C320.389 77.0312 320.407 77.0929 320.413 77.1566Z" fill="#FFE761"/>
<path d="M299.442 107.555C298.996 110.264 298.819 112.221 299.037 113.027C299.176 113.531 299.707 113.319 300.542 112.568C300.519 112.524 300.474 112.493 300.458 112.442C299.964 110.859 299.623 109.22 299.442 107.555Z" fill="#FFE761"/>
<path d="M308.053 103.236C307.904 102.451 307.731 101.669 307.596 100.88C306.961 102.201 306.317 103.515 305.693 104.843C305.784 105.265 305.856 105.691 305.946 106.113C306.61 105.224 307.32 104.25 308.053 103.236Z" fill="#FFE761"/>
<path d="M313.655 95.2399C313.309 93.6777 312.995 92.1056 312.712 90.5236C312.119 91.6897 311.539 92.8656 310.953 94.0366L311.847 97.8728C312.435 97.0178 313.037 96.1402 313.655 95.2399Z" fill="#FFE761"/>
<path d="M317.169 90.0513C316.816 88.1323 316.404 86.2279 315.912 84.3457C315.115 85.8696 314.321 87.3962 313.529 88.9256C313.813 90.6242 314.135 92.3148 314.495 93.9976C315.373 92.7166 316.264 91.4012 317.169 90.0513Z" fill="#FFE761"/>
<path d="M310.986 99.0978L310.174 95.5913C309.577 96.7941 308.984 98.001 308.396 99.2122C308.55 100.147 308.768 101.067 308.938 101.989C309.6 101.07 310.283 100.106 310.986 99.0978Z" fill="#FFE761"/>
<path d="M328.105 73.4529C328.325 73.1182 328.538 72.7847 328.755 72.4492C329.089 71.8729 329.416 71.2918 329.752 70.7163L327.604 70.0693C327.775 71.1896 327.942 72.3174 328.105 73.4529Z" fill="#FFE761"/>
<path d="M308.046 71.4763C305.861 79.6477 303.549 88.6143 301.797 96.1699C301.492 98.6008 301.327 101.051 301.304 103.506C301.264 105.45 301.37 107.394 301.622 109.318C306.004 99.6011 310.769 90.0575 315.727 80.6911C317.879 76.6227 320.08 72.5396 322.347 68.4883L310.23 64.8381C309.475 67.0444 308.752 69.2636 308.046 71.4763Z" fill="#FFE761"/>
<path d="M324.502 78.9836C325.405 77.6002 326.306 76.2171 327.206 74.8345C326.955 73.1266 326.702 71.4188 326.446 69.7113L324.168 69.0251C323.799 69.6837 323.434 70.3464 323.065 71.0166L324.257 77.9834C324.309 78.2518 324.4 78.5958 324.502 78.9836Z" fill="#FFE761"/>
<path d="M303.794 104.855C303.822 104.607 303.924 104.378 304.084 104.205C304.244 104.032 304.453 103.927 304.674 103.906C304.952 103.638 305.441 103.634 305.556 104.151C305.604 104.381 305.642 104.613 305.693 104.843C306.317 103.515 306.961 102.201 307.596 100.879C307.489 100.246 307.332 99.6236 307.23 98.9888C307.103 98.2099 308.164 97.8788 308.29 98.6631C308.321 98.8468 308.366 99.0259 308.396 99.2123C308.985 98.0012 309.577 96.7942 310.174 95.5914L309.808 94.0056C309.63 93.2319 310.69 92.9062 310.868 93.6773L310.952 94.0395C311.538 92.8685 312.118 91.6926 312.711 90.5265C312.607 89.9434 312.471 89.3651 312.386 88.7816C312.256 88.002 313.316 87.6736 313.445 88.4559C313.472 88.6123 313.508 88.7654 313.534 88.9272C314.32 87.394 315.114 85.8674 315.917 84.3473C315.835 84.032 315.769 83.7218 315.682 83.4051C315.492 82.7087 316.332 82.4217 316.644 82.9455C316.695 82.8505 316.744 82.7548 316.795 82.6598C317.653 81.0305 318.524 79.4048 319.398 77.7656L319.355 77.4912C319.341 77.3981 319.346 77.3027 319.369 77.212C319.392 77.1214 319.433 77.0377 319.489 76.967C319.545 76.8964 319.614 76.8407 319.691 76.8039C319.768 76.7671 319.852 76.7501 319.936 76.7543C320.687 75.3571 321.453 73.9642 322.225 72.5701L321.975 71.1151C321.84 70.3367 322.901 70.0056 323.034 70.7894C323.047 70.8659 323.06 70.9423 323.075 71.0195C323.442 70.3575 323.806 69.6947 324.177 69.028L322.36 68.4805C320.102 72.5347 317.892 76.6149 315.739 80.6833C310.782 90.0497 306.022 99.5832 301.634 109.31C301.382 107.387 301.276 105.442 301.317 103.499C301.34 101.044 301.505 98.593 301.81 96.1621C302.573 89.8713 304.165 83.6793 306.064 77.7455C306.718 75.6972 307.383 73.5912 308.059 71.4685C308.762 69.2666 309.485 67.0474 310.243 64.8303L308.688 64.3619C306.944 69.1138 305.321 73.9259 303.833 78.7608C301.339 86.8652 298.288 98.1133 299.453 107.558C299.634 109.223 299.974 110.862 300.469 112.445C300.485 112.496 300.529 112.527 300.552 112.571C300.874 113.214 301.768 113.484 302.12 112.692C302.521 111.788 302.941 110.906 303.353 109.991C303.449 108.222 303.619 106.487 303.794 104.855Z" fill="#1A1A1A"/>
<path d="M329.755 70.7082C329.42 71.281 329.092 71.8622 328.758 72.4411L328.123 73.5452C328.24 74.32 328.355 75.0955 328.47 75.8717C328.584 76.6524 327.526 76.9815 327.408 76.1994C327.352 75.8254 327.297 75.4514 327.244 75.0781C326.376 76.6079 325.519 78.1429 324.674 79.6831C324.907 80.6743 325.074 81.7438 324.677 82.3359C324.633 82.4162 324.574 82.4845 324.503 82.5356C324.433 82.5867 324.353 82.6194 324.27 82.6312C324.187 82.6429 324.102 82.6335 324.023 82.6036C323.943 82.5736 323.871 82.524 323.811 82.4583L323.707 82.3284C323.607 82.2112 323.552 82.0549 323.552 81.8925C323.553 81.7301 323.61 81.5743 323.711 81.4581L323.753 81.4214C323.759 81.397 323.763 81.3781 323.77 81.351C323.085 82.6065 322.406 83.8602 321.734 85.1119C321.976 86.1142 322.229 87.2943 321.862 87.9883C321.786 88.1261 321.665 88.2258 321.525 88.2668C321.385 88.3078 321.236 88.287 321.11 88.2088L320.99 88.1467C320.886 88.0788 320.805 87.9742 320.759 87.849C320.713 87.7239 320.705 87.5852 320.737 87.4545L320.762 87.3461C320.786 87.2459 320.863 87.2167 320.915 87.151C320.93 86.9875 320.924 86.8223 320.897 86.6607C320.441 87.4932 319.997 88.3355 319.557 89.1615C319.203 89.836 318.855 90.5154 318.5 91.1899C318.554 91.4965 318.612 91.8045 318.668 92.1118C318.69 92.2418 318.674 92.3763 318.623 92.4953C318.571 92.6144 318.487 92.7115 318.383 92.7724C318.278 92.8333 318.159 92.8546 318.043 92.8332C317.927 92.8118 317.82 92.7488 317.738 92.6536C316.919 94.2252 316.099 95.7933 315.291 97.3739C315.407 97.8593 315.507 98.3511 315.632 98.836C315.829 99.604 314.767 99.9262 314.569 99.1636L314.514 98.9176C313.954 100.021 313.4 101.123 312.849 102.232L313.408 104.655C313.588 105.426 312.527 105.751 312.348 104.983L312.069 103.781C311.395 105.143 310.74 106.517 310.08 107.887C310.194 108.427 310.271 108.973 310.393 109.512C310.568 110.285 309.506 110.61 309.331 109.837C309.312 109.744 309.299 109.647 309.277 109.553C308.653 110.861 308.029 112.169 307.419 113.481C307.491 113.874 307.582 114.259 307.656 114.653C307.683 114.792 307.666 114.936 307.608 115.062C307.55 115.188 307.454 115.287 307.338 115.341C307.222 115.396 307.092 115.403 306.972 115.362C306.851 115.32 306.747 115.233 306.679 115.114C306.254 116.02 305.838 116.927 305.431 117.834C304.905 114.771 304.994 111.461 305.26 108.32C304.999 107.042 304.774 105.751 304.493 104.479C304.469 104.374 304.473 104.263 304.505 104.161C304.537 104.059 304.596 103.97 304.674 103.906C304.453 103.926 304.245 104.032 304.084 104.205C303.924 104.378 303.822 104.607 303.794 104.855C303.619 106.487 303.449 108.222 303.346 109.988C303.123 113.697 303.201 117.563 304.289 120.923C304.531 121.673 305.563 122.016 305.938 121.17C310.467 110.949 315.448 100.953 320.62 91.1313C324.121 84.4833 327.737 77.7885 331.584 71.2594L329.755 70.7082Z" fill="#1A1A1A"/>
<path d="M327.607 70.0612L326.445 69.7112C326.7 71.4183 326.953 73.126 327.206 74.8344C327.218 74.9136 327.229 74.9954 327.244 75.0753C327.297 75.4486 327.353 75.8226 327.408 76.1966C327.527 76.9787 328.591 76.6518 328.471 75.8689C328.35 75.086 328.241 74.3184 328.123 73.5424L328.109 73.4421C327.943 72.3156 327.776 71.1886 327.607 70.0612Z" fill="#1A1A1A"/>
<path d="M324.257 77.9834L323.077 71.0114C323.061 70.9342 323.049 70.8577 323.036 70.7813C322.902 69.9975 321.851 70.3315 321.977 71.1069L322.219 72.5509L322.878 76.4064C323.011 77.1636 323.14 77.9228 323.271 78.6827C323.312 78.9332 323.502 79.6235 323.64 80.2896C323.717 80.6303 323.759 80.9802 323.764 81.3318C323.757 81.3589 323.753 81.3779 323.747 81.4023L323.704 81.4389C323.603 81.5551 323.547 81.7109 323.546 81.8733C323.545 82.0358 323.601 82.1921 323.701 82.3093L323.804 82.4392C323.865 82.5049 323.937 82.5545 324.017 82.5844C324.096 82.6143 324.181 82.6238 324.264 82.612C324.347 82.6002 324.427 82.5676 324.497 82.5165C324.568 82.4654 324.627 82.3971 324.671 82.3167C325.07 81.7254 324.904 80.6443 324.667 79.6639C324.611 79.4233 324.553 79.1881 324.495 78.9672C324.4 78.5958 324.309 78.2518 324.257 77.9834Z" fill="#1A1A1A"/>
<path d="M321.43 83.6551L320.414 77.1565C320.406 77.0939 320.388 77.0336 320.36 76.9791C320.332 76.9245 320.294 76.8767 320.249 76.8384C320.205 76.8002 320.154 76.7722 320.1 76.756C320.045 76.7399 319.989 76.736 319.933 76.7445C319.849 76.7404 319.766 76.7573 319.688 76.7941C319.611 76.8309 319.542 76.8867 319.486 76.9573C319.431 77.0279 319.39 77.1116 319.366 77.2023C319.343 77.293 319.338 77.3883 319.352 77.4815L319.395 77.7558L320.135 82.4867C320.246 83.2027 320.36 83.9167 320.474 84.6218C320.485 84.6921 320.521 84.8452 320.552 84.9765C320.657 85.4263 320.819 86.0908 320.899 86.6409C320.927 86.8025 320.932 86.9676 320.917 87.1312C320.865 87.1969 320.793 87.2275 320.764 87.3263L320.739 87.4347C320.707 87.5654 320.715 87.7041 320.761 87.8292C320.807 87.9544 320.888 88.059 320.992 88.1269L321.112 88.189C321.238 88.2672 321.387 88.2879 321.527 88.2469C321.667 88.2059 321.788 88.1063 321.864 87.9685C322.232 87.2717 321.978 86.0944 321.736 85.0921C321.632 84.66 321.533 84.2526 321.494 83.9415L321.43 83.6551Z" fill="#1A1A1A"/>
<path d="M316.742 83.0676C316.724 83.0012 316.673 82.9887 316.641 82.9357C316.33 82.4119 315.489 82.6989 315.679 83.3952C315.766 83.712 315.832 84.0222 315.915 84.3375C316.404 86.2278 316.82 88.1248 317.172 90.0431C317.318 90.8367 317.484 91.6272 317.608 92.4285C317.623 92.5376 317.689 92.5777 317.738 92.6446C317.819 92.7398 317.926 92.8028 318.042 92.8242C318.158 92.8456 318.278 92.8243 318.382 92.7634C318.487 92.7025 318.571 92.6053 318.622 92.4863C318.674 92.3673 318.69 92.2328 318.668 92.1028C318.621 91.7984 318.556 91.4882 318.5 91.1809C318.364 90.3617 318.213 89.5435 318.052 88.7225C317.676 86.8343 317.254 84.9386 316.742 83.0676Z" fill="#1A1A1A"/>
<path d="M313.534 88.9268C313.507 88.7678 313.471 88.6173 313.445 88.4556C313.316 87.6732 312.261 88.0031 312.385 88.7813C312.481 89.3676 312.607 89.943 312.711 90.5262C312.996 92.1068 313.31 93.6789 313.654 95.2425C313.921 96.4848 314.2 97.6987 314.511 98.9166L314.566 99.1626C314.765 99.9252 315.826 99.6029 315.629 98.835C315.504 98.3501 315.404 97.8582 315.288 97.3729C315.015 96.2509 314.74 95.1283 314.5 93.9988C314.142 92.3165 313.82 90.6259 313.534 88.9268Z" fill="#1A1A1A"/>
<path d="M310.951 94.0393L310.867 93.6771C310.689 92.9061 309.63 93.2317 309.807 94.0055L310.173 95.5912L310.986 99.0978L312.066 103.78L312.345 104.982C312.524 105.751 313.585 105.426 313.405 104.654L312.846 102.231L311.841 97.8624L310.951 94.0393Z" fill="#1A1A1A"/>
<path d="M308.396 99.2122C308.365 99.0259 308.32 98.8467 308.289 98.663C308.163 97.8787 307.105 98.2106 307.23 98.9887C307.336 99.625 307.486 100.245 307.595 100.879C307.73 101.669 307.903 102.45 308.052 103.236C308.445 105.347 308.806 107.463 309.274 109.553C309.296 109.646 309.309 109.743 309.328 109.836C309.503 110.609 310.565 110.284 310.39 109.511C310.261 108.97 310.191 108.426 310.077 107.886C309.653 105.935 309.293 103.967 308.935 102C308.768 101.067 308.55 100.147 308.396 99.2122Z" fill="#1A1A1A"/>
<path d="M305.693 104.843C305.642 104.612 305.604 104.38 305.556 104.151C305.441 103.634 304.952 103.638 304.674 103.905C304.596 103.97 304.538 104.059 304.505 104.161C304.473 104.263 304.469 104.374 304.493 104.478C304.774 105.751 304.999 107.041 305.26 108.32C305.713 110.536 306.189 112.747 306.588 114.976C306.6 115.044 306.647 115.061 306.671 115.112C306.74 115.23 306.844 115.318 306.965 115.359C307.085 115.401 307.215 115.394 307.331 115.339C307.447 115.284 307.543 115.185 307.601 115.06C307.659 114.934 307.676 114.789 307.649 114.651C307.58 114.258 307.488 113.873 307.412 113.479C306.964 111.02 306.461 108.559 305.941 106.111C305.855 105.69 305.784 105.265 305.693 104.843Z" fill="#1A1A1A"/>
<path d="M33.4089 171.954C35.2208 171.184 37.0736 170.543 38.9566 170.033C38.6367 171.046 38.3062 172.056 37.965 173.064L31.9212 175.427C32.4444 174.209 32.9478 173.034 33.4089 171.954Z" fill="#FFE761"/>
<path d="M31.396 176.713C33.4512 175.909 35.5059 175.105 37.5601 174.3C37.1746 175.401 36.7529 176.487 36.3427 177.577C34.2891 178.582 32.1996 179.465 30.075 180.26C30.5332 179.083 30.9653 177.899 31.396 176.713Z" fill="#FFE761"/>
<path d="M36.118 165.668C36.2427 165.813 36.3792 165.942 36.5039 166.084C36.2852 166.163 36.0517 166.252 35.827 166.338L36.118 165.668Z" fill="#FFE761"/>
<path d="M35.2712 167.615C35.8154 167.411 36.3616 167.207 36.9098 167.002C37.004 166.961 37.0823 166.884 37.1308 166.785C37.7439 167.499 38.3273 168.243 38.9123 168.982C37.2351 169.437 35.5817 169.996 33.9597 170.658C34.4416 169.555 34.8859 168.519 35.2712 167.615Z" fill="#FFE761"/>
<path d="M46.6186 169.577C48.5488 172.146 50.3073 174.872 51.8799 177.732C51.9445 177.861 52.0377 177.968 52.1505 178.044C52.2632 178.119 52.3915 178.16 52.5227 178.163C52.6539 178.166 52.7835 178.13 52.8987 178.06C53.0139 177.989 53.1108 177.886 53.1798 177.761C56.8937 170.63 58.1844 161.536 59.6717 153.557C60.691 148.088 61.5963 142.594 62.3877 137.075C66.4991 142.409 70.5798 147.838 74.2132 153.584C75.0159 154.854 76.2379 156.453 76.5418 158.064C72.3576 168.661 59.2586 199.122 54.4792 205.716C54.3254 205.66 54.1422 205.437 53.7179 204.959C52.4807 203.573 51.5448 201.784 50.6361 200.119C49.1547 197.407 47.796 194.596 46.5387 191.743C46.2966 191.193 45.4903 191.146 45.2373 191.717C42.961 196.857 39.7352 201.679 36.3178 206.262L29.1164 197.866C34.1113 187.683 38.6484 177.104 41.6869 166.063L46.6186 169.577ZM62.1754 182.857C60.0397 187.858 57.6083 192.694 54.8974 197.33C54.3648 198.23 55.6558 199.086 56.1869 198.188C58.8978 193.552 61.3292 188.717 63.4649 183.715C63.8745 182.745 62.5939 181.881 62.1754 182.857ZM63.273 179.591L63.4034 179.743C64.0709 180.521 65.1463 179.355 64.4788 178.577L64.3484 178.425C63.6809 177.646 62.6098 178.811 63.276 179.587L63.273 179.591Z" fill="#FFE761"/>
<path d="M55.4007 137.388C56.041 138.228 56.6708 139.08 57.3067 139.925L54.8742 140.986C55.0521 139.787 55.2276 138.588 55.4007 137.388Z" fill="#FFE761"/>
<path d="M50.8994 168.855C50.4461 169.085 49.7172 169.312 49.1683 169.678C49.5018 168.459 49.7903 167.221 50.0961 165.99C52.3264 164.8 54.493 163.479 56.6061 162.045C56.3004 163.565 55.9603 165.074 55.5859 166.571C55.516 166.567 55.4493 166.539 55.3713 166.578L50.8994 168.855Z" fill="#FFE761"/>
<path d="M36.8046 164.082L37.3093 162.922L40.3854 165.121C40.1712 165.915 39.9613 166.709 39.7297 167.499C38.7903 166.321 37.8153 165.182 36.8046 164.082Z" fill="#FFE761"/>
<path d="M49.5174 170.637C49.7936 170.524 50.6248 170.113 50.8367 170.006L52.3274 169.247L55.2954 167.737C54.9474 169.043 54.56 170.322 54.1331 171.576C54.0733 171.513 53.997 171.473 53.9155 171.463C53.8341 171.453 53.752 171.474 53.6816 171.521C52.7736 172.102 51.8056 172.557 50.7993 172.873C50.3595 172.177 49.8785 171.509 49.4136 170.83C49.4376 170.788 49.4775 170.761 49.4943 170.717L49.5174 170.637Z" fill="#FFE761"/>
<path d="M54.7446 141.9C54.8047 141.945 54.8734 141.972 54.9448 141.98C55.0163 141.989 55.0885 141.978 55.1554 141.948C56.0803 141.545 57.0039 141.142 57.9259 140.739C58.3373 141.289 58.7533 141.831 59.1619 142.381C57.5286 142.986 55.9273 143.694 54.3655 144.503C54.4962 143.639 54.6123 142.775 54.7446 141.9Z" fill="#FFE761"/>
<path d="M52.4632 175.688C52.0913 175.038 51.7164 174.39 51.3225 173.75C52.1605 173.464 52.9716 173.086 53.7443 172.623C53.3567 173.675 52.9296 174.697 52.4632 175.688Z" fill="#FFE761"/>
<path d="M62.4554 134.593C62.3852 134.495 62.293 134.419 62.1884 134.374C62.0837 134.329 61.9703 134.316 61.8597 134.337C62.1445 133.689 62.4314 133.185 62.6344 133.174C63.1913 133.122 77.8569 154.426 77.8569 154.426C77.8776 154.501 77.7285 154.969 77.4385 155.757C76.6775 154.258 75.5636 152.829 74.8472 151.733C70.9849 145.793 66.7458 140.143 62.4554 134.593Z" fill="#FFE761"/>
<path d="M51.8092 150.65C50.7378 156.724 49.4659 162.748 47.8793 168.646L47.8292 168.587C48.6029 164.951 50.5575 155.775 52.3561 147.414C52.1863 148.436 52.0181 149.457 51.8338 150.482C51.8143 150.535 51.8059 150.593 51.8092 150.65Z" fill="#FFE761"/>
<path d="M55.4667 134.881C55.3773 134.768 55.2585 134.691 55.1273 134.659C55.5866 132.601 55.891 131.285 55.9469 131.163C56.2582 130.503 60.6196 137.352 60.8335 137.387C60.6426 138.669 60.4482 139.954 60.2504 141.243C58.6647 139.117 57.0879 136.978 55.4667 134.881Z" fill="#FFE761"/>
<path d="M52.392 155.662C52.4473 155.644 52.4973 155.61 52.5368 155.564C52.5763 155.517 52.6039 155.459 52.6167 155.396C54.5437 154.454 56.461 153.484 58.3572 152.466C58.1427 153.639 57.9293 154.841 57.7155 156.063C55.716 157.33 53.6748 158.505 51.5917 159.589C51.8697 158.279 52.1364 156.971 52.392 155.662Z" fill="#FFE761"/>
<path d="M52.6813 154.242C52.9063 153.05 53.1051 151.848 53.3141 150.655C55.3117 149.619 57.2854 148.53 59.2352 147.387C59.0082 148.7 58.7885 150.018 58.55 151.328C58.4872 151.328 58.4293 151.3 58.3601 151.337C56.4844 152.349 54.5864 153.304 52.6813 154.242Z" fill="#FFE761"/>
<path d="M51.3561 160.737C51.4246 160.74 51.4913 160.768 51.5678 160.73C53.581 159.695 55.5476 158.562 57.4848 157.357C57.2869 158.463 57.0817 159.576 56.8691 160.694C54.7836 162.139 52.6347 163.444 50.4319 164.653C50.7463 163.349 51.0679 162.049 51.3561 160.737Z" fill="#FFE761"/>
<path d="M53.5321 149.404C53.7561 148.091 53.9903 146.78 54.1955 145.462C54.2558 145.507 54.3258 145.533 54.3982 145.539C54.4706 145.544 54.543 145.528 54.608 145.491C56.2878 144.611 58.0154 143.851 59.7805 143.216L59.9234 143.406C59.7727 144.33 59.6047 145.247 59.4511 146.174C59.4247 146.183 59.4002 146.165 59.3722 146.182C57.4565 147.325 55.4971 148.369 53.5321 149.404Z" fill="#FFE761"/>
<path d="M54.7443 141.901C54.7915 141.595 54.8344 141.287 54.8788 140.981L57.3113 139.92L57.9256 140.74C57.0026 141.143 56.0791 141.546 55.1551 141.948C55.0882 141.978 55.016 141.989 54.9445 141.981C54.873 141.972 54.8044 141.945 54.7443 141.901Z" fill="#1A1A1A"/>
<path d="M54.198 145.465C54.2499 145.144 54.3105 144.827 54.3608 144.508C55.9226 143.699 57.524 142.991 59.1572 142.386C59.3629 142.666 59.5774 142.939 59.7831 143.219C58.0179 143.854 56.2903 144.614 54.6106 145.495C54.5455 145.531 54.4732 145.547 54.4007 145.542C54.3283 145.537 54.2584 145.51 54.198 145.465Z" fill="#1A1A1A"/>
<path d="M35.2704 167.615L35.244 167.624C34.9207 167.783 34.585 167.909 34.2411 167.999C34.3555 167.604 34.4583 167.203 34.5683 166.806C34.6476 166.775 34.7152 166.747 34.7357 166.741L35.3231 166.52L35.8223 166.333C36.0425 166.255 36.2745 166.165 36.4992 166.079C36.7055 166.32 36.9252 166.542 37.13 166.784C37.0816 166.884 37.0033 166.961 36.909 167.001C36.3638 167.208 35.8176 167.412 35.2704 167.615Z" fill="#1A1A1A"/>
<path d="M36.3176 206.262C39.7291 201.686 42.9608 196.857 45.2372 191.717C45.4901 191.146 46.2964 191.194 46.5386 191.743C47.7959 194.596 49.1546 197.407 50.636 200.12C51.5447 201.784 52.4805 203.573 53.7177 204.959C54.1362 205.43 54.3222 205.664 54.479 205.716C54.6764 205.786 54.8172 205.559 55.3091 205.103C57.0427 203.487 58.263 200.211 59.3717 198.068C61.1025 194.721 62.7483 191.309 64.346 187.894C67.7481 180.637 71.0262 173.289 74.0767 165.845C74.8925 163.859 76.4197 161.281 76.6523 159.075C76.6649 158.734 76.628 158.393 76.543 158.066C76.242 156.458 75.0171 154.856 74.2144 153.586C70.5782 147.836 66.4975 142.407 62.389 137.076C61.6015 142.595 60.6961 148.09 59.673 153.559C58.1946 161.528 56.8949 170.631 53.181 177.762C53.1121 177.888 53.0152 177.991 52.9 178.062C52.7847 178.132 52.6552 178.168 52.5239 178.165C52.3927 178.162 52.2645 178.121 52.1517 178.045C52.039 177.97 51.9457 177.863 51.8811 177.734C50.3086 174.874 48.5501 172.148 46.6199 169.579C45.2328 167.734 43.7445 165.989 42.1638 164.354C42.0145 164.925 41.8507 165.489 41.6956 166.057C38.6454 177.1 34.1126 187.685 29.1252 197.86L28.045 196.601C28.4691 195.732 28.8802 194.857 29.2985 193.985L29.8362 193.769C29.9243 193.735 30.0011 193.671 30.0564 193.586C30.1118 193.502 30.1431 193.401 30.1462 193.296C30.1493 193.191 30.1241 193.087 30.0739 192.999C30.0237 192.91 29.9508 192.841 29.8649 192.8C30.4179 191.63 30.9535 190.453 31.4877 189.274L32.0137 189.055C32.1039 189.02 32.1824 188.955 32.2382 188.868C32.294 188.782 32.3245 188.677 32.3255 188.57C32.3264 188.463 32.2977 188.358 32.2434 188.27C32.189 188.182 32.1117 188.115 32.0222 188.079C32.6248 186.729 33.2124 185.374 33.785 184.014C34.1412 183.828 34.4983 183.643 34.8564 183.459C35.3906 183.182 34.9497 182.287 34.4214 182.56C34.411 182.572 34.4006 182.583 34.3772 182.582C34.8835 181.357 35.3757 180.127 35.8538 178.893C36.1626 178.748 36.4771 178.617 36.7845 178.467C37.3229 178.206 36.8805 177.309 36.3495 177.569C36.7596 176.479 37.1814 175.394 37.5669 174.292L38.2865 174.015C38.8358 173.8 38.6227 172.806 38.0705 173.021C38.0352 173.037 38 173.049 37.9633 173.063C38.3006 172.053 38.6312 171.042 38.9549 170.031C39.1616 169.975 39.367 169.907 39.5694 169.849C39.5943 169.841 39.5976 169.818 39.6139 169.8C40.2531 170.348 41.1604 169.29 40.5655 168.53C40.2939 168.18 40.0074 167.846 39.7227 167.49C39.9543 166.701 40.1641 165.906 40.3783 165.113C40.608 164.265 40.8667 163.426 41.0715 162.579C41.2338 161.926 41.9142 161.817 42.3294 162.224C44.3 164.181 46.1335 166.307 47.8138 168.581L47.8639 168.639C47.7287 169.15 47.6135 169.684 47.474 170.19C47.2216 171.092 48.2926 171.559 48.7531 170.966C48.7732 170.989 48.7976 171.018 48.8237 171.028L48.9238 171.065C49.016 171.09 49.1132 171.08 49.2 171.037C49.2868 170.993 49.3583 170.919 49.4034 170.825C49.8682 171.504 50.3493 172.172 50.7891 172.868C50.7304 172.887 50.6744 172.918 50.6143 172.935C50.0468 173.106 50.2628 174.1 50.8274 173.929C50.9946 173.88 51.1506 173.801 51.312 173.745C51.706 174.385 52.0808 175.032 52.4527 175.683C52.9192 174.692 53.3462 173.67 53.7339 172.618C53.8547 172.545 53.984 172.492 54.1049 172.416C54.1699 172.373 54.2241 172.312 54.2624 172.239C54.3006 172.166 54.3216 172.083 54.3234 171.999C54.3252 171.914 54.3078 171.83 54.2727 171.756C54.2376 171.681 54.186 171.617 54.1229 171.571C54.5498 170.317 54.9372 169.038 55.2852 167.732C55.4559 167.647 55.6266 167.558 55.7958 167.472C56.2534 167.24 55.9895 166.594 55.5754 166.566C55.9488 165.07 56.2889 163.561 56.5955 162.04C56.8715 161.854 57.1543 161.689 57.4289 161.498C57.9248 161.15 57.4913 160.25 56.9938 160.6C56.9496 160.628 56.9024 160.657 56.8581 160.689C57.0727 159.569 57.2779 158.456 57.4738 157.352C57.7583 157.176 58.0455 157.016 58.3286 156.835C58.8388 156.51 58.4038 155.612 57.8936 155.937C57.8331 155.976 57.7683 156.011 57.7049 156.051C57.9258 154.844 58.1321 153.634 58.3466 152.454C58.4924 152.377 58.6438 152.309 58.7896 152.228C59.2504 151.98 58.9692 151.315 58.5444 151.321C58.783 150.012 59.0027 148.693 59.2296 147.38C59.4183 147.266 59.6094 147.178 59.7965 147.069C60.2873 146.775 59.9176 145.99 59.4419 146.164C59.5983 145.24 59.7664 144.323 59.9141 143.396L60.1641 143.731C60.7783 144.564 61.848 143.391 61.2395 142.565C60.9096 142.116 60.5693 141.68 60.2394 141.231C60.4363 139.944 60.6307 138.658 60.8226 137.376C60.9407 136.564 61.0764 135.753 61.1902 134.94C61.2018 134.771 61.2718 134.614 61.3852 134.503C61.4986 134.391 61.6463 134.334 61.7967 134.344C61.8144 134.337 61.8325 134.331 61.851 134.327C61.9616 134.307 62.075 134.32 62.1797 134.365C62.2843 134.41 62.3765 134.485 62.4467 134.583C66.7356 140.132 70.9762 145.78 74.8431 151.709C75.5565 152.808 76.6718 154.238 77.4344 155.732C77.9478 156.749 78.306 157.795 78.2549 158.795C78.1594 160.645 76.8962 162.869 76.2434 164.521C72.9278 172.838 69.2688 181.002 65.4742 189.065C63.6452 192.983 61.767 196.869 59.7386 200.658C58.7019 202.591 57.4778 205.646 55.7619 206.978C55.0244 207.552 54.2177 207.44 53.3918 206.888C52.5659 206.337 51.7765 205.416 50.9695 204.235C51.245 203.714 51.4818 203.241 51.665 202.92C52.1846 202.009 50.8981 201.154 50.377 202.06C50.35 202.109 50.32 202.158 50.2929 202.206C50.2754 202.206 50.2729 202.183 50.2494 202.192L49.7506 202.262C49.322 201.509 48.9084 200.726 48.514 199.932C48.533 199.931 48.5535 199.928 48.5739 199.928C49.1595 199.909 49.1774 198.887 48.5904 198.905C48.4035 198.911 48.2178 198.935 48.0294 198.942C47.5861 198.015 47.1746 197.104 46.8073 196.261L47.0599 196.251C47.6455 196.229 47.6634 195.207 47.0778 195.23L46.3725 195.256C46.163 194.765 45.976 194.323 45.8101 193.932C45.5706 194.395 45.3484 194.868 45.0887 195.317L44.1687 195.347C43.5831 195.37 43.5652 196.392 44.1508 196.369L44.4619 196.354C44.0421 197.045 43.6194 197.735 43.197 198.409C43.0487 198.647 42.8918 198.876 42.7435 199.11C42.1776 198.905 41.4522 199.544 41.833 200.278L41.9024 200.406C40.3936 202.748 38.8414 205.059 37.2316 207.327L36.3176 206.262Z" fill="#1A1A1A"/>
<path d="M52.4573 151.136C52.7486 150.988 53.0332 150.805 53.3187 150.66C53.1098 151.853 52.9023 153.045 52.6859 154.247C52.299 154.438 51.9205 154.648 51.5337 154.835C51.0087 155.082 51.3978 155.84 51.8542 155.777C52.0077 155.759 52.1613 155.738 52.3134 155.718C52.3514 155.712 52.3565 155.671 52.3931 155.664C52.1375 156.974 51.8707 158.281 51.5929 159.584C51.4383 159.664 51.288 159.753 51.1321 159.832C50.6773 160.067 50.9413 160.712 51.3568 160.739C51.0686 162.051 50.7398 163.342 50.4269 164.648C50.0588 164.851 49.702 165.076 49.3281 165.272C48.7967 165.552 49.2362 166.449 49.7631 166.17C49.8735 166.112 49.9812 166.044 50.0916 165.985C49.7857 167.216 49.4972 168.454 49.1638 169.673C48.8814 169.826 48.6531 170.081 48.5158 170.398C48.4886 170.51 48.4983 170.629 48.543 170.733C48.5877 170.838 48.6645 170.92 48.7591 170.966C48.2929 171.552 47.2276 171.092 47.48 170.19C47.6195 169.684 47.7347 169.15 47.8699 168.639C49.4507 162.735 50.7284 156.717 51.7997 150.644C51.7981 150.732 51.8164 150.82 51.8528 150.898C51.8893 150.977 51.9428 151.044 52.0083 151.093C52.0739 151.142 52.1494 151.171 52.2278 151.179C52.3063 151.187 52.3852 151.172 52.4573 151.136Z" fill="#1A1A1A"/>
<path d="M55.4654 134.881C57.0923 136.985 58.6693 139.111 60.2505 141.245C60.5804 141.693 60.9207 142.13 61.2506 142.578C61.859 143.404 60.7893 144.577 60.1752 143.744L59.9252 143.409L59.7823 143.219C59.5766 142.939 59.3621 142.666 59.1565 142.386C58.7479 141.836 58.332 141.294 57.9205 140.744L57.3062 139.925C56.6703 139.08 56.0404 138.229 55.4001 137.388C55.23 138.587 55.0545 139.786 54.8737 140.986C54.8294 141.292 54.7865 141.6 54.7392 141.905C54.6099 142.774 54.5012 143.633 54.3601 144.508C54.3097 144.827 54.2492 145.144 54.1973 145.465C53.9893 146.78 53.7551 148.091 53.5339 149.407C53.0261 149.674 52.5352 149.981 52.0246 150.241C51.9811 150.264 51.9421 150.297 51.9101 150.337C51.8781 150.377 51.8537 150.424 51.8384 150.476C52.0183 149.455 52.1865 148.435 52.3607 147.408C53.0312 143.35 53.6498 139.292 54.2162 135.233C54.2807 134.767 54.7541 134.553 55.1333 134.658C55.262 134.691 55.3781 134.769 55.4654 134.881Z" fill="#1A1A1A"/>
<path d="M39.7243 167.505C40.0004 167.85 40.2941 168.193 40.5671 168.545C41.162 169.305 40.2547 170.363 39.6155 169.815C40.1004 169.611 39.8959 168.721 39.3507 168.861C39.2027 168.899 39.0588 168.955 38.9107 168.993C38.3257 168.254 37.7378 167.516 37.1291 166.796C36.9229 166.555 36.7061 166.329 36.4984 166.091C36.3752 165.947 36.2401 165.816 36.1125 165.674C35.8073 165.318 35.4843 164.985 35.1643 164.649C34.976 165.375 34.7703 166.095 34.5675 166.818C34.4575 167.214 34.3547 167.616 34.2403 168.01C33.9591 168.979 33.6648 169.94 33.3604 170.898C33.2326 170.953 33.1006 170.993 32.9742 171.05C32.5127 171.247 32.6121 171.964 32.9919 172.03C32.6189 173.172 32.2574 174.322 31.8567 175.456L30.9092 175.838C30.3585 176.052 30.5701 177.047 31.1223 176.832C31.2134 176.798 31.3045 176.76 31.3955 176.726C30.9723 177.904 30.5327 179.096 30.0745 180.273C29.8572 180.354 29.6485 180.445 29.4283 180.522C28.8954 180.717 29.0808 181.621 29.5904 181.51C28.9822 183.029 28.3585 184.54 27.7194 186.043L26.7112 186.566C26.1961 186.834 26.5943 187.66 27.0995 187.467C26.6434 188.512 26.1742 189.553 25.7035 190.592L24.5164 191.083C23.9699 191.308 24.1815 192.303 24.7295 192.077C24.8573 192.025 24.9822 191.973 25.1086 191.92C24.9815 192.197 24.8516 192.47 24.7216 192.746L23.6358 191.48C27.8966 182.286 31.646 172.777 34.1012 162.875C34.2621 162.22 34.9439 162.113 35.3577 162.518C35.8634 163.018 36.3289 163.564 36.8108 164.092C37.8176 165.188 38.7888 166.325 39.7243 167.505Z" fill="#1A1A1A"/>
<path d="M52.4571 151.136C52.3855 151.17 52.3075 151.184 52.2301 151.176C52.1527 151.168 52.0783 151.138 52.0136 151.09C51.949 151.041 51.8961 150.975 51.8597 150.898C51.8233 150.821 51.8046 150.734 51.8053 150.647C51.803 150.587 51.8135 150.527 51.8358 150.472C51.8512 150.421 51.8756 150.374 51.9076 150.334C51.9396 150.293 51.9785 150.261 52.022 150.238C52.5327 149.978 53.0236 149.671 53.5314 149.404C55.5039 148.361 57.4558 147.325 59.37 146.184C59.3923 146.16 59.4225 146.185 59.4489 146.176C59.926 146.003 60.2958 146.788 59.8036 147.08C59.6135 147.193 59.4224 147.281 59.2367 147.392C57.2898 148.54 55.3161 149.63 53.3156 150.66C53.0286 150.81 52.7484 150.988 52.4571 151.136Z" fill="#1A1A1A"/>
<path d="M52.3917 155.662C52.3593 155.674 52.3486 155.709 52.312 155.716C52.1599 155.736 52.0063 155.757 51.8528 155.776C51.3935 155.835 51.0073 155.081 51.5323 154.834C51.9191 154.646 52.2976 154.436 52.6845 154.245C54.5896 153.308 56.4905 152.355 58.3676 151.345C58.4367 151.309 58.4947 151.336 58.5574 151.336C58.9822 151.33 59.2634 151.995 58.8026 152.243C58.6568 152.324 58.5054 152.392 58.3597 152.469C56.4621 153.485 54.5462 154.457 52.6192 155.399C52.6057 155.462 52.5775 155.519 52.5375 155.566C52.4974 155.612 52.4471 155.645 52.3917 155.662Z" fill="#1A1A1A"/>
<path d="M51.356 160.737C50.9405 160.711 50.6765 160.065 51.1313 159.83C51.2873 159.751 51.4375 159.662 51.5921 159.582C53.6732 158.497 55.7145 157.321 57.7158 156.056C57.7792 156.016 57.844 155.981 57.9045 155.942C58.4147 155.617 58.8554 156.522 58.3395 156.84C58.0579 157.019 57.7707 157.179 57.4847 157.357C55.5476 158.562 53.581 159.695 51.5677 160.73C51.4912 160.768 51.4157 160.747 51.356 160.737Z" fill="#1A1A1A"/>
<path d="M49.7663 166.177C49.2393 166.455 48.7999 165.559 49.3313 165.279C49.7051 165.083 50.0619 164.857 50.4301 164.655C52.6314 163.448 54.7817 162.141 56.8672 160.695C56.9043 160.655 56.9587 160.635 57.0029 160.606C57.5004 160.257 57.9339 161.157 57.4379 161.504C57.1649 161.694 56.882 161.859 56.6046 162.047C54.4902 163.479 52.325 164.802 50.0947 165.992C49.9858 166.049 49.8782 166.117 49.7663 166.177Z" fill="#1A1A1A"/>
<path d="M48.5182 170.405C48.6554 170.088 48.8838 169.832 49.1662 169.68C49.7135 169.315 50.444 169.087 50.8972 168.857L55.372 166.583C55.45 166.544 55.5167 166.572 55.5867 166.576C56.0007 166.604 56.2647 167.25 55.8071 167.482C55.6378 167.568 55.4671 167.657 55.2964 167.742L52.3284 169.252L50.8377 170.011C50.6259 170.118 49.7946 170.529 49.5185 170.642L49.4953 170.722C49.4814 170.769 49.4344 170.788 49.4146 170.835C49.3695 170.929 49.298 171.003 49.2112 171.047C49.1244 171.09 49.0273 171.1 48.935 171.075L48.8349 171.038C48.8073 171.029 48.7933 170.99 48.7644 170.976C48.6686 170.931 48.5907 170.848 48.5454 170.743C48.5001 170.637 48.4904 170.517 48.5182 170.405Z" fill="#1A1A1A"/>
<path d="M54.1331 171.576C54.1962 171.622 54.2478 171.686 54.2829 171.761C54.318 171.835 54.3355 171.919 54.3337 172.004C54.3319 172.088 54.3108 172.171 54.2726 172.244C54.2343 172.317 54.1801 172.378 54.1151 172.42C53.9942 172.497 53.8649 172.55 53.7441 172.623C52.9698 173.085 52.1572 173.461 51.3179 173.745C51.1565 173.801 51.0005 173.88 50.8334 173.929C50.2687 174.099 50.0527 173.106 50.6202 172.935C50.6804 172.918 50.7363 172.887 50.795 172.868C51.8014 172.552 52.7694 172.097 53.6773 171.516C53.7486 171.468 53.8319 171.448 53.9143 171.459C53.9966 171.47 54.0736 171.511 54.1331 171.576Z" fill="#1A1A1A"/>
<path d="M33.1965 172.037C33.1171 172.072 33.0637 172.036 32.9997 172.025C32.6243 171.955 32.5262 171.249 32.9819 171.045C33.1083 170.988 33.2403 170.948 33.3682 170.894C33.5665 170.811 33.7661 170.743 33.9644 170.663C35.5864 170.001 37.2398 169.442 38.9171 168.987C39.0651 168.949 39.209 168.893 39.357 168.855C39.9022 168.715 40.1053 169.603 39.6219 169.808C39.6055 169.826 39.5936 169.839 39.5773 169.857C39.3707 169.91 39.1667 169.98 38.9629 170.039C37.0798 170.55 35.227 171.191 33.4152 171.961C33.3389 171.986 33.2656 172.007 33.1965 172.037Z" fill="#1A1A1A"/>
<path d="M31.1219 176.819C30.5696 177.034 30.3566 176.037 30.9087 175.825L31.8562 175.442L31.915 175.421L37.9586 173.058C37.9953 173.044 38.0306 173.031 38.0658 173.016C38.6181 172.8 38.8326 173.796 38.2819 174.009L37.5534 174.293C35.4972 175.098 33.4425 175.902 31.3893 176.706C31.3084 176.745 31.2129 176.785 31.1219 176.819Z" fill="#1A1A1A"/>
<path d="M29.591 181.509C29.0813 181.62 28.8959 180.715 29.4289 180.521C29.649 180.443 29.8577 180.352 30.075 180.271C32.1997 179.476 34.2935 178.598 36.3428 177.588C36.8767 177.332 37.3148 178.223 36.7778 178.486C36.4704 178.636 36.1574 178.766 35.8471 178.912C33.8074 179.876 31.7441 180.757 29.6389 181.521C29.6171 181.516 29.6029 181.496 29.591 181.509Z" fill="#1A1A1A"/>
</g>
<path d="M57.2983 88.2915C56.7612 87.7544 56.1183 87.3394 55.3696 87.0464C54.6291 86.7534 53.8356 86.6069 52.9893 86.6069C52.1429 86.6069 51.3698 86.7534 50.6699 87.0464C49.9701 87.3394 49.3678 87.7585 48.8633 88.3037C48.3587 88.849 47.9681 89.5 47.6914 90.2568C47.4147 91.0055 47.2764 91.8438 47.2764 92.7715C47.2764 93.6992 47.4147 94.5496 47.6914 95.3228C47.9762 96.0959 48.375 96.7632 48.8877 97.3247C49.4085 97.8781 50.0229 98.3094 50.731 98.6187C51.4471 98.9279 52.2365 99.0825 53.0991 99.0825C53.8153 99.0825 54.4704 98.9727 55.0645 98.7529C55.6667 98.5332 56.1956 98.2199 56.6514 97.813C57.1071 97.4061 57.4814 96.9137 57.7744 96.3359C58.0755 95.7581 58.283 95.1112 58.397 94.395H53.0869V91.5264H61.7051L61.8149 92.9424C61.8149 94.334 61.5993 95.6076 61.168 96.7632C60.7448 97.9188 60.1426 98.9157 59.3613 99.7539C58.5801 100.584 57.6483 101.227 56.5659 101.683C55.4917 102.138 54.2995 102.366 52.9893 102.366C51.6302 102.366 50.3688 102.126 49.2051 101.646C48.0495 101.166 47.0363 100.494 46.1655 99.6318C45.3029 98.7692 44.6315 97.7601 44.1514 96.6045C43.6712 95.4408 43.4312 94.1834 43.4312 92.8325C43.4312 91.4816 43.6672 90.2324 44.1392 89.085C44.6193 87.9294 45.2866 86.9202 46.1411 86.0576C47.0037 85.195 48.0088 84.5236 49.1562 84.0435C50.3037 83.5633 51.5529 83.3232 52.9038 83.3232C54.1652 83.3232 55.3859 83.543 56.5659 83.9824C57.7459 84.4219 58.7998 85.0485 59.7275 85.8623L57.2983 88.2915ZM64.1587 102V83.6895H75.9751V86.9731H67.9185V91.1357H75.4746V94.4316H67.9185V98.7163H76.0972V102H64.1587ZM86.8638 102H83.104V86.9731H77.7085V83.6895H92.2715V86.9731H86.8638V102ZM115.672 83.6895V93.7603C115.672 95.5506 115.351 97.0887 114.708 98.3745C114.073 99.6603 113.158 100.649 111.961 101.341C110.773 102.024 109.345 102.366 107.677 102.366C106.017 102.366 104.588 102.024 103.392 101.341C102.196 100.649 101.276 99.6603 100.633 98.3745C99.9985 97.0887 99.6812 95.5506 99.6812 93.7603V83.6895H103.441V93.2964C103.441 94.5741 103.6 95.6401 103.917 96.4946C104.243 97.3491 104.719 97.9961 105.345 98.4355C105.972 98.8669 106.749 99.0825 107.677 99.0825C108.604 99.0825 109.382 98.8669 110.008 98.4355C110.635 97.9961 111.107 97.3491 111.424 96.4946C111.75 95.6401 111.913 94.5741 111.913 93.2964V83.6895H115.672ZM118.651 102V83.6895H124.913C126.451 83.6895 127.778 83.9417 128.893 84.4463C130.016 84.9427 130.878 85.6548 131.48 86.5825C132.083 87.5021 132.384 88.6007 132.384 89.8784C132.384 91.1561 132.083 92.2629 131.48 93.1987C130.878 94.1265 130.02 94.8426 128.905 95.3472C127.798 95.8517 126.48 96.104 124.95 96.104H122.411V102H118.651ZM122.411 92.8081H124.559C125.837 92.8081 126.817 92.5558 127.501 92.0513C128.193 91.5386 128.539 90.8143 128.539 89.8784C128.539 88.9588 128.193 88.2467 127.501 87.7422C126.817 87.2295 125.837 86.9731 124.559 86.9731H122.411V92.8081ZM148.607 102H144.847V86.9731H139.452V83.6895H154.015V86.9731H148.607V102ZM164.769 102.366C163.377 102.366 162.092 102.13 160.912 101.658C159.74 101.178 158.718 100.511 157.848 99.6562C156.985 98.7936 156.314 97.7845 155.833 96.6289C155.361 95.4733 155.125 94.2119 155.125 92.8447C155.125 91.4775 155.361 90.2161 155.833 89.0605C156.314 87.8968 156.985 86.8877 157.848 86.0332C158.718 85.1787 159.74 84.5155 160.912 84.0435C162.092 83.5633 163.377 83.3232 164.769 83.3232C166.161 83.3232 167.442 83.5633 168.614 84.0435C169.786 84.5155 170.799 85.1787 171.654 86.0332C172.516 86.8877 173.188 87.8968 173.668 89.0605C174.148 90.2161 174.388 91.4775 174.388 92.8447C174.388 94.2119 174.148 95.4733 173.668 96.6289C173.188 97.7845 172.516 98.7936 171.654 99.6562C170.799 100.511 169.786 101.178 168.614 101.658C167.442 102.13 166.161 102.366 164.769 102.366ZM164.769 99.0825C165.591 99.0825 166.352 98.9238 167.052 98.6064C167.76 98.2891 168.374 97.8496 168.895 97.2881C169.416 96.7184 169.819 96.0592 170.104 95.3105C170.396 94.5537 170.543 93.7318 170.543 92.8447C170.543 91.9577 170.396 91.1357 170.104 90.3789C169.819 89.6221 169.416 88.9629 168.895 88.4014C168.374 87.8317 167.76 87.3923 167.052 87.083C166.352 86.7656 165.591 86.6069 164.769 86.6069C163.939 86.6069 163.17 86.7656 162.462 87.083C161.762 87.3923 161.148 87.8317 160.619 88.4014C160.098 88.9629 159.691 89.6221 159.398 90.3789C159.113 91.1357 158.971 91.9577 158.971 92.8447C158.971 93.7318 159.113 94.5537 159.398 95.3105C159.691 96.0674 160.098 96.7306 160.619 97.3003C161.148 97.8618 161.762 98.3013 162.462 98.6187C163.17 98.9279 163.939 99.0825 164.769 99.0825ZM181.761 100.108L183.702 97.0562C184.02 97.6665 184.496 98.1589 185.13 98.5332C185.765 98.8994 186.453 99.0825 187.193 99.0825C187.836 99.0825 188.406 98.9442 188.902 98.6675C189.399 98.3908 189.785 98.0083 190.062 97.52C190.347 97.0236 190.489 96.458 190.489 95.8232C190.489 95.1803 190.347 94.6147 190.062 94.1265C189.785 93.6382 189.395 93.2557 188.89 92.979C188.386 92.7023 187.812 92.564 187.169 92.564C186.681 92.564 186.221 92.6494 185.79 92.8203C185.358 92.9912 184.972 93.2394 184.63 93.5649L182.811 92.5029L183.617 83.6895H193.248V86.9731H187.059L186.656 90.8428C187.201 90.6882 187.779 90.6108 188.39 90.6108C189.529 90.6108 190.546 90.855 191.441 91.3433C192.337 91.8315 193.041 92.4989 193.553 93.3452C194.074 94.1916 194.334 95.1641 194.334 96.2627C194.334 97.4346 194.037 98.4803 193.443 99.3999C192.857 100.319 192.052 101.044 191.026 101.573C190.009 102.102 188.841 102.366 187.523 102.366C186.424 102.366 185.37 102.171 184.361 101.78C183.36 101.382 182.494 100.824 181.761 100.108ZM202.745 102.366C201.378 102.366 200.194 101.996 199.193 101.255C198.192 100.507 197.415 99.4243 196.861 98.0083C196.316 96.5841 196.043 94.8589 196.043 92.8325C196.043 90.8143 196.316 89.0972 196.861 87.6812C197.415 86.2651 198.192 85.1868 199.193 84.4463C200.194 83.6976 201.378 83.3232 202.745 83.3232C204.12 83.3232 205.309 83.6976 206.31 84.4463C207.311 85.1868 208.084 86.2651 208.629 87.6812C209.182 89.0972 209.459 90.8143 209.459 92.8325C209.459 94.8589 209.186 96.5841 208.641 98.0083C208.096 99.4243 207.319 100.507 206.31 101.255C205.309 101.996 204.12 102.366 202.745 102.366ZM202.745 99.0825C203.657 99.0825 204.361 98.5373 204.857 97.4468C205.361 96.3563 205.614 94.8223 205.614 92.8447C205.614 90.859 205.361 89.325 204.857 88.2427C204.361 87.1522 203.657 86.6069 202.745 86.6069C201.85 86.6069 201.15 87.1522 200.646 88.2427C200.141 89.325 199.889 90.859 199.889 92.8447C199.889 94.8223 200.141 96.3563 200.646 97.4468C201.15 98.5373 201.85 99.0825 202.745 99.0825ZM215.099 91.3433C213.862 91.3433 212.861 90.9811 212.096 90.2568C211.339 89.5326 210.96 88.5804 210.96 87.4004C210.96 86.2122 211.339 85.256 212.096 84.5317C212.861 83.8075 213.862 83.4453 215.099 83.4453C216.344 83.4453 217.345 83.8075 218.102 84.5317C218.867 85.256 219.249 86.2122 219.249 87.4004C219.249 88.5804 218.867 89.5326 218.102 90.2568C217.345 90.9811 216.344 91.3433 215.099 91.3433ZM215.843 101.988H212.95L224.754 83.6772H227.647L215.843 101.988ZM215.099 89.3901C215.611 89.3901 216.026 89.207 216.344 88.8408C216.661 88.4665 216.82 87.9823 216.82 87.3882C216.82 86.786 216.661 86.3058 216.344 85.9478C216.026 85.5815 215.611 85.3984 215.099 85.3984C214.586 85.3984 214.171 85.5815 213.854 85.9478C213.544 86.3058 213.39 86.786 213.39 87.3882C213.39 87.9823 213.544 88.4665 213.854 88.8408C214.171 89.207 214.586 89.3901 215.099 89.3901ZM225.401 102.256C224.164 102.256 223.163 101.894 222.398 101.17C221.642 100.438 221.263 99.4813 221.263 98.3013C221.263 97.1131 221.642 96.1569 222.398 95.4326C223.163 94.7083 224.164 94.3462 225.401 94.3462C226.646 94.3462 227.647 94.7083 228.404 95.4326C229.161 96.1569 229.54 97.1131 229.54 98.3013C229.54 99.4813 229.157 100.438 228.392 101.17C227.635 101.894 226.638 102.256 225.401 102.256ZM225.401 100.291C225.914 100.291 226.325 100.108 226.634 99.7417C226.952 99.3755 227.11 98.8953 227.11 98.3013C227.11 97.6991 226.952 97.2148 226.634 96.8486C226.325 96.4824 225.914 96.2993 225.401 96.2993C224.881 96.2993 224.465 96.4824 224.156 96.8486C223.847 97.2148 223.692 97.6991 223.692 98.3013C223.692 98.8953 223.847 99.3755 224.156 99.7417C224.465 100.108 224.881 100.291 225.401 100.291ZM246.336 102.366C244.945 102.366 243.659 102.13 242.479 101.658C241.307 101.178 240.286 100.511 239.415 99.6562C238.552 98.7936 237.881 97.7845 237.401 96.6289C236.929 95.4733 236.693 94.2119 236.693 92.8447C236.693 91.4775 236.929 90.2161 237.401 89.0605C237.881 87.8968 238.552 86.8877 239.415 86.0332C240.286 85.1787 241.307 84.5155 242.479 84.0435C243.659 83.5633 244.945 83.3232 246.336 83.3232C247.728 83.3232 249.01 83.5633 250.182 84.0435C251.354 84.5155 252.367 85.1787 253.221 86.0332C254.084 86.8877 254.755 87.8968 255.235 89.0605C255.715 90.2161 255.956 91.4775 255.956 92.8447C255.956 94.2119 255.715 95.4733 255.235 96.6289C254.755 97.7845 254.084 98.7936 253.221 99.6562C252.367 100.511 251.354 101.178 250.182 101.658C249.01 102.13 247.728 102.366 246.336 102.366ZM246.336 99.0825C247.158 99.0825 247.919 98.9238 248.619 98.6064C249.327 98.2891 249.942 97.8496 250.462 97.2881C250.983 96.7184 251.386 96.0592 251.671 95.3105C251.964 94.5537 252.11 93.7318 252.11 92.8447C252.11 91.9577 251.964 91.1357 251.671 90.3789C251.386 89.6221 250.983 88.9629 250.462 88.4014C249.942 87.8317 249.327 87.3923 248.619 87.083C247.919 86.7656 247.158 86.6069 246.336 86.6069C245.506 86.6069 244.737 86.7656 244.029 87.083C243.329 87.3923 242.715 87.8317 242.186 88.4014C241.665 88.9629 241.258 89.6221 240.965 90.3789C240.681 91.1357 240.538 91.9577 240.538 92.8447C240.538 93.7318 240.681 94.5537 240.965 95.3105C241.258 96.0674 241.665 96.7306 242.186 97.3003C242.715 97.8618 243.329 98.3013 244.029 98.6187C244.737 98.9279 245.506 99.0825 246.336 99.0825ZM258.299 102V83.6895H269.75V86.9731H262.059V91.1357H269.249V94.4316H262.059V102H258.299ZM272.606 102V83.6895H284.056V86.9731H276.366V91.1357H283.556V94.4316H276.366V102H272.606Z" fill="#1D2025"/>
</svg>
