<svg width="18" height="18" viewBox="0 0 18 18" fill="none" xmlns="http://www.w3.org/2000/svg">
<path d="M17.2611 3.2769H3.18594L2.97723 0.7344C2.96074 0.533709 2.87597 0.347024 2.73963 0.211102C2.60329 0.0751799 2.42524 -0.00012994 2.24055 1.68305e-07H0.739151C0.543116 1.68305e-07 0.35511 0.0849599 0.216492 0.236189C0.0778746 0.387419 0 0.59253 0 0.8064C0 1.02027 0.0778746 1.22538 0.216492 1.37661C0.35511 1.52784 0.543116 1.6128 0.739151 1.6128H1.5641L2.41461 11.9475C2.47483 12.6927 2.84358 13.5009 3.47962 14.0499C2.33377 15.6465 3.38062 18 5.245 18C6.79177 18 7.88235 16.317 7.35191 14.7222H11.3983C10.8686 16.3152 11.9567 18 13.506 18C14.1002 17.9993 14.67 17.7414 15.0902 17.283C15.5104 16.8246 15.7467 16.203 15.7474 15.5547C15.7467 14.9064 15.5104 14.2848 15.0902 13.8264C14.67 13.368 14.1002 13.1101 13.506 13.1094H5.24995C4.68816 13.1094 4.19897 12.7404 3.98778 12.2013L15.8018 11.4435C15.959 11.4335 16.1091 11.369 16.2304 11.2594C16.3516 11.1498 16.4376 11.0008 16.4758 10.8342L17.978 4.2795C18.0052 4.16053 18.0072 4.03636 17.9838 3.91643C17.9605 3.79649 17.9124 3.68394 17.8432 3.5873C17.774 3.49067 17.6856 3.41249 17.5846 3.35871C17.4836 3.30493 17.3727 3.27695 17.2603 3.2769H17.2611ZM5.24417 16.3872C5.04793 16.3772 4.86275 16.2852 4.7271 16.1301C4.59145 15.9751 4.51577 15.769 4.51577 15.5547C4.51577 15.3404 4.59145 15.1343 4.7271 14.9792C4.86275 14.8242 5.04793 14.7322 5.24417 14.7222C5.44042 14.7322 5.6256 14.8242 5.76125 14.9792C5.89689 15.1343 5.97258 15.3404 5.97258 15.5547C5.97258 15.769 5.89689 15.9751 5.76125 16.1301C5.6256 16.2852 5.44042 16.3772 5.24417 16.3872ZM13.506 16.3872C13.3098 16.3772 13.1246 16.2852 12.9889 16.1301C12.8533 15.9751 12.7776 15.769 12.7776 15.5547C12.7776 15.3404 12.8533 15.1343 12.9889 14.9792C13.1246 14.8242 13.3098 14.7322 13.506 14.7222C13.7022 14.7322 13.8874 14.8242 14.0231 14.9792C14.1587 15.1343 14.2344 15.3404 14.2344 15.5547C14.2344 15.769 14.1587 15.9751 14.0231 16.1301C13.8874 16.2852 13.7022 16.3772 13.506 16.3872ZM15.1732 9.8685L3.78897 10.5975L3.31875 4.8906H16.3141L15.1732 9.8676V9.8685Z" fill="#1D2025"/>
</svg>
