<svg width="14" height="16" viewBox="0 0 14 16" fill="none" xmlns="http://www.w3.org/2000/svg">
<path d="M2.33594 4H11.6693L10.7476 13.48C10.716 13.8063 10.5802 14.1077 10.3663 14.3267C10.1523 14.5456 9.87515 14.6667 9.58794 14.6667H4.41727C4.13006 14.6667 3.85293 14.5456 3.63896 14.3267C3.42498 14.1077 3.2892 13.8063 3.2576 13.48L2.33594 4Z" stroke="#68707D" stroke-linecap="round" stroke-linejoin="round"/>
<path d="M4.28458 2.09816C4.37894 1.86947 4.52825 1.67616 4.71509 1.54077C4.90193 1.40538 5.1186 1.33349 5.33983 1.3335H8.66017C8.8815 1.33337 9.0983 1.40519 9.28525 1.54059C9.47221 1.67599 9.6216 1.86937 9.716 2.09816L10.5 4.00016H3.5L4.28458 2.09816Z" stroke="#68707D" stroke-linecap="round" stroke-linejoin="round"/>
<path d="M1.16797 4.00024H12.8346" stroke="#68707D" stroke-linecap="round" stroke-linejoin="round"/>
<path d="M5.83594 7.3335V10.6668" stroke="#68707D" stroke-linecap="round" stroke-linejoin="round"/>
<path d="M8.16797 7.3335V10.6668" stroke="#68707D" stroke-linecap="round" stroke-linejoin="round"/>
</svg>
