<svg width="8" height="8" viewBox="0 0 8 8" fill="none" xmlns="http://www.w3.org/2000/svg">
<path d="M0.646894 0.646894C0.693339 0.60033 0.748515 0.563387 0.80926 0.538181C0.870005 0.512974 0.935126 0.5 1.00089 0.5C1.06666 0.5 1.13178 0.512974 1.19253 0.538181C1.25327 0.563387 1.30845 0.60033 1.35489 0.646894L4.00089 3.29389L6.64689 0.646894C6.69338 0.600406 6.74857 0.563529 6.80931 0.53837C6.87005 0.513211 6.93515 0.500262 7.00089 0.500262C7.06664 0.500262 7.13174 0.513211 7.19248 0.53837C7.25322 0.563529 7.30841 0.600406 7.35489 0.646894C7.40138 0.693381 7.43826 0.748571 7.46342 0.80931C7.48858 0.870049 7.50152 0.93515 7.50152 1.00089C7.50152 1.06664 7.48858 1.13174 7.46342 1.19248C7.43826 1.25322 7.40138 1.30841 7.35489 1.35489L4.70789 4.00089L7.35489 6.64689C7.40138 6.69338 7.43826 6.74857 7.46342 6.80931C7.48858 6.87005 7.50152 6.93515 7.50152 7.00089C7.50152 7.06664 7.48858 7.13174 7.46342 7.19248C7.43826 7.25322 7.40138 7.30841 7.35489 7.35489C7.30841 7.40138 7.25322 7.43826 7.19248 7.46342C7.13174 7.48858 7.06664 7.50152 7.00089 7.50152C6.93515 7.50152 6.87005 7.48858 6.80931 7.46342C6.74857 7.43826 6.69338 7.40138 6.64689 7.35489L4.00089 4.70789L1.35489 7.35489C1.30841 7.40138 1.25322 7.43826 1.19248 7.46342C1.13174 7.48858 1.06664 7.50152 1.00089 7.50152C0.93515 7.50152 0.870049 7.48858 0.80931 7.46342C0.748571 7.43826 0.693381 7.40138 0.646894 7.35489C0.600406 7.30841 0.563529 7.25322 0.53837 7.19248C0.513211 7.13174 0.500262 7.06664 0.500262 7.00089C0.500262 6.93515 0.513211 6.87005 0.53837 6.80931C0.563529 6.74857 0.600406 6.69338 0.646894 6.64689L3.29389 4.00089L0.646894 1.35489C0.60033 1.30845 0.563387 1.25327 0.538181 1.19253C0.512974 1.13178 0.5 1.06666 0.5 1.00089C0.5 0.935126 0.512974 0.870005 0.538181 0.80926C0.563387 0.748515 0.60033 0.693339 0.646894 0.646894Z" fill="#1D2025"/>
</svg>
