<svg width="9" height="15" viewBox="0 0 9 15" fill="none" xmlns="http://www.w3.org/2000/svg">
<path fill-rule="evenodd" clip-rule="evenodd" d="M4.5 0.937447C3.54522 0.937447 2.62955 1.33254 1.95442 2.0358C1.27928 2.73907 0.9 3.6929 0.9 4.68746C0.9 5.68203 1.27928 6.63586 1.95442 7.33912C2.62955 8.04239 3.54522 8.43748 4.5 8.43748C5.45478 8.43748 6.37045 8.04239 7.04558 7.33912C7.72072 6.63586 8.1 5.68203 8.1 4.68746C8.1 3.6929 7.72072 2.73907 7.04558 2.0358C6.37045 1.33254 5.45478 0.937447 4.5 0.937447ZM3.55506e-10 4.68746C1.09405e-05 3.78035 0.252694 2.89272 0.727405 2.13224C1.20211 1.37175 1.87846 0.771081 2.6744 0.403075C3.47035 0.0350689 4.35171 -0.0844623 5.21158 0.0589782C6.07145 0.202419 6.87289 0.602668 7.51871 1.21118C8.16453 1.8197 8.62698 2.61034 8.84997 3.48721C9.07296 4.36408 9.04691 5.28951 8.77498 6.15127C8.50305 7.01302 7.99692 7.77408 7.31798 8.34213C6.63904 8.91018 5.81646 9.26083 4.95 9.35154V11.25H6.75C6.86935 11.25 6.98381 11.2994 7.0682 11.3873C7.15259 11.4752 7.2 11.5944 7.2 11.7187C7.2 11.8431 7.15259 11.9623 7.0682 12.0502C6.98381 12.1381 6.86935 12.1875 6.75 12.1875H4.95V14.5312C4.95 14.6556 4.90259 14.7748 4.8182 14.8627C4.73381 14.9506 4.61935 15 4.5 15C4.38065 15 4.26619 14.9506 4.1818 14.8627C4.09741 14.7748 4.05 14.6556 4.05 14.5312V12.1875H2.25C2.13065 12.1875 2.01619 12.1381 1.9318 12.0502C1.84741 11.9623 1.8 11.8431 1.8 11.7187C1.8 11.5944 1.84741 11.4752 1.9318 11.3873C2.01619 11.2994 2.13065 11.25 2.25 11.25H4.05V9.35154C2.94002 9.23534 1.91104 8.69379 1.16269 7.83198C0.414346 6.97017 -1.40145e-05 5.84952 3.55506e-10 4.68746Z" fill="#68707D" fill-opacity="0.5"/>
</svg>
