<svg width="17" height="15" viewBox="0 0 17 15" fill="none" xmlns="http://www.w3.org/2000/svg">
<path d="M15.3176 1.51708C14.9156 1.11509 14.4384 0.796264 13.9131 0.578811C13.3879 0.361358 12.8249 0.249543 12.2564 0.249756C11.6879 0.24997 11.125 0.362207 10.5999 0.580055C10.0748 0.797903 9.59782 1.11709 9.19614 1.51938L8.6718 2.0501L8.15183 1.52052L8.14845 1.51714C7.74665 1.11535 7.26966 0.796628 6.74469 0.579178C6.21972 0.361728 5.65706 0.249807 5.08884 0.249807C4.52061 0.249807 3.95796 0.361728 3.43299 0.579178C2.90802 0.796628 2.43102 1.11535 2.02923 1.51714L1.79564 1.75073C0.984189 2.56219 0.52832 3.66275 0.52832 4.81032C0.52832 5.95789 0.984189 7.05845 1.79564 7.86991L7.9606 14.0348L8.65679 14.7642L8.67339 14.7476L8.69141 14.7656L9.34369 14.0774L15.5512 7.86981C16.3614 7.05771 16.8165 5.95738 16.8165 4.81022C16.8165 3.66305 16.3614 2.56273 15.5512 1.75063L15.3176 1.51708ZM14.7862 7.10492L8.67339 13.2178L2.56049 7.10492C1.95191 6.49633 1.61001 5.67091 1.61001 4.81024C1.61001 3.94956 1.95191 3.12414 2.56049 2.51555L2.79411 2.28196C3.40241 1.67367 4.22733 1.3318 5.08758 1.33148C5.94784 1.33115 6.77302 1.67241 7.38177 2.28024L8.66947 3.5914L9.96329 2.28196C10.2646 1.98062 10.6224 1.74157 11.0161 1.57849C11.4098 1.4154 11.8318 1.33146 12.258 1.33146C12.6842 1.33146 13.1062 1.4154 13.4999 1.57849C13.8936 1.74157 14.2514 1.98062 14.5527 2.28196L14.7863 2.51551C15.394 3.12461 15.7352 3.94987 15.7352 4.81025C15.7352 5.67063 15.3939 6.49587 14.7862 7.10492V7.10492Z" fill="#1D2025"/>
</svg>
