<svg width="13" height="13" viewBox="0 0 13 13" fill="none" xmlns="http://www.w3.org/2000/svg">
<path fill-rule="evenodd" clip-rule="evenodd" d="M7.89297 0.92855C7.76984 0.92855 7.65175 0.879636 7.56468 0.792567C7.47761 0.705499 7.4287 0.587409 7.4287 0.464275C7.4287 0.341142 7.47761 0.223052 7.56468 0.135983C7.65175 0.0489145 7.76984 0 7.89297 0H12.5357C12.6589 0 12.7769 0.0489145 12.864 0.135983C12.9511 0.223052 13 0.341142 13 0.464275V5.10703C13 5.23016 12.9511 5.34825 12.864 5.43532C12.7769 5.52239 12.6589 5.5713 12.5357 5.5713C12.4126 5.5713 12.2945 5.52239 12.2074 5.43532C12.1204 5.34825 12.0714 5.23016 12.0714 5.10703V1.58504L8.23747 5.41902C8.99127 6.34125 9.3618 7.51791 9.27241 8.70566C9.18303 9.8934 8.64057 11.0014 7.75723 11.8004C6.87389 12.5994 5.71725 13.0284 4.52652 12.9985C3.33579 12.9687 2.20207 12.4824 1.35983 11.6402C0.517596 10.7979 0.0312765 9.66421 0.00145673 8.47348C-0.028363 7.28275 0.400598 6.12611 1.19962 5.24277C1.99864 4.35943 3.1066 3.81697 4.29434 3.72759C5.48209 3.6382 6.65875 4.00873 7.58098 4.76253L11.415 0.92855H7.89297ZM4.64305 4.64275C3.65798 4.64275 2.71326 5.03407 2.01671 5.73062C1.32016 6.42716 0.928846 7.37189 0.928846 8.35695C0.928846 9.34202 1.32016 10.2867 2.01671 10.9833C2.71326 11.6798 3.65798 12.0712 4.64305 12.0712C5.62812 12.0712 6.57284 11.6798 7.26938 10.9833C7.96593 10.2867 8.35725 9.34202 8.35725 8.35695C8.35725 7.37189 7.96593 6.42716 7.26938 5.73062C6.57284 5.03407 5.62812 4.64275 4.64305 4.64275Z" fill="#FB2E86"/>
</svg>
