<svg width="19" height="19" viewBox="0 0 19 19" fill="none" xmlns="http://www.w3.org/2000/svg">
<path d="M8.90623 17.8133H1.18751V1.18827H8.90623C9.23399 1.18827 9.49996 0.922244 9.49996 0.59453C9.49996 0.266815 9.23394 0.000793457 8.90623 0.000793457H0.593732C0.26602 0.000793457 0 0.266766 0 0.59453V18.4071C0 18.7348 0.26602 19.0008 0.593732 19.0008H8.90618C9.23394 19.0008 9.49991 18.7348 9.49991 18.4071C9.49996 18.0793 9.23394 17.8133 8.90623 17.8133Z" fill="#FB2E86"/>
<path d="M18.8274 9.08634L14.7305 4.93068C14.4984 4.69615 14.1225 4.69674 13.891 4.93068C13.6588 5.16462 13.6588 5.54461 13.891 5.77855L16.9785 8.91059H4.75145C4.42369 8.91059 4.15771 9.17898 4.15771 9.5103C4.15771 9.84162 4.42373 10.11 4.75145 10.11H16.9785L13.891 13.2421C13.6588 13.4766 13.6588 13.856 13.891 14.0899C14.1231 14.3244 14.499 14.3244 14.7305 14.0899L18.8268 9.93426C19.056 9.70328 19.0584 9.31673 18.8274 9.08634Z" fill="#FB2E86"/>
</svg>
