<svg width="21" height="18" viewBox="0 0 21 18" fill="none" xmlns="http://www.w3.org/2000/svg">
<path d="M19.6663 0.909044C18.8683 1.51697 17.9848 1.98194 17.0497 2.28604C16.5478 1.6628 15.8808 1.22107 15.1389 1.02058C14.397 0.820088 13.6159 0.87052 12.9014 1.16505C12.1869 1.45958 11.5734 1.98401 11.1438 2.66739C10.7143 3.35077 10.4894 4.16015 10.4997 4.98604V5.88604C9.0352 5.92706 7.58407 5.57628 6.27551 4.86495C4.96696 4.15362 3.84161 3.10382 2.99967 1.80904C2.99967 1.80904 -0.333659 9.90904 7.16634 13.509C5.45011 14.7672 3.40564 15.3981 1.33301 15.309C8.83301 19.809 17.9997 15.309 17.9997 4.95904C17.9989 4.70835 17.9766 4.45828 17.933 4.21204C18.7835 3.30619 19.3837 2.16249 19.6663 0.909044V0.909044Z" stroke="#1D2025" stroke-width="1.8" stroke-linecap="round" stroke-linejoin="round"/>
</svg>
