<svg width="20" height="20" viewBox="0 0 20 20" fill="none" xmlns="http://www.w3.org/2000/svg">
<path fill-rule="evenodd" clip-rule="evenodd" d="M10.1465 8.5C12.0795 8.5 13.6465 6.933 13.6465 5C13.6465 3.067 12.0795 1.5 10.1465 1.5C8.21349 1.5 6.64648 3.067 6.64648 5C6.64648 6.933 8.21349 8.5 10.1465 8.5ZM10.1465 10C12.9079 10 15.1465 7.76142 15.1465 5C15.1465 2.23858 12.9079 0 10.1465 0C7.38506 0 5.14648 2.23858 5.14648 5C5.14648 7.76142 7.38506 10 10.1465 10Z" fill="#1D2025"/>
<path fill-rule="evenodd" clip-rule="evenodd" d="M7.14648 13.75C4.79927 13.75 2.89648 15.6528 2.89648 18V19C2.89648 19.4142 2.5607 19.75 2.14648 19.75C1.73227 19.75 1.39648 19.4142 1.39648 19V18C1.39648 14.8244 3.97085 12.25 7.14648 12.25H13.1465C16.3221 12.25 18.8965 14.8244 18.8965 18V19C18.8965 19.4142 18.5607 19.75 18.1465 19.75C17.7323 19.75 17.3965 19.4142 17.3965 19V18C17.3965 15.6528 15.4937 13.75 13.1465 13.75H7.14648Z" fill="#1D2025"/>
</svg>
